<svg width="80" height="80" viewBox="0 0 80 80" fill="none" xmlns="http://www.w3.org/2000/svg">
<path d="M46 20V24M46 56V60M20 46H24M20 34H24M56 46H60M56 34H60M34 20V24M34 56V60M28 24H52C54.2091 24 56 25.7909 56 28V52C56 54.2091 54.2091 56 52 56H28C25.7909 56 24 54.2091 24 52V28C24 25.7909 25.7909 24 28 24ZM36 34H44C45.1046 34 46 34.8954 46 36V44C46 45.1046 45.1046 46 44 46H36C34.8954 46 34 45.1046 34 44V36C34 34.8954 34.8954 34 36 34Z" stroke="white" stroke-width="3" stroke-linecap="round" stroke-linejoin="round"/>
</svg>
