<svg width="39" height="38" viewBox="0 0 39 38" fill="none" xmlns="http://www.w3.org/2000/svg">
<path d="M16.3334 3.16667V15.8333L21.0834 11.0833L25.8334 15.8333V3.16667M6.83337 30.875V7.125C6.83337 6.07519 7.25041 5.06837 7.99274 4.32604C8.73507 3.58371 9.74189 3.16667 10.7917 3.16667H30.5834C31.0033 3.16667 31.406 3.33349 31.703 3.63042C31.9999 3.92735 32.1667 4.33008 32.1667 4.75001V33.25C32.1667 33.6699 31.9999 34.0727 31.703 34.3696C31.406 34.6665 31.0033 34.8333 30.5834 34.8333H10.7917C9.74189 34.8333 8.73507 34.4163 7.99274 33.674C7.25041 32.9316 6.83337 31.9248 6.83337 30.875ZM6.83337 30.875C6.83337 29.8252 7.25041 28.8184 7.99274 28.076C8.73507 27.3337 9.74189 26.9167 10.7917 26.9167H32.1667" stroke="#383F96" stroke-width="2" stroke-linecap="round" stroke-linejoin="round"/>
</svg>
