<svg width="56" height="34" viewBox="0 0 56 34" fill="none" xmlns="http://www.w3.org/2000/svg">
<path d="M49.5752 0.0664062H22.3807H19.0215L15.9813 8.1359L15.8302 8.5369H16.4118H19.2047H46.0021L47.2848 5.4961L48.1073 3.54618L49.5752 0.0664062Z" fill="#FBF5F5"/>
<path d="M40.0624 25.4626H39.2676H18.3497H12.6084H9.49351L8.46953 28.1805L7.62398 30.4248L6.30225 33.9331H9.41717H15.1737H36.8864L39.8731 25.9675L40.0624 25.4626Z" fill="#FBF5F5"/>
<path fill-rule="evenodd" clip-rule="evenodd" d="M44.8264 12.7798H14.2575L11.0662 21.2503H41.6504L44.8264 12.7798Z" fill="#FBF5F5"/>
<path fill-rule="evenodd" clip-rule="evenodd" d="M28.0338 4.17677C23.7196 5.14746 19.6326 6.51479 15.9813 8.1359C14.9302 8.60259 13.9152 9.0903 12.9412 9.59564C12.829 9.6539 12.7172 9.71239 12.6061 9.77111C9.70632 11.3026 7.18321 12.99 5.17199 14.7404C7.1741 13.0385 9.82566 11.4155 12.9412 9.98176C14.0428 9.47485 15.2024 8.9916 16.4118 8.5369C19.968 7.19987 23.9548 6.10967 28.1639 5.39036C35.6394 4.11469 42.3991 4.24815 47.2848 5.4961C47.8942 5.65177 48.4745 5.82479 49.0234 6.01459C52.87 7.34463 55.1739 9.49834 55.1613 12.2789C55.1434 16.2098 50.4972 20.4695 43.4208 23.7526C42.1146 24.3586 40.7256 24.9313 39.2676 25.4626C35.8492 26.7081 32.0516 27.7256 28.053 28.4093C20.3386 29.7257 13.3865 29.5415 8.46953 28.1805C7.82857 28.0031 7.22219 27.8057 6.65322 27.589C3.13219 26.248 1.04358 24.1686 1.05563 21.5208C1.06527 19.7324 2.034 17.8751 3.75488 16.0719C1.3736 18.4942 0.00484268 20.9902 2.22388e-05 23.3289C-0.00505653 25.1964 0.859931 26.7751 2.41958 28.024C2.76708 28.3023 3.14907 28.5642 3.56361 28.8093C4.45076 29.3337 5.48697 29.7811 6.65322 30.1469C6.67078 30.1524 6.68837 30.1579 6.70599 30.1634C7.00369 30.2559 7.30979 30.343 7.62398 30.4248C12.722 31.7523 19.9486 31.6698 27.9663 29.8637C32.2225 28.9049 36.2584 27.5604 39.8731 25.9675C40.9297 25.5019 41.9502 25.0151 42.9298 24.5104C43.0946 24.4255 43.2583 24.3401 43.4208 24.2542C50.992 20.2511 55.9909 15.1886 56 10.7164C56.0064 8.35105 54.6208 6.44925 52.1982 5.09349C52.1495 5.06622 52.1004 5.03917 52.0508 5.01234C51.1683 4.5347 50.1538 4.12729 49.0234 3.79392C48.726 3.70619 48.4205 3.62359 48.1073 3.54618C43.0257 2.29026 35.9115 2.40215 28.0338 4.17677Z" fill="url(#paint0_linear_495_1153)"/>
<path d="M15.9813 8.1359L19.0215 0.0664062C17.0118 5.30656 15.7774 8.03375 12.9412 9.59564C13.9152 9.0903 14.9302 8.60259 15.9813 8.1359Z" fill="#FBF5F5"/>
<path d="M19.2047 8.5369H16.4118C15.2024 8.9916 14.0428 9.47485 12.9412 9.98176C15.7117 8.84904 23.9193 8.587 46.0021 8.5369H19.2047Z" fill="#FBF5F5"/>
<path d="M39.8731 25.9675L36.8864 33.9331C38.8892 28.6411 40.1799 26.0496 42.9298 24.5104C41.9502 25.0151 40.9297 25.5019 39.8731 25.9675Z" fill="#FBF5F5"/>
<path d="M18.3497 25.4626H39.2676C40.7256 24.9313 42.1146 24.3586 43.4208 23.7526C39.8673 25.1997 30.066 25.3833 9.49351 25.4626H12.6084H18.3497Z" fill="#FBF5F5"/>
<path d="M6.30225 33.9331L7.62398 30.4248C7.30979 30.343 7.00369 30.2559 6.70599 30.1634C6.68837 30.1579 6.67078 30.1524 6.65322 30.1469C5.48697 29.7811 4.45076 29.3337 3.56361 28.8093C6.07641 30.5935 7.06654 31.8311 6.30225 33.9331Z" fill="#FBF5F5"/>
<path d="M49.5752 0.0664062L48.1073 3.54618C48.4205 3.62359 48.726 3.70619 49.0234 3.79392C50.1538 4.12729 51.1683 4.5347 52.0508 5.01234C48.9004 3.26302 48.7135 2.13788 49.5752 0.0664062Z" fill="#FBF5F5"/>
<defs>
<linearGradient id="paint0_linear_495_1153" x1="0" y1="16.9997" x2="56" y2="16.9997" gradientUnits="userSpaceOnUse">
<stop stop-color="#EABA51"/>
<stop offset="0.313" stop-color="#F3EDF5"/>
<stop offset="0.96" stop-color="#ECC77A"/>
</linearGradient>
</defs>
</svg>
