<svg width="314" height="168" viewBox="0 0 314 168" fill="none" xmlns="http://www.w3.org/2000/svg">
<path fill-rule="evenodd" clip-rule="evenodd" d="M79.9034 38.7771C99.0338 25.1009 126.306 13.1117 156.562 6.32536C214.365 -6.65503 261.177 4.23824 261.105 30.6933C261.103 31.6144 261.045 32.5422 260.93 33.4757H261.772H265.736H271.43H277.952H281.917H282.745H292.169H296.151H298.926V33.494H313.143L309.395 43.6183H295.16H292.385H288.421H278.98H278.151H274.187H267.664H266.583H257.667C256.813 45.2925 255.808 46.9726 254.658 48.6533H264.728H265.629H265.683C267.215 48.69 268.35 49.9532 268.404 51.3812L268.728 50.4841C269.143 49.3857 270.188 48.6533 271.341 48.6533H285.684H286.386H286.566V48.6716H293.269H307.504L303.756 58.796H289.521H284.693H282.783H281.9H280.819H269.845C268.476 58.796 266.746 59.9311 265.989 61.3225C265.233 62.7139 265.737 63.849 267.106 63.849H280.819H280.891V63.8307H301.882L298.116 73.955H279.035H277.125H264.007C262.458 73.955 261.286 72.6918 261.232 71.2271L260.908 72.1242C260.494 73.2227 259.449 73.955 258.295 73.955H243.268H242.926H226.491C207.907 85.7884 183.292 95.9805 156.31 102.04C98.5064 115.02 51.6943 104.108 51.7664 77.69C51.7718 75.0825 52.2337 72.4226 53.1169 69.7332L48.6497 72.6003L46.5596 73.9551H43.4424H39.7666H36.0908H10.4685H3.67556H-0.000213623L3.76565 63.8308H7.44143H14.2164H39.8387H40.9018L53.6769 55.6471L58.5058 52.5347L46.8479 43.6004H15.2254H11.2433L15.0092 33.4761H18.9733H51.0642H55.0463L58.2176 35.911L67.5511 43.0512L70.1458 45.0284L73.227 43.0512L79.9034 38.7771ZM89.1761 33.4761H92.1644H122.111H124.273H126.093H128.255H158.238H161.842H162.202C166.887 33.2381 170.401 34.9773 170.941 37.3208C171.049 37.7785 171.121 38.584 170.599 39.7191L170.437 40.1768L170.076 41.1471L168.941 44.1863L168.202 46.1452L166.671 50.2828L166.527 50.649C165.32 53.4684 162.689 58.5947 158.653 59.0158C158.581 59.0158 158.504 59.0203 158.427 59.0249C158.351 59.0295 158.274 59.0341 158.202 59.0341H156.761H155.499L155.86 73.5523H142.418L142.04 58.7778H119.39H110.796H107.678H88.1102L94.669 63.8491H126.273H127.03L123.264 73.9734H122.526H89.5517H87.1733H86.4345L84.6867 72.6186L75.3531 65.4419L72.1639 63.0069L68.2719 60.0044L63.6051 63.0069L59.8032 65.4419L55.9745 67.8992C55.8062 68.9219 55.7179 69.9402 55.7125 70.9526C55.6044 94.6432 100.777 106.122 156.634 96.6205C182.769 92.1662 206.607 83.9085 224.589 73.955H221.934L225.7 63.8307H240.084C242.206 62.1677 244.162 60.4808 245.941 58.7777H240.944H231.069C229.394 58.7777 228.223 57.0567 228.817 55.4639L230.763 50.2278L231.358 48.6533L231.79 47.4633C231.844 48.1773 232.367 48.6533 233.25 48.6533H254.234C255.231 46.974 256.038 45.2933 256.644 43.6183H235.969C234.78 43.6183 233.339 44.4605 232.474 45.5956L233.213 43.6183L234.744 39.499L236.474 34.8122C236.78 34.0066 237.537 33.4757 238.384 33.4757H240.942H250.456H254.438H255.015H256.438H257.727C254.104 11.8601 210.461 1.76143 157.049 10.8474C130.957 15.2923 107.147 23.538 89.1761 33.4761ZM246.02 58.7777C244.286 60.475 242.419 62.1613 240.427 63.8307H246.691H250.025H250.782C252.151 63.8307 253.881 62.6956 254.638 61.3042C255.394 59.9128 254.89 58.7777 253.521 58.7777H250.025H248.908H248.565H248.349H246.908H246.02ZM155.247 46.1269C154.833 47.5183 153.373 48.6534 152.004 48.6534H149.806H147.517H123.138H114.543H111.426H86.0021L93.8581 43.6004H118.363H120.544H122.345H124.508H151.752H153.535C154.905 43.6004 155.662 44.7355 155.247 46.1269ZM184.816 43.6H209.285H213.249L217.015 33.4757H213.033H188.582H186.708H179.717C179.122 33.4757 177.464 33.5672 175.861 34.739C174.545 35.691 173.915 36.9359 173.572 37.6682C172.257 40.5426 167.734 52.5893 161.932 69.0848C161.734 69.9819 161.86 70.6227 161.986 71.0071C162.599 72.8379 164.905 74.0463 167.734 73.9547H173.5H173.554H201.987L205.753 63.8304H177.302L184.816 43.6ZM220.311 33.4757L205.302 73.9547H218.744L233.753 33.4757H220.311ZM9.38793 48.6536H45.461L41.7131 58.7779H5.62207L9.38793 48.6536Z" fill="#F5F5F5"/>
<path d="M34.9813 147.051L38.6501 126.853H42.2005L38.5317 147.051H34.9813ZM26.0659 142.238L26.7365 138.688H42.7527L42.0821 142.238H26.0659ZM27.8806 147.051L31.5493 126.853H35.0997L31.431 147.051H27.8806ZM27.348 135.216L28.0088 131.666H44.025L43.3642 135.216H27.348ZM52.2229 126.853L48.8698 147.051H43.988L47.3411 126.853H52.2229ZM58.2265 138.412L56.7866 147.051H51.964L54.4887 131.902H59.0747L58.621 134.684H58.7887C59.2621 133.757 59.9491 133.03 60.8499 132.504C61.7506 131.971 62.7631 131.705 63.8874 131.705C64.946 131.705 65.8303 131.942 66.5403 132.415C67.2504 132.889 67.7534 133.553 68.0493 134.407C68.3451 135.256 68.3944 136.252 68.1972 137.396L66.5798 147.051H61.7572L63.2069 138.342C63.3516 137.507 63.2497 136.853 62.9012 136.38C62.5593 135.9 62.0005 135.66 61.2246 135.66C60.7184 135.66 60.2548 135.772 59.8341 135.995C59.4198 136.212 59.0714 136.525 58.7887 136.932C58.5125 137.34 58.3251 137.833 58.2265 138.412ZM80.6112 131.902L80.0096 135.453H70.4532L71.0548 131.902H80.6112ZM73.6485 128.273H78.4711L76.1437 142.287C76.0976 142.583 76.1042 142.823 76.1634 143.007C76.2291 143.185 76.3475 143.313 76.5184 143.392C76.6959 143.464 76.9129 143.5 77.1693 143.5C77.3468 143.5 77.5441 143.481 77.7611 143.441C77.978 143.402 78.1424 143.372 78.2542 143.352L78.412 146.834C78.1555 146.906 77.8104 146.988 77.3764 147.08C76.9491 147.179 76.4494 147.241 75.8774 147.268C74.7202 147.314 73.7636 147.179 73.0075 146.863C72.258 146.541 71.7287 146.042 71.4197 145.364C71.1172 144.687 71.0581 143.839 71.2421 142.82L73.6485 128.273ZM87.4457 147.337C85.8481 147.337 84.5298 147.008 83.491 146.351C82.4587 145.693 81.7322 144.776 81.3114 143.599C80.8907 142.422 80.8085 141.055 81.0649 139.496C81.3213 137.945 81.8506 136.584 82.6527 135.413C83.4548 134.243 84.4805 133.332 85.7297 132.682C86.9789 132.031 88.3958 131.705 89.9803 131.705C91.5714 131.705 92.8831 132.034 93.9153 132.691C94.9541 133.349 95.6839 134.266 96.1047 135.443C96.5321 136.62 96.6176 137.991 96.3611 139.556C96.1047 141.107 95.5722 142.468 94.7635 143.638C93.9548 144.802 92.9291 145.71 91.6865 146.36C90.4438 147.011 89.0303 147.337 87.4457 147.337ZM87.9881 143.698C88.5799 143.698 89.1091 143.52 89.576 143.165C90.0493 142.81 90.4471 142.314 90.7693 141.676C91.0914 141.038 91.3216 140.298 91.4596 139.457C91.5977 138.628 91.6109 137.902 91.4991 137.277C91.3939 136.646 91.1703 136.156 90.8285 135.808C90.4866 135.453 90.023 135.275 89.4379 135.275C88.8462 135.275 88.3136 135.456 87.8402 135.818C87.3668 136.173 86.9691 136.669 86.6469 137.307C86.3313 137.938 86.1045 138.678 85.9664 139.526C85.8283 140.354 85.8119 141.081 85.9171 141.705C86.0223 142.33 86.2491 142.82 86.5976 143.175C86.946 143.523 87.4096 143.698 87.9881 143.698ZM98.4889 130.818L99.1595 126.853H116.231L115.56 130.818H109.436L106.753 147.051H101.941L104.623 130.818H98.4889ZM121.554 138.412L120.114 147.051H115.292L118.645 126.853H123.31L122.027 134.684H122.195C122.682 133.75 123.359 133.02 124.227 132.494C125.095 131.968 126.101 131.705 127.245 131.705C128.297 131.705 129.178 131.942 129.888 132.415C130.598 132.882 131.101 133.543 131.397 134.398C131.692 135.252 131.745 136.252 131.554 137.396L129.937 147.051H125.114L126.574 138.342C126.705 137.501 126.597 136.843 126.249 136.37C125.9 135.897 125.341 135.66 124.572 135.66C124.066 135.66 123.599 135.772 123.172 135.995C122.751 136.212 122.399 136.525 122.116 136.932C121.834 137.34 121.646 137.833 121.554 138.412ZM139.959 147.337C138.375 147.337 137.06 147.024 136.015 146.4C134.976 145.769 134.246 144.871 133.825 143.707C133.404 142.537 133.329 141.147 133.598 139.536C133.861 137.971 134.397 136.603 135.206 135.433C136.021 134.256 137.047 133.342 138.283 132.691C139.519 132.034 140.896 131.705 142.415 131.705C143.493 131.705 144.45 131.873 145.285 132.208C146.12 132.543 146.81 133.043 147.356 133.707C147.902 134.365 148.273 135.173 148.47 136.133C148.668 137.093 148.661 138.195 148.451 139.437L148.263 140.64H135.107L135.551 137.839H144.23C144.309 137.327 144.266 136.87 144.102 136.469C143.937 136.068 143.671 135.755 143.303 135.532C142.941 135.302 142.497 135.187 141.971 135.187C141.439 135.187 140.939 135.311 140.472 135.561C140.012 135.805 139.621 136.133 139.299 136.548C138.976 136.962 138.766 137.429 138.667 137.948L138.145 140.818C138.04 141.456 138.069 142.001 138.234 142.455C138.398 142.909 138.681 143.257 139.082 143.5C139.483 143.737 139.999 143.855 140.63 143.855C141.051 143.855 141.445 143.8 141.814 143.688C142.182 143.569 142.51 143.395 142.8 143.165C143.096 142.928 143.336 142.642 143.52 142.307L147.918 142.435C147.563 143.428 147.014 144.293 146.271 145.029C145.528 145.759 144.621 146.328 143.549 146.735C142.484 147.136 141.288 147.337 139.959 147.337ZM149.651 147.051L153.005 126.853H167.088L166.417 130.818H157.216L156.545 134.96H165.027L164.356 138.934H155.875L155.204 143.086H164.405L163.735 147.051H149.651ZM173.419 131.902L175.076 136.893L178.498 131.902H183.36L177.867 139.477L180.994 147.051H176.171L174.218 142.021L170.678 147.051H165.786L171.447 139.477L168.528 131.902H173.419ZM189.537 147.337C187.952 147.337 186.637 147.024 185.592 146.4C184.553 145.769 183.823 144.871 183.402 143.707C182.982 142.537 182.906 141.147 183.176 139.536C183.439 137.971 183.974 136.603 184.783 135.433C185.598 134.256 186.624 133.342 187.86 132.691C189.096 132.034 190.474 131.705 191.992 131.705C193.071 131.705 194.027 131.873 194.862 132.208C195.697 132.543 196.388 133.043 196.933 133.707C197.479 134.365 197.85 135.173 198.048 136.133C198.245 137.093 198.238 138.195 198.028 139.437L197.841 140.64H184.684L185.128 137.839H193.807C193.886 137.327 193.843 136.87 193.679 136.469C193.514 136.068 193.248 135.755 192.88 135.532C192.518 135.302 192.075 135.187 191.549 135.187C191.016 135.187 190.516 135.311 190.049 135.561C189.589 135.805 189.198 136.133 188.876 136.548C188.554 136.962 188.343 137.429 188.245 137.948L187.722 140.818C187.617 141.456 187.646 142.001 187.811 142.455C187.975 142.909 188.258 143.257 188.659 143.5C189.06 143.737 189.576 143.855 190.207 143.855C190.628 143.855 191.023 143.8 191.391 143.688C191.759 143.569 192.088 143.395 192.377 143.165C192.673 142.928 192.913 142.642 193.097 142.307L197.495 142.435C197.14 143.428 196.591 144.293 195.848 145.029C195.105 145.759 194.198 146.328 193.126 146.735C192.061 147.136 190.865 147.337 189.537 147.337ZM199.229 147.051L201.753 131.902H206.438L205.974 134.664H206.132C206.573 133.665 207.148 132.922 207.858 132.435C208.568 131.942 209.337 131.695 210.166 131.695C210.389 131.695 210.613 131.712 210.837 131.745C211.067 131.771 211.284 131.81 211.487 131.863L210.777 136.064C210.554 135.979 210.261 135.916 209.9 135.877C209.538 135.831 209.209 135.808 208.913 135.808C208.341 135.808 207.809 135.936 207.316 136.193C206.829 136.442 206.415 136.794 206.073 137.248C205.738 137.695 205.518 138.221 205.412 138.826L204.051 147.051H199.229ZM228.598 131.902L220.876 147.051H215.353L212.691 131.902H217.592L218.657 142.337H218.815L223.342 131.902H228.598ZM234.476 147.337C232.892 147.337 231.577 147.024 230.531 146.4C229.492 145.769 228.763 144.871 228.342 143.707C227.921 142.537 227.846 141.147 228.115 139.536C228.378 137.971 228.914 136.603 229.723 135.433C230.538 134.256 231.564 133.342 232.8 132.691C234.036 132.034 235.413 131.705 236.932 131.705C238.01 131.705 238.967 131.873 239.802 132.208C240.637 132.543 241.327 133.043 241.873 133.707C242.419 134.365 242.79 135.173 242.987 136.133C243.185 137.093 243.178 138.195 242.968 139.437L242.78 140.64H229.624L230.068 137.839H238.747C238.825 137.327 238.783 136.87 238.618 136.469C238.454 136.068 238.188 135.755 237.819 135.532C237.458 135.302 237.014 135.187 236.488 135.187C235.956 135.187 235.456 135.311 234.989 135.561C234.529 135.805 234.138 136.133 233.815 136.548C233.493 136.962 233.283 137.429 233.184 137.948L232.662 140.818C232.556 141.456 232.586 142.001 232.75 142.455C232.915 142.909 233.197 143.257 233.598 143.5C234 143.737 234.516 143.855 235.147 143.855C235.568 143.855 235.962 143.8 236.33 143.688C236.698 143.569 237.027 143.395 237.316 143.165C237.612 142.928 237.852 142.642 238.036 142.307L242.435 142.435C242.08 143.428 241.531 144.293 240.788 145.029C240.045 145.759 239.138 146.328 238.066 146.735C237.001 147.136 235.804 147.337 234.476 147.337ZM244.168 147.051L246.693 131.902H251.378L250.914 134.664H251.072C251.512 133.665 252.088 132.922 252.798 132.435C253.508 131.942 254.277 131.695 255.105 131.695C255.329 131.695 255.552 131.712 255.776 131.745C256.006 131.771 256.223 131.81 256.427 131.863L255.717 136.064C255.493 135.979 255.201 135.916 254.839 135.877C254.478 135.831 254.149 135.808 253.853 135.808C253.281 135.808 252.748 135.936 252.255 136.193C251.769 136.442 251.354 136.794 251.013 137.248C250.677 137.695 250.457 138.221 250.352 138.826L248.991 147.051H244.168ZM270.799 136.528L266.449 136.646C266.456 136.324 266.384 136.041 266.232 135.798C266.081 135.548 265.868 135.354 265.591 135.216C265.315 135.078 264.987 135.009 264.605 135.009C263.987 135.009 263.432 135.147 262.938 135.423C262.452 135.699 262.179 136.058 262.12 136.498C262.074 136.735 262.14 136.942 262.317 137.12C262.495 137.291 262.889 137.442 263.501 137.573L266.341 138.125C267.801 138.415 268.859 138.918 269.517 139.634C270.181 140.344 270.417 141.285 270.227 142.455C270.056 143.454 269.615 144.319 268.905 145.049C268.202 145.779 267.304 146.344 266.213 146.745C265.128 147.14 263.928 147.337 262.613 147.337C260.391 147.337 258.714 146.89 257.583 145.996C256.459 145.095 255.933 143.901 256.005 142.416L260.7 142.297C260.719 142.856 260.907 143.277 261.262 143.56C261.623 143.836 262.113 143.98 262.731 143.994C263.409 144.007 263.994 143.865 264.487 143.569C264.98 143.274 265.256 142.909 265.315 142.475C265.355 142.192 265.259 141.972 265.029 141.814C264.806 141.656 264.388 141.515 263.777 141.39L261.213 140.887C259.74 140.604 258.675 140.072 258.017 139.289C257.366 138.5 257.143 137.494 257.347 136.271C257.518 135.298 257.919 134.473 258.55 133.796C259.188 133.112 260.019 132.593 261.045 132.238C262.077 131.883 263.254 131.705 264.576 131.705C266.693 131.705 268.29 132.136 269.369 132.997C270.453 133.852 270.93 135.029 270.799 136.528ZM278.873 147.337C277.289 147.337 275.974 147.024 274.928 146.4C273.89 145.769 273.16 144.871 272.739 143.707C272.318 142.537 272.243 141.147 272.512 139.536C272.775 137.971 273.311 136.603 274.12 135.433C274.935 134.256 275.961 133.342 277.197 132.691C278.433 132.034 279.81 131.705 281.329 131.705C282.407 131.705 283.364 131.873 284.199 132.208C285.034 132.543 285.724 133.043 286.27 133.707C286.816 134.365 287.187 135.173 287.384 136.133C287.582 137.093 287.575 138.195 287.365 139.437L287.177 140.64H274.021L274.465 137.839H283.144C283.223 137.327 283.18 136.87 283.015 136.469C282.851 136.068 282.585 135.755 282.217 135.532C281.855 135.302 281.411 135.187 280.885 135.187C280.353 135.187 279.853 135.311 279.386 135.561C278.926 135.805 278.535 136.133 278.213 136.548C277.89 136.962 277.68 137.429 277.581 137.948L277.059 140.818C276.953 141.456 276.983 142.001 277.147 142.455C277.312 142.909 277.595 143.257 277.996 143.5C278.397 143.737 278.913 143.855 279.544 143.855C279.965 143.855 280.359 143.8 280.727 143.688C281.096 143.569 281.424 143.395 281.714 143.165C282.009 142.928 282.249 142.642 282.434 142.307L286.832 142.435C286.477 143.428 285.928 144.293 285.185 145.029C284.442 145.759 283.535 146.328 282.463 146.735C281.398 147.136 280.201 147.337 278.873 147.337Z" fill="white"/>
</svg>
