<svg width="419" height="198" viewBox="0 0 419 198" fill="none" xmlns="http://www.w3.org/2000/svg">
<path d="M0 1H419V102H0V1Z" fill="url(#paint0_linear_88_78)"/>
<path d="M41.7885 78V27.0909H77.2857V37.0838H54.0932V47.5241H75.4711V57.5419H54.0932V68.0071H77.2857V78H41.7885ZM97.4455 27.0909L106.742 43.174H107.14L116.536 27.0909H130.308L114.945 52.5455L130.805 78H116.686L107.14 61.7429H106.742L97.1969 78H83.177L98.9618 52.5455L83.5748 27.0909H97.4455ZM136.671 78V27.0909H172.169V37.0838H148.976V47.5241H170.354V57.5419H148.976V68.0071H172.169V78H136.671ZM179.874 78V27.0909H200.904C204.716 27.0909 208.005 27.7786 210.773 29.1541C213.557 30.513 215.703 32.4685 217.211 35.0206C218.719 37.5561 219.473 40.5639 219.473 44.044C219.473 47.5739 218.703 50.5734 217.161 53.0426C215.62 55.4953 213.433 57.3679 210.599 58.6605C207.765 59.9366 204.409 60.5746 200.531 60.5746H187.232V50.88H198.244C200.101 50.88 201.65 50.6397 202.893 50.1591C204.152 49.6619 205.105 48.9162 205.752 47.9219C206.398 46.911 206.721 45.6184 206.721 44.044C206.721 42.4697 206.398 41.1688 205.752 40.1413C205.105 39.0973 204.152 38.3184 202.893 37.8047C201.633 37.2744 200.084 37.0092 198.244 37.0092H192.179V78H179.874ZM208.536 54.733L221.213 78H207.79L195.361 54.733H208.536ZM272.433 45.5355H260.004C259.838 44.2595 259.499 43.1077 258.985 42.0803C258.471 41.0528 257.792 40.1745 256.947 39.4453C256.101 38.7161 255.099 38.161 253.939 37.7798C252.795 37.3821 251.528 37.1832 250.135 37.1832C247.666 37.1832 245.537 37.7881 243.747 38.9979C241.974 40.2076 240.607 41.956 239.645 44.2429C238.701 46.5298 238.229 49.2973 238.229 52.5455C238.229 55.9261 238.709 58.7599 239.67 61.0469C240.648 63.3172 242.015 65.0324 243.772 66.1925C245.545 67.3359 247.641 67.9077 250.061 67.9077C251.42 67.9077 252.654 67.7337 253.765 67.3857C254.892 67.0376 255.878 66.5322 256.723 65.8693C257.585 65.1899 258.289 64.3696 258.836 63.4084C259.399 62.4306 259.789 61.3286 260.004 60.1023L272.433 60.1768C272.218 62.4306 271.563 64.6513 270.469 66.8388C269.392 69.0263 267.909 71.0232 266.02 72.8295C264.131 74.6193 261.827 76.0445 259.109 77.1051C256.408 78.1657 253.309 78.696 249.812 78.696C245.205 78.696 241.079 77.6851 237.433 75.6634C233.804 73.625 230.937 70.6586 228.832 66.7642C226.728 62.8698 225.675 58.1302 225.675 52.5455C225.675 46.9441 226.744 42.1963 228.882 38.3018C231.02 34.4074 233.912 31.4493 237.557 29.4276C241.203 27.4058 245.288 26.3949 249.812 26.3949C252.895 26.3949 255.745 26.8258 258.363 27.6875C260.982 28.5327 263.285 29.7756 265.274 31.4162C267.263 33.0402 268.878 35.0372 270.121 37.407C271.364 39.7768 272.135 42.4863 272.433 45.5355ZM291.779 27.0909V78H279.474V27.0909H291.779ZM327.021 42.3537C326.855 40.5308 326.118 39.1139 324.809 38.103C323.516 37.0755 321.668 36.5618 319.265 36.5618C317.675 36.5618 316.349 36.7689 315.288 37.1832C314.228 37.5975 313.432 38.1693 312.902 38.8984C312.372 39.611 312.098 40.4313 312.081 41.3594C312.048 42.1217 312.198 42.7928 312.529 43.3729C312.877 43.9529 313.374 44.4666 314.02 44.9141C314.683 45.3449 315.479 45.7261 316.407 46.0575C317.335 46.389 318.379 46.679 319.539 46.9276L323.914 47.9219C326.433 48.4688 328.653 49.1979 330.576 50.1094C332.515 51.0208 334.139 52.1063 335.448 53.3658C336.774 54.6252 337.776 56.0753 338.456 57.7159C339.135 59.3565 339.483 61.196 339.5 63.2344C339.483 66.4493 338.671 69.2086 337.064 71.5121C335.456 73.8156 333.144 75.5805 330.128 76.8068C327.129 78.0331 323.508 78.6463 319.265 78.6463C315.006 78.6463 311.294 78.0083 308.129 76.7322C304.964 75.4562 302.503 73.5173 300.746 70.9155C298.99 68.3137 298.086 65.0241 298.037 61.0469H309.819C309.919 62.6875 310.358 64.0547 311.137 65.1484C311.916 66.2422 312.985 67.0708 314.344 67.6342C315.719 68.1977 317.31 68.4794 319.116 68.4794C320.773 68.4794 322.182 68.2557 323.342 67.8082C324.519 67.3608 325.422 66.7393 326.052 65.9439C326.681 65.1484 327.005 64.237 327.021 63.2095C327.005 62.2483 326.706 61.428 326.126 60.7486C325.546 60.0526 324.651 59.456 323.442 58.9588C322.248 58.4451 320.724 57.9728 318.868 57.5419L313.548 56.299C309.14 55.2881 305.668 53.6558 303.133 51.402C300.597 49.1316 299.338 46.0658 299.354 42.2045C299.338 39.0559 300.183 36.2966 301.89 33.9268C303.597 31.5571 305.958 29.7093 308.974 28.3835C311.99 27.0578 315.429 26.3949 319.29 26.3949C323.234 26.3949 326.657 27.066 329.557 28.4084C332.473 29.7341 334.735 31.5985 336.343 34.0014C337.95 36.4044 338.771 39.1884 338.804 42.3537H327.021ZM345.714 78V27.0909H381.211V37.0838H358.019V47.5241H379.397V57.5419H358.019V68.0071H381.211V78H345.714Z" fill="#FAFAFA"/>
<rect x="91" y="96.3401" width="242.146" height="88" transform="rotate(-3 91 96.3401)" fill="#1C465C"/>
<path d="M137.688 162.559L135.024 111.719L169.728 109.9L170.251 119.88L147.835 121.054L148.381 131.48L168.588 130.421L169.112 140.426L148.906 141.484L149.976 161.915L137.688 162.559ZM174.775 119.643L174.252 109.663L217.222 107.411L217.745 117.391L202.329 118.198L204.471 159.059L192.357 159.693L190.215 118.833L174.775 119.643ZM253.98 105.485L266.243 104.842L267.962 137.635C268.16 141.424 267.431 144.773 265.775 147.681C264.118 150.573 261.716 152.872 258.569 154.581C255.422 156.272 251.713 157.23 247.444 157.454C243.124 157.68 239.311 157.117 236.004 155.763C232.697 154.393 230.076 152.357 228.142 149.653C226.207 146.934 225.14 143.679 224.942 139.889L223.223 107.097L235.511 106.453L237.174 138.178C237.266 139.932 237.728 141.476 238.562 142.81C239.411 144.143 240.552 145.161 241.983 145.866C243.413 146.571 245.047 146.876 246.884 146.779C248.721 146.683 250.306 146.21 251.639 145.36C252.988 144.51 254.016 143.377 254.722 141.963C255.428 140.548 255.735 138.964 255.643 137.21L253.98 105.485ZM286.233 103.795L288.897 154.634L276.609 155.278L273.945 104.439L286.233 103.795Z" fill="#FAFAFA"/>
<defs>
<linearGradient id="paint0_linear_88_78" x1="3.66834e-07" y1="3.76766" x2="415.744" y2="111.766" gradientUnits="userSpaceOnUse">
<stop stop-color="#55457E"/>
<stop offset="0.338823" stop-color="#15394A"/>
<stop offset="0.791039" stop-color="#1C465C"/>
<stop offset="0.979231" stop-color="#645B87"/>
</linearGradient>
</defs>
</svg>
