<svg width="1258" height="298" viewBox="0 0 1258 298" fill="none" xmlns="http://www.w3.org/2000/svg">
<path d="M510.52 21.267V13.2727H544.943V21.267H532.593V54H522.889V21.267H510.52ZM549.75 54V23.4545H559.475V54H549.75ZM554.623 19.8949C553.257 19.8949 552.084 19.4441 551.103 18.5426C550.122 17.6278 549.631 16.5275 549.631 15.2415C549.631 13.9687 550.122 12.8816 551.103 11.9801C552.084 11.0653 553.257 10.608 554.623 10.608C556.001 10.608 557.175 11.0653 558.142 11.9801C559.123 12.8816 559.614 13.9687 559.614 15.2415C559.614 16.5275 559.123 17.6278 558.142 18.5426C557.175 19.4441 556.001 19.8949 554.623 19.8949ZM565.664 54V23.4545H574.912V29.0625H575.25C575.886 27.2064 576.96 25.7415 578.471 24.6676C579.983 23.5938 581.786 23.0568 583.88 23.0568C586.002 23.0568 587.818 23.6004 589.329 24.6875C590.841 25.7746 591.802 27.233 592.213 29.0625H592.531C593.101 27.2462 594.215 25.7945 595.872 24.7074C597.529 23.607 599.484 23.0568 601.738 23.0568C604.628 23.0568 606.975 23.9848 608.778 25.8409C610.581 27.6837 611.483 30.2159 611.483 33.4375V54H601.758V35.6648C601.758 34.1402 601.367 32.9801 600.585 32.1847C599.803 31.3759 598.788 30.9716 597.542 30.9716C596.203 30.9716 595.149 31.4091 594.38 32.2841C593.625 33.1458 593.247 34.3059 593.247 35.7642V54H583.9V35.5653C583.9 34.1468 583.516 33.0265 582.747 32.2045C581.978 31.3826 580.964 30.9716 579.704 30.9716C578.856 30.9716 578.107 31.1771 577.457 31.5881C576.807 31.9858 576.297 32.5559 575.926 33.2983C575.568 34.0407 575.389 34.9157 575.389 35.9233V54H565.664ZM631.787 54.5767C628.592 54.5767 625.834 53.947 623.514 52.6875C621.207 51.4148 619.431 49.6051 618.184 47.2585C616.951 44.8987 616.335 42.0947 616.335 38.8466C616.335 35.6913 616.958 32.9337 618.204 30.5739C619.45 28.2008 621.207 26.358 623.474 25.0455C625.741 23.7197 628.413 23.0568 631.488 23.0568C633.663 23.0568 635.651 23.3949 637.454 24.071C639.257 24.7472 640.815 25.7481 642.127 27.0739C643.44 28.3996 644.461 30.0369 645.19 31.9858C645.919 33.9214 646.284 36.142 646.284 38.6477V41.0739H619.735V35.4261H637.235C637.222 34.392 636.977 33.4706 636.5 32.6619C636.022 31.8532 635.366 31.2235 634.531 30.7727C633.709 30.3087 632.761 30.0767 631.687 30.0767C630.6 30.0767 629.626 30.322 628.764 30.8125C627.902 31.2898 627.219 31.946 626.716 32.7812C626.212 33.6032 625.947 34.5379 625.92 35.5852V41.3324C625.92 42.5786 626.165 43.6723 626.656 44.6136C627.146 45.5417 627.842 46.2642 628.744 46.7812C629.645 47.2983 630.719 47.5568 631.966 47.5568C632.827 47.5568 633.609 47.4375 634.312 47.1989C635.015 46.9602 635.618 46.6089 636.122 46.1449C636.626 45.6809 637.003 45.1108 637.255 44.4347L646.184 44.6932C645.813 46.6951 644.998 48.4384 643.738 49.9233C642.492 51.3949 640.855 52.5417 638.826 53.3636C636.798 54.1723 634.451 54.5767 631.787 54.5767ZM660.975 13.2727V54H651.25V13.2727H660.975ZM667.164 54V23.4545H676.889V54H667.164ZM672.037 19.8949C670.671 19.8949 669.498 19.4441 668.517 18.5426C667.536 17.6278 667.045 16.5275 667.045 15.2415C667.045 13.9687 667.536 12.8816 668.517 11.9801C669.498 11.0653 670.671 10.608 672.037 10.608C673.415 10.608 674.589 11.0653 675.556 11.9801C676.538 12.8816 677.028 13.9687 677.028 15.2415C677.028 16.5275 676.538 17.6278 675.556 18.5426C674.589 19.4441 673.415 19.8949 672.037 19.8949ZM692.803 36.5795V54H683.078V23.4545H692.326V29.0625H692.664C693.34 27.1932 694.493 25.7282 696.124 24.6676C697.755 23.5938 699.697 23.0568 701.951 23.0568C704.098 23.0568 705.961 23.5407 707.539 24.5085C709.13 25.4631 710.363 26.8021 711.238 28.5256C712.126 30.2358 712.563 32.2377 712.55 34.5312V54H702.826V36.4403C702.839 34.7434 702.408 33.4176 701.533 32.4631C700.671 31.5085 699.471 31.0312 697.934 31.0312C696.913 31.0312 696.011 31.2566 695.229 31.7074C694.46 32.1449 693.864 32.7746 693.439 33.5966C693.028 34.4186 692.816 35.4129 692.803 36.5795ZM732.849 54.5767C729.654 54.5767 726.896 53.947 724.576 52.6875C722.27 51.4148 720.493 49.6051 719.247 47.2585C718.014 44.8987 717.397 42.0947 717.397 38.8466C717.397 35.6913 718.02 32.9337 719.267 30.5739C720.513 28.2008 722.27 26.358 724.537 25.0455C726.804 23.7197 729.475 23.0568 732.551 23.0568C734.725 23.0568 736.714 23.3949 738.517 24.071C740.32 24.7472 741.877 25.7481 743.19 27.0739C744.502 28.3996 745.523 30.0369 746.252 31.9858C746.982 33.9214 747.346 36.142 747.346 38.6477V41.0739H720.798V35.4261H738.298C738.285 34.392 738.039 33.4706 737.562 32.6619C737.085 31.8532 736.429 31.2235 735.593 30.7727C734.771 30.3087 733.824 30.0767 732.75 30.0767C731.663 30.0767 730.688 30.322 729.826 30.8125C728.965 31.2898 728.282 31.946 727.778 32.7812C727.274 33.6032 727.009 34.5379 726.983 35.5852V41.3324C726.983 42.5786 727.228 43.6723 727.718 44.6136C728.209 45.5417 728.905 46.2642 729.806 46.7812C730.708 47.2983 731.782 47.5568 733.028 47.5568C733.89 47.5568 734.672 47.4375 735.375 47.1989C736.077 46.9602 736.681 46.6089 737.184 46.1449C737.688 45.6809 738.066 45.1108 738.318 44.4347L747.247 44.6932C746.876 46.6951 746.06 48.4384 744.801 49.9233C743.555 51.3949 741.917 52.5417 739.889 53.3636C737.86 54.1723 735.514 54.5767 732.849 54.5767Z" fill="#55457E"/>
<rect x="72" y="224" width="1120" height="8" fill="#15394A"/>
<g filter="url(#filter0_bd_29_24)">
<path d="M439 228.431L451.373 207H476.119L488.492 228.431L476.119 249.861H451.373L439 228.431Z" fill="#15394A"/>
<path d="M451.457 249.716L439.168 228.431L451.457 207.146H476.035L488.324 228.431L476.035 249.716L451.457 249.716Z" stroke="#F5F5F5" stroke-width="0.291269"/>
</g>
<g filter="url(#filter1_bd_29_24)">
<path d="M772 228.431L784.373 207H809.119L821.492 228.431L809.119 249.861H784.373L772 228.431Z" fill="#15394A"/>
<path d="M784.457 249.716L772.168 228.431L784.457 207.146H809.035L821.324 228.431L809.035 249.716H784.457Z" stroke="#F5F5F5" stroke-width="0.291269"/>
</g>
<g filter="url(#filter2_bd_29_24)">
<path d="M69 228.431L81.373 207H106.119L118.492 228.431L106.119 249.861H81.373L69 228.431Z" fill="#15394A"/>
<path d="M81.4571 249.716L69.1682 228.431L81.4571 207.146H106.035L118.324 228.431L106.035 249.716L81.4571 249.716Z" stroke="#F5F5F5" stroke-width="0.291269"/>
</g>
<g filter="url(#filter3_bd_29_24)">
<path d="M1145 228.431L1157.37 207H1182.12L1194.49 228.431L1182.12 249.861H1157.37L1145 228.431Z" fill="#15394A"/>
<path d="M1157.46 249.716L1145.17 228.431L1157.46 207.146H1182.03L1194.32 228.431L1182.03 249.716L1157.46 249.716Z" stroke="#F5F5F5" stroke-width="0.291269"/>
</g>
<path d="M22.4126 175V160.455H28.1513C29.2498 160.455 30.1873 160.651 30.9638 161.044C31.745 161.432 32.3393 161.984 32.7464 162.699C33.1584 163.409 33.3643 164.245 33.3643 165.206C33.3643 166.172 33.156 167.003 32.7393 167.699C32.3227 168.39 31.719 168.92 30.9283 169.29C30.1423 169.659 29.1906 169.844 28.0732 169.844H24.2308V167.372H27.576C28.1631 167.372 28.6508 167.292 29.0391 167.131C29.4273 166.97 29.7161 166.728 29.9055 166.406C30.0997 166.084 30.1967 165.684 30.1967 165.206C30.1967 164.723 30.0997 164.316 29.9055 163.984C29.7161 163.653 29.425 163.402 29.032 163.232C28.6437 163.056 28.1536 162.969 27.5618 162.969H25.4879V175H22.4126ZM30.2678 168.381L33.8828 175H30.4879L26.951 168.381H30.2678ZM35.5376 175V160.455H45.3388V162.99H38.6129V166.456H44.8345V168.991H38.6129V172.464H45.3672V175H35.5376ZM60.6175 165.547H57.5067C57.4499 165.144 57.3339 164.787 57.1587 164.474C56.9835 164.157 56.7586 163.887 56.484 163.665C56.2094 163.442 55.8922 163.272 55.5323 163.153C55.1772 163.035 54.7913 162.976 54.3746 162.976C53.6218 162.976 52.966 163.163 52.4073 163.537C51.8486 163.906 51.4154 164.446 51.1076 165.156C50.7998 165.862 50.646 166.719 50.646 167.727C50.646 168.764 50.7998 169.635 51.1076 170.341C51.4201 171.046 51.8557 171.579 52.4144 171.939C52.9731 172.299 53.6194 172.479 54.3533 172.479C54.7653 172.479 55.1464 172.424 55.4968 172.315C55.8519 172.206 56.1668 172.048 56.4414 171.839C56.716 171.626 56.9433 171.368 57.1232 171.065C57.3079 170.762 57.4357 170.417 57.5067 170.028L60.6175 170.043C60.5371 170.71 60.3358 171.354 60.0138 171.974C59.6966 172.59 59.2681 173.142 58.7283 173.629C58.1933 174.112 57.5541 174.496 56.8107 174.78C56.0721 175.059 55.2364 175.199 54.3036 175.199C53.0063 175.199 51.8462 174.905 50.8235 174.318C49.8055 173.731 49.0006 172.881 48.4087 171.768C47.8216 170.656 47.5281 169.309 47.5281 167.727C47.5281 166.141 47.8263 164.792 48.4229 163.679C49.0195 162.566 49.8292 161.719 50.8519 161.136C51.8746 160.549 53.0252 160.256 54.3036 160.256C55.1464 160.256 55.9277 160.374 56.6474 160.611C57.3718 160.848 58.0134 161.193 58.5721 161.648C59.1308 162.098 59.5853 162.649 59.9357 163.303C60.2908 163.956 60.5181 164.704 60.6175 165.547ZM62.8228 175V160.455H68.5614C69.6599 160.455 70.5974 160.651 71.3739 161.044C72.1552 161.432 72.7494 161.984 73.1566 162.699C73.5685 163.409 73.7745 164.245 73.7745 165.206C73.7745 166.172 73.5662 167.003 73.1495 167.699C72.7328 168.39 72.1291 168.92 71.3384 169.29C70.5524 169.659 69.6007 169.844 68.4833 169.844H64.641V167.372H67.9862C68.5733 167.372 69.061 167.292 69.4492 167.131C69.8375 166.97 70.1263 166.728 70.3157 166.406C70.5098 166.084 70.6069 165.684 70.6069 165.206C70.6069 164.723 70.5098 164.316 70.3157 163.984C70.1263 163.653 69.8351 163.402 69.4421 163.232C69.0539 163.056 68.5638 162.969 67.9719 162.969H65.8981V175H62.8228ZM70.6779 168.381L74.293 175H70.8981L67.3612 168.381H70.6779ZM84.9322 160.455H88.0075V169.901C88.0075 170.961 87.7541 171.889 87.2475 172.685C86.7456 173.48 86.0425 174.1 85.1381 174.545C84.2338 174.986 83.1803 175.206 81.9776 175.206C80.7702 175.206 79.7144 174.986 78.81 174.545C77.9057 174.1 77.2025 173.48 76.7006 172.685C76.1987 171.889 75.9478 170.961 75.9478 169.901V160.455H79.0231V169.638C79.0231 170.192 79.1438 170.684 79.3853 171.115C79.6315 171.546 79.9772 171.884 80.4222 172.131C80.8673 172.377 81.3858 172.5 81.9776 172.5C82.5742 172.5 83.0927 172.377 83.533 172.131C83.9781 171.884 84.3214 171.546 84.5629 171.115C84.8091 170.684 84.9322 170.192 84.9322 169.638V160.455ZM93.6129 160.455V175H90.5376V160.455H93.6129ZM95.5891 162.99V160.455H107.535V162.99H103.082V175H100.042V162.99H95.5891ZM109.502 160.455H113.295L117.301 170.227H117.471L121.477 160.455H125.27V175H122.287V165.533H122.166L118.402 174.929H116.37L112.606 165.497H112.485V175H109.502V160.455ZM127.803 175V160.455H137.604V162.99H130.879V166.456H137.1V168.991H130.879V172.464H137.633V175H127.803ZM152.216 160.455V175H149.559L143.231 165.845H143.125V175H140.049V160.455H142.748L149.027 169.602H149.154V160.455H152.216ZM154.202 162.99V160.455H166.148V162.99H161.695V175H158.656V162.99H154.202Z" fill="#1C465C"/>
<path d="M411.202 163H406.045V148.455H411.244C412.707 148.455 413.967 148.746 415.023 149.328C416.079 149.906 416.891 150.737 417.459 151.821C418.032 152.905 418.318 154.203 418.318 155.713C418.318 157.228 418.032 158.53 417.459 159.619C416.891 160.708 416.074 161.544 415.009 162.126C413.948 162.709 412.679 163 411.202 163ZM409.121 160.365H411.074C411.983 160.365 412.748 160.204 413.368 159.882C413.993 159.555 414.462 159.051 414.774 158.369C415.091 157.683 415.25 156.797 415.25 155.713C415.25 154.638 415.091 153.76 414.774 153.078C414.462 152.396 413.995 151.894 413.375 151.572C412.755 151.25 411.99 151.089 411.081 151.089H409.121V160.365ZM433.963 155.727C433.963 157.313 433.662 158.663 433.061 159.776C432.464 160.888 431.65 161.738 430.618 162.325C429.59 162.908 428.435 163.199 427.152 163.199C425.859 163.199 424.699 162.905 423.672 162.318C422.644 161.731 421.832 160.881 421.235 159.768C420.639 158.656 420.341 157.309 420.341 155.727C420.341 154.141 420.639 152.792 421.235 151.679C421.832 150.566 422.644 149.719 423.672 149.136C424.699 148.549 425.859 148.256 427.152 148.256C428.435 148.256 429.59 148.549 430.618 149.136C431.65 149.719 432.464 150.566 433.061 151.679C433.662 152.792 433.963 154.141 433.963 155.727ZM430.845 155.727C430.845 154.7 430.691 153.833 430.383 153.128C430.08 152.422 429.652 151.887 429.098 151.523C428.544 151.158 427.895 150.976 427.152 150.976C426.408 150.976 425.76 151.158 425.206 151.523C424.652 151.887 424.221 152.422 423.913 153.128C423.61 153.833 423.458 154.7 423.458 155.727C423.458 156.755 423.61 157.621 423.913 158.327C424.221 159.032 424.652 159.567 425.206 159.932C425.76 160.296 426.408 160.479 427.152 160.479C427.895 160.479 428.544 160.296 429.098 159.932C429.652 159.567 430.08 159.032 430.383 158.327C430.691 157.621 430.845 156.755 430.845 155.727ZM449.075 153.547H445.964C445.907 153.144 445.791 152.787 445.616 152.474C445.441 152.157 445.216 151.887 444.941 151.665C444.666 151.442 444.349 151.272 443.989 151.153C443.634 151.035 443.248 150.976 442.832 150.976C442.079 150.976 441.423 151.163 440.864 151.537C440.306 151.906 439.872 152.446 439.565 153.156C439.257 153.862 439.103 154.719 439.103 155.727C439.103 156.764 439.257 157.635 439.565 158.341C439.877 159.046 440.313 159.579 440.871 159.939C441.43 160.299 442.076 160.479 442.81 160.479C443.222 160.479 443.603 160.424 443.954 160.315C444.309 160.206 444.624 160.048 444.898 159.839C445.173 159.626 445.4 159.368 445.58 159.065C445.765 158.762 445.893 158.417 445.964 158.028L449.075 158.043C448.994 158.71 448.793 159.354 448.471 159.974C448.154 160.59 447.725 161.142 447.185 161.629C446.65 162.112 446.011 162.496 445.268 162.78C444.529 163.059 443.693 163.199 442.761 163.199C441.463 163.199 440.303 162.905 439.281 162.318C438.263 161.731 437.458 160.881 436.866 159.768C436.279 158.656 435.985 157.309 435.985 155.727C435.985 154.141 436.283 152.792 436.88 151.679C437.477 150.566 438.286 149.719 439.309 149.136C440.332 148.549 441.482 148.256 442.761 148.256C443.603 148.256 444.385 148.374 445.104 148.611C445.829 148.848 446.47 149.193 447.029 149.648C447.588 150.098 448.042 150.649 448.393 151.303C448.748 151.956 448.975 152.704 449.075 153.547ZM460.264 148.455H463.339V157.901C463.339 158.961 463.086 159.889 462.58 160.685C462.078 161.48 461.375 162.1 460.47 162.545C459.566 162.986 458.512 163.206 457.31 163.206C456.102 163.206 455.046 162.986 454.142 162.545C453.238 162.1 452.535 161.48 452.033 160.685C451.531 159.889 451.28 158.961 451.28 157.901V148.455H454.355V157.638C454.355 158.192 454.476 158.684 454.717 159.115C454.964 159.546 455.309 159.884 455.754 160.131C456.199 160.377 456.718 160.5 457.31 160.5C457.906 160.5 458.425 160.377 458.865 160.131C459.31 159.884 459.653 159.546 459.895 159.115C460.141 158.684 460.264 158.192 460.264 157.638V148.455ZM465.87 148.455H469.662L473.668 158.227H473.838L477.844 148.455H481.637V163H478.654V153.533H478.533L474.769 162.929H472.738L468.973 153.497H468.853V163H465.87V148.455ZM484.17 163V148.455H493.972V150.99H487.246V154.456H493.467V156.991H487.246V160.464H494V163H484.17ZM508.583 148.455V163H505.926L499.598 153.845H499.492V163H496.417V148.455H499.115L505.394 157.602H505.522V148.455H508.583ZM510.57 150.99V148.455H522.516V150.99H518.062V163H515.023V150.99H510.57ZM415.157 176.638C415.1 176.065 414.856 175.62 414.425 175.303C413.994 174.985 413.41 174.827 412.671 174.827C412.169 174.827 411.745 174.898 411.4 175.04C411.054 175.177 410.789 175.369 410.604 175.615C410.424 175.861 410.334 176.141 410.334 176.453C410.325 176.714 410.379 176.941 410.498 177.135C410.621 177.329 410.789 177.497 411.002 177.639C411.215 177.777 411.461 177.897 411.741 178.001C412.02 178.101 412.318 178.186 412.635 178.257L413.942 178.57C414.577 178.712 415.159 178.901 415.689 179.138C416.22 179.375 416.679 179.666 417.067 180.011C417.456 180.357 417.756 180.764 417.969 181.233C418.187 181.702 418.298 182.239 418.303 182.845C418.298 183.735 418.071 184.507 417.621 185.161C417.176 185.809 416.532 186.313 415.689 186.673C414.851 187.028 413.84 187.206 412.657 187.206C411.483 187.206 410.46 187.026 409.589 186.666C408.722 186.306 408.045 185.774 407.557 185.068C407.074 184.358 406.821 183.48 406.797 182.433H409.773C409.806 182.921 409.946 183.328 410.192 183.655C410.443 183.977 410.777 184.221 411.194 184.386C411.615 184.547 412.091 184.628 412.621 184.628C413.142 184.628 413.594 184.552 413.978 184.401C414.366 184.249 414.667 184.038 414.88 183.768C415.093 183.499 415.199 183.188 415.199 182.838C415.199 182.511 415.102 182.237 414.908 182.014C414.719 181.792 414.439 181.602 414.07 181.446C413.706 181.29 413.258 181.148 412.728 181.02L411.144 180.622C409.918 180.324 408.949 179.857 408.239 179.223C407.529 178.589 407.176 177.734 407.181 176.659C407.176 175.778 407.411 175.009 407.884 174.351C408.362 173.693 409.018 173.179 409.851 172.81C410.685 172.44 411.632 172.256 412.692 172.256C413.772 172.256 414.714 172.44 415.519 172.81C416.329 173.179 416.958 173.693 417.408 174.351C417.858 175.009 418.09 175.771 418.104 176.638H415.157ZM433.205 177.547H430.095C430.038 177.144 429.922 176.787 429.747 176.474C429.571 176.157 429.347 175.887 429.072 175.665C428.797 175.442 428.48 175.272 428.12 175.153C427.765 175.035 427.379 174.976 426.963 174.976C426.21 174.976 425.554 175.163 424.995 175.537C424.436 175.906 424.003 176.446 423.695 177.156C423.388 177.862 423.234 178.719 423.234 179.727C423.234 180.764 423.388 181.635 423.695 182.341C424.008 183.046 424.444 183.579 425.002 183.939C425.561 184.299 426.207 184.479 426.941 184.479C427.353 184.479 427.734 184.424 428.085 184.315C428.44 184.206 428.755 184.048 429.029 183.839C429.304 183.626 429.531 183.368 429.711 183.065C429.896 182.762 430.024 182.417 430.095 182.028L433.205 182.043C433.125 182.71 432.924 183.354 432.602 183.974C432.285 184.59 431.856 185.142 431.316 185.629C430.781 186.112 430.142 186.496 429.399 186.78C428.66 187.059 427.824 187.199 426.892 187.199C425.594 187.199 424.434 186.905 423.411 186.318C422.393 185.731 421.588 184.881 420.997 183.768C420.41 182.656 420.116 181.309 420.116 179.727C420.116 178.141 420.414 176.792 421.011 175.679C421.607 174.566 422.417 173.719 423.44 173.136C424.463 172.549 425.613 172.256 426.892 172.256C427.734 172.256 428.516 172.374 429.235 172.611C429.96 172.848 430.601 173.193 431.16 173.648C431.719 174.098 432.173 174.649 432.524 175.303C432.879 175.956 433.106 176.704 433.205 177.547ZM435.411 187V172.455H441.149C442.248 172.455 443.185 172.651 443.962 173.044C444.743 173.432 445.337 173.984 445.744 174.699C446.156 175.409 446.362 176.245 446.362 177.206C446.362 178.172 446.154 179.003 445.737 179.699C445.321 180.39 444.717 180.92 443.926 181.29C443.14 181.659 442.189 181.844 441.071 181.844H437.229V179.372H440.574C441.161 179.372 441.649 179.292 442.037 179.131C442.425 178.97 442.714 178.728 442.904 178.406C443.098 178.084 443.195 177.684 443.195 177.206C443.195 176.723 443.098 176.316 442.904 175.984C442.714 175.653 442.423 175.402 442.03 175.232C441.642 175.056 441.152 174.969 440.56 174.969H438.486V187H435.411ZM443.266 180.381L446.881 187H443.486L439.949 180.381H443.266ZM448.536 187V172.455H458.337V174.99H451.611V178.456H457.833V180.991H451.611V184.464H458.365V187H448.536ZM460.782 187V172.455H470.583V174.99H463.857V178.456H470.079V180.991H463.857V184.464H470.611V187H460.782ZM485.194 172.455V187H482.538L476.21 177.845H476.103V187H473.028V172.455H475.727L482.005 181.602H482.133V172.455H485.194ZM490.81 172.455V187H487.735V172.455H490.81ZM505.507 172.455V187H502.85L496.522 177.845H496.416V187H493.34V172.455H496.039L502.318 181.602H502.445V172.455H505.507ZM517.692 177.156C517.593 176.811 517.453 176.505 517.273 176.24C517.093 175.97 516.873 175.743 516.613 175.558C516.357 175.369 516.064 175.224 515.732 175.125C515.405 175.026 515.043 174.976 514.645 174.976C513.902 174.976 513.249 175.161 512.685 175.53C512.126 175.899 511.691 176.437 511.378 177.142C511.066 177.843 510.91 178.7 510.91 179.713C510.91 180.726 511.064 181.588 511.371 182.298C511.679 183.009 512.115 183.551 512.678 183.925C513.242 184.294 513.907 184.479 514.674 184.479C515.37 184.479 515.964 184.356 516.456 184.109C516.954 183.858 517.332 183.506 517.593 183.051C517.858 182.597 517.991 182.059 517.991 181.439L518.616 181.531H514.866V179.216H520.952V181.048C520.952 182.327 520.682 183.425 520.143 184.344C519.603 185.258 518.859 185.963 517.912 186.46C516.965 186.953 515.881 187.199 514.66 187.199C513.296 187.199 512.098 186.898 511.066 186.297C510.034 185.691 509.229 184.831 508.651 183.719C508.078 182.601 507.792 181.276 507.792 179.741C507.792 178.562 507.962 177.511 508.303 176.588C508.649 175.66 509.132 174.874 509.752 174.23C510.372 173.586 511.094 173.096 511.918 172.76C512.742 172.424 513.635 172.256 514.596 172.256C515.42 172.256 516.187 172.376 516.897 172.618C517.607 172.855 518.237 173.191 518.786 173.626C519.34 174.062 519.792 174.58 520.143 175.182C520.493 175.778 520.718 176.437 520.817 177.156H517.692Z" fill="#1C465C"/>
<path d="M404.671 278.455V293H401.596V281.374H401.511L398.18 283.462V280.734L401.781 278.455H404.671ZM419.582 284.527V286.928H412.949V284.527H419.582ZM426.761 293V290.784L431.939 285.99C432.379 285.564 432.748 285.18 433.047 284.839C433.35 284.499 433.579 284.165 433.735 283.838C433.892 283.507 433.97 283.149 433.97 282.766C433.97 282.339 433.873 281.973 433.679 281.665C433.484 281.352 433.219 281.113 432.883 280.947C432.547 280.777 432.166 280.692 431.74 280.692C431.295 280.692 430.906 280.782 430.575 280.962C430.243 281.142 429.988 281.4 429.808 281.736C429.628 282.072 429.538 282.472 429.538 282.936H426.619C426.619 281.984 426.834 281.158 427.265 280.457C427.696 279.757 428.3 279.214 429.076 278.831C429.853 278.447 430.748 278.256 431.761 278.256C432.803 278.256 433.709 278.44 434.481 278.81C435.258 279.174 435.861 279.681 436.292 280.33C436.723 280.978 436.939 281.722 436.939 282.56C436.939 283.109 436.83 283.651 436.612 284.186C436.399 284.721 436.018 285.315 435.468 285.969C434.919 286.617 434.145 287.396 433.146 288.305L431.022 290.386V290.486H437.13V293H426.761ZM444.073 293V278.455H453.703V280.99H447.148V284.456H453.064V286.991H447.148V293H444.073ZM459.886 293.213C458.764 293.213 457.798 292.986 456.988 292.531C456.183 292.072 455.563 291.423 455.127 290.585C454.692 289.742 454.474 288.746 454.474 287.595C454.474 286.473 454.692 285.488 455.127 284.641C455.563 283.793 456.176 283.133 456.967 282.659C457.762 282.186 458.695 281.949 459.765 281.949C460.485 281.949 461.155 282.065 461.775 282.297C462.4 282.524 462.945 282.867 463.409 283.327C463.877 283.786 464.242 284.364 464.502 285.06C464.763 285.751 464.893 286.561 464.893 287.489V288.32H455.681V286.445H462.045C462.045 286.009 461.95 285.623 461.761 285.287C461.572 284.951 461.309 284.688 460.973 284.499C460.641 284.304 460.255 284.207 459.815 284.207C459.356 284.207 458.949 284.314 458.593 284.527C458.243 284.735 457.968 285.017 457.77 285.372C457.571 285.723 457.469 286.113 457.464 286.544V288.327C457.464 288.866 457.564 289.333 457.762 289.726C457.966 290.119 458.252 290.422 458.622 290.635C458.991 290.848 459.429 290.955 459.936 290.955C460.272 290.955 460.58 290.907 460.859 290.812C461.138 290.718 461.377 290.576 461.576 290.386C461.775 290.197 461.927 289.965 462.031 289.69L464.829 289.875C464.687 290.547 464.396 291.134 463.956 291.636C463.52 292.134 462.957 292.522 462.265 292.801C461.579 293.076 460.786 293.213 459.886 293.213ZM466.924 293V278.455H469.95V283.923H470.042C470.175 283.63 470.367 283.331 470.618 283.028C470.873 282.721 471.205 282.465 471.612 282.261C472.024 282.053 472.535 281.949 473.146 281.949C473.941 281.949 474.675 282.157 475.348 282.574C476.02 282.986 476.557 283.608 476.96 284.442C477.362 285.27 477.564 286.31 477.564 287.56C477.564 288.777 477.367 289.804 476.974 290.642C476.586 291.475 476.056 292.107 475.383 292.538C474.716 292.964 473.967 293.178 473.139 293.178C472.552 293.178 472.052 293.08 471.64 292.886C471.233 292.692 470.899 292.448 470.639 292.155C470.378 291.857 470.18 291.556 470.042 291.253H469.907V293H466.924ZM469.886 287.545C469.886 288.194 469.976 288.76 470.156 289.243C470.336 289.726 470.596 290.102 470.937 290.372C471.278 290.637 471.692 290.77 472.18 290.77C472.672 290.77 473.089 290.635 473.43 290.365C473.771 290.09 474.029 289.712 474.204 289.229C474.384 288.741 474.474 288.18 474.474 287.545C474.474 286.916 474.386 286.362 474.211 285.884C474.036 285.405 473.778 285.031 473.437 284.761C473.096 284.491 472.677 284.357 472.18 284.357C471.688 284.357 471.271 284.487 470.93 284.747C470.594 285.008 470.336 285.377 470.156 285.855C469.976 286.333 469.886 286.897 469.886 287.545ZM479.582 293V282.091H482.516V283.994H482.629C482.828 283.317 483.162 282.806 483.631 282.46C484.099 282.11 484.639 281.935 485.25 281.935C485.402 281.935 485.565 281.944 485.74 281.963C485.915 281.982 486.069 282.008 486.202 282.041V284.726C486.06 284.683 485.863 284.645 485.612 284.612C485.361 284.579 485.132 284.562 484.923 284.562C484.478 284.562 484.08 284.66 483.73 284.854C483.384 285.043 483.11 285.308 482.906 285.649C482.707 285.99 482.608 286.383 482.608 286.828V293H479.582ZM494.762 288.355V282.091H497.787V293H494.882V291.018H494.769C494.523 291.658 494.113 292.171 493.54 292.56C492.972 292.948 492.278 293.142 491.459 293.142C490.73 293.142 490.088 292.976 489.534 292.645C488.98 292.313 488.547 291.842 488.235 291.232C487.927 290.621 487.771 289.889 487.766 289.037V282.091H490.792V288.497C490.796 289.141 490.969 289.65 491.31 290.024C491.651 290.398 492.108 290.585 492.681 290.585C493.045 290.585 493.386 290.502 493.703 290.337C494.021 290.166 494.276 289.915 494.471 289.584C494.669 289.252 494.766 288.843 494.762 288.355ZM503.318 293.206C502.622 293.206 502.002 293.085 501.457 292.844C500.913 292.598 500.482 292.235 500.165 291.757C499.852 291.274 499.696 290.673 499.696 289.953C499.696 289.347 499.807 288.838 500.03 288.426C500.252 288.014 500.555 287.683 500.939 287.432C501.322 287.181 501.758 286.991 502.246 286.864C502.738 286.736 503.254 286.646 503.794 286.594C504.429 286.527 504.94 286.466 505.328 286.409C505.716 286.348 505.998 286.258 506.173 286.139C506.348 286.021 506.436 285.846 506.436 285.614V285.571C506.436 285.121 506.294 284.773 506.01 284.527C505.731 284.281 505.333 284.158 504.817 284.158C504.272 284.158 503.839 284.278 503.517 284.52C503.195 284.757 502.982 285.055 502.878 285.415L500.08 285.188C500.222 284.525 500.501 283.952 500.918 283.469C501.334 282.981 501.872 282.607 502.53 282.347C503.193 282.081 503.96 281.949 504.831 281.949C505.437 281.949 506.017 282.02 506.571 282.162C507.13 282.304 507.625 282.524 508.055 282.822C508.491 283.121 508.834 283.504 509.085 283.973C509.336 284.437 509.462 284.993 509.462 285.642V293H506.592V291.487H506.507C506.332 291.828 506.098 292.129 505.804 292.389C505.51 292.645 505.158 292.846 504.746 292.993C504.334 293.135 503.858 293.206 503.318 293.206ZM504.185 291.118C504.63 291.118 505.023 291.03 505.364 290.855C505.705 290.675 505.972 290.434 506.166 290.131C506.36 289.828 506.457 289.484 506.457 289.101V287.943C506.363 288.005 506.232 288.062 506.067 288.114C505.906 288.161 505.723 288.206 505.52 288.249C505.316 288.286 505.113 288.322 504.909 288.355C504.705 288.384 504.521 288.41 504.355 288.433C504 288.485 503.69 288.568 503.425 288.682C503.16 288.795 502.954 288.949 502.807 289.143C502.66 289.333 502.587 289.57 502.587 289.854C502.587 290.266 502.736 290.58 503.034 290.798C503.337 291.011 503.721 291.118 504.185 291.118ZM511.809 293V282.091H514.742V283.994H514.856C515.055 283.317 515.388 282.806 515.857 282.46C516.326 282.11 516.866 281.935 517.477 281.935C517.628 281.935 517.791 281.944 517.967 281.963C518.142 281.982 518.296 282.008 518.428 282.041V284.726C518.286 284.683 518.09 284.645 517.839 284.612C517.588 284.579 517.358 284.562 517.15 284.562C516.705 284.562 516.307 284.66 515.957 284.854C515.611 285.043 515.336 285.308 515.133 285.649C514.934 285.99 514.835 286.383 514.835 286.828V293H511.809ZM522.192 297.091C521.809 297.091 521.449 297.06 521.113 296.999C520.781 296.942 520.507 296.868 520.289 296.778L520.971 294.52C521.326 294.629 521.646 294.688 521.93 294.697C522.219 294.707 522.467 294.641 522.675 294.499C522.888 294.357 523.061 294.115 523.194 293.774L523.371 293.312L519.458 282.091H522.64L524.898 290.102H525.012L527.292 282.091H530.495L526.255 294.179C526.051 294.766 525.774 295.277 525.424 295.713C525.078 296.153 524.64 296.492 524.11 296.729C523.58 296.97 522.941 297.091 522.192 297.091Z" fill="#645B87"/>
<path d="M734.346 293.199C733.286 293.199 732.341 293.017 731.513 292.652C730.689 292.283 730.038 291.776 729.559 291.132C729.086 290.483 728.842 289.735 728.828 288.888H731.925C731.943 289.243 732.059 289.555 732.273 289.825C732.49 290.09 732.779 290.296 733.139 290.443C733.499 290.59 733.904 290.663 734.354 290.663C734.822 290.663 735.237 290.58 735.596 290.415C735.956 290.249 736.238 290.019 736.442 289.726C736.645 289.432 736.747 289.094 736.747 288.71C736.747 288.322 736.638 287.979 736.42 287.68C736.207 287.377 735.899 287.141 735.497 286.97C735.099 286.8 734.626 286.714 734.077 286.714H732.72V284.456H734.077C734.541 284.456 734.95 284.375 735.305 284.214C735.665 284.054 735.944 283.831 736.143 283.547C736.342 283.258 736.442 282.922 736.442 282.538C736.442 282.174 736.354 281.854 736.179 281.58C736.008 281.3 735.767 281.082 735.454 280.926C735.147 280.77 734.787 280.692 734.375 280.692C733.958 280.692 733.577 280.768 733.231 280.919C732.886 281.066 732.609 281.277 732.4 281.551C732.192 281.826 732.081 282.148 732.067 282.517H729.119C729.133 281.679 729.372 280.94 729.836 280.301C730.3 279.662 730.925 279.162 731.711 278.803C732.502 278.438 733.395 278.256 734.389 278.256C735.393 278.256 736.271 278.438 737.024 278.803C737.777 279.167 738.362 279.66 738.778 280.28C739.2 280.895 739.408 281.587 739.403 282.354C739.408 283.168 739.155 283.848 738.643 284.392C738.137 284.937 737.476 285.282 736.662 285.429V285.543C737.732 285.68 738.546 286.052 739.105 286.658C739.668 287.259 739.948 288.012 739.943 288.916C739.948 289.745 739.709 290.481 739.226 291.125C738.747 291.769 738.087 292.276 737.244 292.645C736.401 293.014 735.435 293.199 734.346 293.199ZM748.979 284.527V286.928H742.345V284.527H748.979ZM756.791 278.256C757.539 278.256 758.259 278.381 758.95 278.632C759.646 278.883 760.267 279.283 760.811 279.832C761.36 280.382 761.794 281.111 762.111 282.02C762.433 282.924 762.596 284.035 762.601 285.351C762.601 286.587 762.461 287.69 762.182 288.661C761.907 289.626 761.512 290.448 760.996 291.125C760.48 291.802 759.857 292.318 759.128 292.673C758.399 293.024 757.584 293.199 756.685 293.199C755.714 293.199 754.857 293.012 754.114 292.638C753.37 292.259 752.771 291.745 752.317 291.097C751.867 290.443 751.595 289.709 751.5 288.895H754.533C754.651 289.425 754.9 289.837 755.279 290.131C755.657 290.42 756.126 290.564 756.685 290.564C757.632 290.564 758.352 290.152 758.844 289.328C759.336 288.5 759.585 287.366 759.59 285.926H759.49C759.272 286.352 758.979 286.719 758.61 287.027C758.24 287.33 757.816 287.564 757.338 287.73C756.865 287.896 756.36 287.979 755.825 287.979C754.968 287.979 754.204 287.777 753.531 287.375C752.859 286.973 752.329 286.419 751.941 285.713C751.552 285.008 751.358 284.203 751.358 283.298C751.353 282.323 751.578 281.454 752.033 280.692C752.487 279.929 753.122 279.333 753.936 278.902C754.755 278.466 755.707 278.251 756.791 278.256ZM756.813 280.67C756.334 280.67 755.908 280.784 755.534 281.011C755.165 281.239 754.871 281.544 754.654 281.928C754.441 282.311 754.336 282.74 754.341 283.213C754.341 283.691 754.445 284.122 754.654 284.506C754.867 284.884 755.155 285.187 755.52 285.415C755.889 285.637 756.311 285.749 756.784 285.749C757.139 285.749 757.468 285.682 757.771 285.55C758.075 285.417 758.337 285.235 758.56 285.003C758.787 284.766 758.965 284.494 759.093 284.186C759.22 283.878 759.284 283.552 759.284 283.206C759.28 282.747 759.171 282.325 758.958 281.942C758.744 281.558 758.451 281.25 758.077 281.018C757.703 280.786 757.281 280.67 756.813 280.67ZM769.446 293V278.455H779.077V280.99H772.521V284.456H778.437V286.991H772.521V293H769.446ZM785.259 293.213C784.137 293.213 783.171 292.986 782.361 292.531C781.556 292.072 780.936 291.423 780.501 290.585C780.065 289.742 779.847 288.746 779.847 287.595C779.847 286.473 780.065 285.488 780.501 284.641C780.936 283.793 781.549 283.133 782.34 282.659C783.135 282.186 784.068 281.949 785.138 281.949C785.858 281.949 786.528 282.065 787.148 282.297C787.773 282.524 788.318 282.867 788.782 283.327C789.251 283.786 789.615 284.364 789.876 285.06C790.136 285.751 790.266 286.561 790.266 287.489V288.32H781.055V286.445H787.418C787.418 286.009 787.323 285.623 787.134 285.287C786.945 284.951 786.682 284.688 786.346 284.499C786.014 284.304 785.628 284.207 785.188 284.207C784.729 284.207 784.322 284.314 783.966 284.527C783.616 284.735 783.341 285.017 783.143 285.372C782.944 285.723 782.842 286.113 782.837 286.544V288.327C782.837 288.866 782.937 289.333 783.135 289.726C783.339 290.119 783.626 290.422 783.995 290.635C784.364 290.848 784.802 290.955 785.309 290.955C785.645 290.955 785.953 290.907 786.232 290.812C786.511 290.718 786.751 290.576 786.949 290.386C787.148 290.197 787.3 289.965 787.404 289.69L790.202 289.875C790.06 290.547 789.769 291.134 789.329 291.636C788.893 292.134 788.33 292.522 787.638 292.801C786.952 293.076 786.159 293.213 785.259 293.213ZM792.297 293V278.455H795.323V283.923H795.415C795.548 283.63 795.74 283.331 795.991 283.028C796.246 282.721 796.578 282.465 796.985 282.261C797.397 282.053 797.908 281.949 798.519 281.949C799.314 281.949 800.048 282.157 800.721 282.574C801.393 282.986 801.93 283.608 802.333 284.442C802.735 285.27 802.937 286.31 802.937 287.56C802.937 288.777 802.74 289.804 802.347 290.642C801.959 291.475 801.429 292.107 800.756 292.538C800.089 292.964 799.34 293.178 798.512 293.178C797.925 293.178 797.425 293.08 797.013 292.886C796.606 292.692 796.272 292.448 796.012 292.155C795.751 291.857 795.553 291.556 795.415 291.253H795.28V293H792.297ZM795.259 287.545C795.259 288.194 795.349 288.76 795.529 289.243C795.709 289.726 795.969 290.102 796.31 290.372C796.651 290.637 797.065 290.77 797.553 290.77C798.046 290.77 798.462 290.635 798.803 290.365C799.144 290.09 799.402 289.712 799.577 289.229C799.757 288.741 799.847 288.18 799.847 287.545C799.847 286.916 799.76 286.362 799.584 285.884C799.409 285.405 799.151 285.031 798.81 284.761C798.469 284.491 798.05 284.357 797.553 284.357C797.061 284.357 796.644 284.487 796.303 284.747C795.967 285.008 795.709 285.377 795.529 285.855C795.349 286.333 795.259 286.897 795.259 287.545ZM804.955 293V282.091H807.889V283.994H808.002C808.201 283.317 808.535 282.806 809.004 282.46C809.472 282.11 810.012 281.935 810.623 281.935C810.775 281.935 810.938 281.944 811.113 281.963C811.288 281.982 811.442 282.008 811.575 282.041V284.726C811.433 284.683 811.236 284.645 810.985 284.612C810.734 284.579 810.505 284.562 810.296 284.562C809.851 284.562 809.454 284.66 809.103 284.854C808.758 285.043 808.483 285.308 808.279 285.649C808.08 285.99 807.981 286.383 807.981 286.828V293H804.955ZM820.135 288.355V282.091H823.16V293H820.256V291.018H820.142C819.896 291.658 819.486 292.171 818.913 292.56C818.345 292.948 817.651 293.142 816.832 293.142C816.103 293.142 815.461 292.976 814.907 292.645C814.354 292.313 813.92 291.842 813.608 291.232C813.3 290.621 813.144 289.889 813.139 289.037V282.091H816.165V288.497C816.169 289.141 816.342 289.65 816.683 290.024C817.024 290.398 817.481 290.585 818.054 290.585C818.418 290.585 818.759 290.502 819.077 290.337C819.394 290.166 819.649 289.915 819.844 289.584C820.042 289.252 820.14 288.843 820.135 288.355ZM828.691 293.206C827.995 293.206 827.375 293.085 826.83 292.844C826.286 292.598 825.855 292.235 825.538 291.757C825.225 291.274 825.069 290.673 825.069 289.953C825.069 289.347 825.18 288.838 825.403 288.426C825.625 288.014 825.928 287.683 826.312 287.432C826.695 287.181 827.131 286.991 827.619 286.864C828.111 286.736 828.627 286.646 829.167 286.594C829.802 286.527 830.313 286.466 830.701 286.409C831.089 286.348 831.371 286.258 831.546 286.139C831.722 286.021 831.809 285.846 831.809 285.614V285.571C831.809 285.121 831.667 284.773 831.383 284.527C831.104 284.281 830.706 284.158 830.19 284.158C829.645 284.158 829.212 284.278 828.89 284.52C828.568 284.757 828.355 285.055 828.251 285.415L825.453 285.188C825.595 284.525 825.874 283.952 826.291 283.469C826.707 282.981 827.245 282.607 827.903 282.347C828.566 282.081 829.333 281.949 830.204 281.949C830.81 281.949 831.39 282.02 831.944 282.162C832.503 282.304 832.998 282.524 833.428 282.822C833.864 283.121 834.207 283.504 834.458 283.973C834.709 284.437 834.835 284.993 834.835 285.642V293H831.965V291.487H831.88C831.705 291.828 831.471 292.129 831.177 292.389C830.883 292.645 830.531 292.846 830.119 292.993C829.707 293.135 829.231 293.206 828.691 293.206ZM829.558 291.118C830.003 291.118 830.396 291.03 830.737 290.855C831.078 290.675 831.345 290.434 831.539 290.131C831.733 289.828 831.83 289.484 831.83 289.101V287.943C831.736 288.005 831.606 288.062 831.44 288.114C831.279 288.161 831.097 288.206 830.893 288.249C830.689 288.286 830.486 288.322 830.282 288.355C830.079 288.384 829.894 288.41 829.728 288.433C829.373 288.485 829.063 288.568 828.798 288.682C828.533 288.795 828.327 288.949 828.18 289.143C828.033 289.333 827.96 289.57 827.96 289.854C827.96 290.266 828.109 290.58 828.407 290.798C828.71 291.011 829.094 291.118 829.558 291.118ZM837.182 293V282.091H840.115V283.994H840.229C840.428 283.317 840.762 282.806 841.23 282.46C841.699 282.11 842.239 281.935 842.85 281.935C843.001 281.935 843.164 281.944 843.34 281.963C843.515 281.982 843.669 282.008 843.801 282.041V284.726C843.659 284.683 843.463 284.645 843.212 284.612C842.961 284.579 842.731 284.562 842.523 284.562C842.078 284.562 841.68 284.66 841.33 284.854C840.984 285.043 840.709 285.308 840.506 285.649C840.307 285.99 840.208 286.383 840.208 286.828V293H837.182ZM847.566 297.091C847.182 297.091 846.822 297.06 846.486 296.999C846.155 296.942 845.88 296.868 845.662 296.778L846.344 294.52C846.699 294.629 847.019 294.688 847.303 294.697C847.592 294.707 847.84 294.641 848.048 294.499C848.262 294.357 848.434 294.115 848.567 293.774L848.744 293.312L844.831 282.091H848.013L850.271 290.102H850.385L852.665 282.091H855.868L851.628 294.179C851.424 294.766 851.147 295.277 850.797 295.713C850.451 296.153 850.013 296.492 849.483 296.729C848.953 296.97 848.314 297.091 847.566 297.091Z" fill="#645B87"/>
<path d="M17.6009 293V290.784L22.7784 285.99C23.2188 285.564 23.5881 285.18 23.8864 284.839C24.1894 284.499 24.419 284.165 24.5753 283.838C24.7315 283.507 24.8097 283.149 24.8097 282.766C24.8097 282.339 24.7126 281.973 24.5185 281.665C24.3243 281.352 24.0592 281.113 23.723 280.947C23.3868 280.777 23.0057 280.692 22.5795 280.692C22.1345 280.692 21.7462 280.782 21.4148 280.962C21.0833 281.142 20.8277 281.4 20.6477 281.736C20.4678 282.072 20.3778 282.472 20.3778 282.936H17.4588C17.4588 281.984 17.6742 281.158 18.1051 280.457C18.536 279.757 19.1397 279.214 19.9162 278.831C20.6927 278.447 21.5876 278.256 22.6009 278.256C23.6425 278.256 24.5492 278.44 25.321 278.81C26.0975 279.174 26.7012 279.681 27.1321 280.33C27.563 280.978 27.7784 281.722 27.7784 282.56C27.7784 283.109 27.6695 283.651 27.4517 284.186C27.2386 284.721 26.8575 285.315 26.3082 285.969C25.759 286.617 24.9848 287.396 23.9858 288.305L21.8622 290.386V290.486H27.9702V293H17.6009ZM35.9016 293.32C34.68 293.315 33.6289 293.014 32.7482 292.418C31.8723 291.821 31.1976 290.957 30.7241 289.825C30.2553 288.694 30.0233 287.332 30.0281 285.741C30.0281 284.155 30.2624 282.804 30.7312 281.686C31.2047 280.569 31.8794 279.719 32.7553 279.136C33.636 278.549 34.6848 278.256 35.9016 278.256C37.1185 278.256 38.1649 278.549 39.0408 279.136C39.9215 279.723 40.5986 280.576 41.0721 281.693C41.5456 282.806 41.7799 284.155 41.7752 285.741C41.7752 287.337 41.5385 288.701 41.065 289.832C40.5962 290.964 39.9239 291.828 39.0479 292.425C38.172 293.021 37.1232 293.32 35.9016 293.32ZM35.9016 290.77C36.735 290.77 37.4002 290.351 37.8974 289.513C38.3945 288.675 38.6407 287.418 38.636 285.741C38.636 284.638 38.5224 283.72 38.2951 282.986C38.0726 282.252 37.7553 281.7 37.3434 281.331C36.9362 280.962 36.4556 280.777 35.9016 280.777C35.073 280.777 34.4102 281.191 33.913 282.02C33.4158 282.848 33.1649 284.089 33.1602 285.741C33.1602 286.859 33.2714 287.792 33.494 288.54C33.7212 289.283 34.0408 289.842 34.4528 290.216C34.8647 290.585 35.3477 290.77 35.9016 290.77ZM55.4222 284.527V286.928H48.7887V284.527H55.4222ZM62.6009 293V290.784L67.7784 285.99C68.2188 285.564 68.5881 285.18 68.8864 284.839C69.1894 284.499 69.419 284.165 69.5753 283.838C69.7315 283.507 69.8097 283.149 69.8097 282.766C69.8097 282.339 69.7126 281.973 69.5185 281.665C69.3243 281.352 69.0592 281.113 68.723 280.947C68.3868 280.777 68.0057 280.692 67.5795 280.692C67.1345 280.692 66.7462 280.782 66.4148 280.962C66.0833 281.142 65.8277 281.4 65.6477 281.736C65.4678 282.072 65.3778 282.472 65.3778 282.936H62.4588C62.4588 281.984 62.6742 281.158 63.1051 280.457C63.536 279.757 64.1397 279.214 64.9162 278.831C65.6927 278.447 66.5876 278.256 67.6009 278.256C68.6425 278.256 69.5492 278.44 70.321 278.81C71.0975 279.174 71.7012 279.681 72.1321 280.33C72.563 280.978 72.7784 281.722 72.7784 282.56C72.7784 283.109 72.6695 283.651 72.4517 284.186C72.2386 284.721 71.8575 285.315 71.3082 285.969C70.759 286.617 69.9848 287.396 68.9858 288.305L66.8622 290.386V290.486H72.9702V293H62.6009ZM80.7809 293.199C80.0328 293.194 79.3107 293.069 78.6147 292.822C77.9234 292.576 77.3031 292.176 76.7539 291.622C76.2047 291.068 75.7691 290.334 75.4471 289.42C75.1299 288.507 74.9712 287.384 74.9712 286.054C74.976 284.832 75.1156 283.741 75.3903 282.78C75.6696 281.814 76.0674 280.995 76.5835 280.322C77.1043 279.65 77.7269 279.139 78.4513 278.788C79.1758 278.433 79.9878 278.256 80.8874 278.256C81.8581 278.256 82.7151 278.445 83.4585 278.824C84.2018 279.198 84.7984 279.707 85.2482 280.351C85.7028 280.995 85.9774 281.717 86.0721 282.517H83.0394C82.921 282.01 82.6725 281.613 82.2937 281.324C81.9149 281.035 81.4461 280.891 80.8874 280.891C79.9405 280.891 79.2208 281.303 78.7283 282.126C78.2406 282.95 77.9921 284.07 77.9826 285.486H78.082C78.2998 285.055 78.5934 284.688 78.9627 284.385C79.3368 284.077 79.7605 283.843 80.234 283.682C80.7122 283.516 81.2165 283.433 81.7468 283.433C82.6085 283.433 83.3756 283.637 84.0479 284.044C84.7203 284.446 85.2506 285 85.6388 285.706C86.0271 286.411 86.2212 287.219 86.2212 288.128C86.2212 289.113 85.9916 289.989 85.5323 290.756C85.0778 291.523 84.4409 292.124 83.6218 292.56C82.8074 292.991 81.8604 293.204 80.7809 293.199ZM80.7667 290.784C81.2402 290.784 81.6639 290.67 82.038 290.443C82.4121 290.216 82.7056 289.908 82.9187 289.52C83.1317 289.132 83.2383 288.696 83.2383 288.213C83.2383 287.73 83.1317 287.297 82.9187 286.913C82.7103 286.53 82.4215 286.224 82.0522 285.997C81.6829 285.77 81.2615 285.656 80.788 285.656C80.4329 285.656 80.1038 285.723 79.8008 285.855C79.5025 285.988 79.2397 286.172 79.0124 286.409C78.7899 286.646 78.6147 286.92 78.4869 287.233C78.359 287.541 78.2951 287.87 78.2951 288.22C78.2951 288.689 78.4016 289.117 78.6147 289.506C78.8325 289.894 79.1261 290.204 79.4954 290.436C79.8694 290.668 80.2932 290.784 80.7667 290.784ZM98.9396 278.455H101.979V288.597C101.979 289.534 101.769 290.348 101.347 291.04C100.931 291.731 100.351 292.264 99.6072 292.638C98.8639 293.012 97.9998 293.199 97.0149 293.199C96.139 293.199 95.3435 293.045 94.6286 292.737C93.9183 292.425 93.3549 291.951 92.9382 291.317C92.5215 290.678 92.3156 289.875 92.3203 288.909H95.3814C95.3909 289.293 95.469 289.622 95.6158 289.896C95.7673 290.166 95.9732 290.375 96.2337 290.521C96.4988 290.663 96.8113 290.734 97.1712 290.734C97.55 290.734 97.8696 290.654 98.13 290.493C98.3951 290.327 98.5964 290.086 98.7337 289.768C98.871 289.451 98.9396 289.061 98.9396 288.597V278.455ZM107.576 293.206C106.88 293.206 106.26 293.085 105.715 292.844C105.171 292.598 104.74 292.235 104.423 291.757C104.11 291.274 103.954 290.673 103.954 289.953C103.954 289.347 104.065 288.838 104.288 288.426C104.51 288.014 104.813 287.683 105.197 287.432C105.58 287.181 106.016 286.991 106.504 286.864C106.996 286.736 107.512 286.646 108.052 286.594C108.686 286.527 109.198 286.466 109.586 286.409C109.974 286.348 110.256 286.258 110.431 286.139C110.606 286.021 110.694 285.846 110.694 285.614V285.571C110.694 285.121 110.552 284.773 110.268 284.527C109.988 284.281 109.591 284.158 109.075 284.158C108.53 284.158 108.097 284.278 107.775 284.52C107.453 284.757 107.24 285.055 107.136 285.415L104.337 285.188C104.479 284.525 104.759 283.952 105.175 283.469C105.592 282.981 106.129 282.607 106.788 282.347C107.451 282.081 108.218 281.949 109.089 281.949C109.695 281.949 110.275 282.02 110.829 282.162C111.388 282.304 111.882 282.524 112.313 282.822C112.749 283.121 113.092 283.504 113.343 283.973C113.594 284.437 113.719 284.993 113.719 285.642V293H110.85V291.487H110.765C110.59 291.828 110.355 292.129 110.062 292.389C109.768 292.645 109.415 292.846 109.004 292.993C108.592 293.135 108.116 293.206 107.576 293.206ZM108.442 291.118C108.888 291.118 109.281 291.03 109.621 290.855C109.962 290.675 110.23 290.434 110.424 290.131C110.618 289.828 110.715 289.484 110.715 289.101V287.943C110.621 288.005 110.49 288.062 110.325 288.114C110.164 288.161 109.981 288.206 109.778 288.249C109.574 288.286 109.371 288.322 109.167 288.355C108.963 288.384 108.779 288.41 108.613 288.433C108.258 288.485 107.948 288.568 107.683 288.682C107.417 288.795 107.211 288.949 107.065 289.143C106.918 289.333 106.844 289.57 106.844 289.854C106.844 290.266 106.994 290.58 107.292 290.798C107.595 291.011 107.978 291.118 108.442 291.118ZM119.092 286.693V293H116.067V282.091H118.95V284.016H119.078C119.32 283.381 119.724 282.879 120.293 282.51C120.861 282.136 121.55 281.949 122.359 281.949C123.117 281.949 123.777 282.115 124.341 282.446C124.904 282.777 125.342 283.251 125.655 283.866C125.967 284.477 126.124 285.206 126.124 286.054V293H123.098V286.594C123.103 285.926 122.932 285.405 122.587 285.031C122.241 284.652 121.765 284.463 121.159 284.463C120.752 284.463 120.392 284.551 120.08 284.726C119.772 284.901 119.53 285.157 119.355 285.493C119.185 285.824 119.097 286.224 119.092 286.693ZM135.504 288.355V282.091H138.529V293H135.625V291.018H135.511C135.265 291.658 134.855 292.171 134.282 292.56C133.714 292.948 133.02 293.142 132.201 293.142C131.472 293.142 130.831 292.976 130.277 292.645C129.723 292.313 129.289 291.842 128.977 291.232C128.669 290.621 128.513 289.889 128.508 289.037V282.091H131.534V288.497C131.538 289.141 131.711 289.65 132.052 290.024C132.393 290.398 132.85 290.585 133.423 290.585C133.788 290.585 134.128 290.502 134.446 290.337C134.763 290.166 135.019 289.915 135.213 289.584C135.412 289.252 135.509 288.843 135.504 288.355ZM144.06 293.206C143.364 293.206 142.744 293.085 142.2 292.844C141.655 292.598 141.224 292.235 140.907 291.757C140.594 291.274 140.438 290.673 140.438 289.953C140.438 289.347 140.549 288.838 140.772 288.426C140.995 288.014 141.298 287.683 141.681 287.432C142.065 287.181 142.5 286.991 142.988 286.864C143.48 286.736 143.996 286.646 144.536 286.594C145.171 286.527 145.682 286.466 146.07 286.409C146.459 286.348 146.74 286.258 146.915 286.139C147.091 286.021 147.178 285.846 147.178 285.614V285.571C147.178 285.121 147.036 284.773 146.752 284.527C146.473 284.281 146.075 284.158 145.559 284.158C145.014 284.158 144.581 284.278 144.259 284.52C143.937 284.757 143.724 285.055 143.62 285.415L140.822 285.188C140.964 284.525 141.243 283.952 141.66 283.469C142.076 282.981 142.614 282.607 143.272 282.347C143.935 282.081 144.702 281.949 145.573 281.949C146.179 281.949 146.759 282.02 147.313 282.162C147.872 282.304 148.367 282.524 148.798 282.822C149.233 283.121 149.576 283.504 149.827 283.973C150.078 284.437 150.204 284.993 150.204 285.642V293H147.335V291.487H147.249C147.074 291.828 146.84 292.129 146.546 292.389C146.253 292.645 145.9 292.846 145.488 292.993C145.076 293.135 144.6 293.206 144.06 293.206ZM144.927 291.118C145.372 291.118 145.765 291.03 146.106 290.855C146.447 290.675 146.714 290.434 146.908 290.131C147.103 289.828 147.2 289.484 147.2 289.101V287.943C147.105 288.005 146.975 288.062 146.809 288.114C146.648 288.161 146.466 288.206 146.262 288.249C146.058 288.286 145.855 288.322 145.651 288.355C145.448 288.384 145.263 288.41 145.097 288.433C144.742 288.485 144.432 288.568 144.167 288.682C143.902 288.795 143.696 288.949 143.549 289.143C143.402 289.333 143.329 289.57 143.329 289.854C143.329 290.266 143.478 290.58 143.776 290.798C144.079 291.011 144.463 291.118 144.927 291.118ZM152.551 293V282.091H155.484V283.994H155.598C155.797 283.317 156.131 282.806 156.599 282.46C157.068 282.11 157.608 281.935 158.219 281.935C158.37 281.935 158.534 281.944 158.709 281.963C158.884 281.982 159.038 282.008 159.17 282.041V284.726C159.028 284.683 158.832 284.645 158.581 284.612C158.33 284.579 158.1 284.562 157.892 284.562C157.447 284.562 157.049 284.66 156.699 284.854C156.353 285.043 156.079 285.308 155.875 285.649C155.676 285.99 155.577 286.383 155.577 286.828V293H152.551ZM162.935 297.091C162.551 297.091 162.191 297.06 161.855 296.999C161.524 296.942 161.249 296.868 161.031 296.778L161.713 294.52C162.068 294.629 162.388 294.688 162.672 294.697C162.961 294.707 163.209 294.641 163.418 294.499C163.631 294.357 163.804 294.115 163.936 293.774L164.114 293.312L160.2 282.091H163.382L165.641 290.102H165.754L168.034 282.091H171.237L166.997 294.179C166.794 294.766 166.517 295.277 166.166 295.713C165.821 296.153 165.383 296.492 164.852 296.729C164.322 296.97 163.683 297.091 162.935 297.091Z" fill="#645B87"/>
<path d="M1119.69 278.455V293H1116.62V281.374H1116.53L1113.2 283.462V280.734L1116.8 278.455H1119.69ZM1128.53 293.199C1127.47 293.199 1126.52 293.017 1125.69 292.652C1124.87 292.283 1124.22 291.776 1123.74 291.132C1123.27 290.483 1123.02 289.735 1123.01 288.888H1126.11C1126.13 289.243 1126.24 289.555 1126.45 289.825C1126.67 290.09 1126.96 290.296 1127.32 290.443C1127.68 290.59 1128.09 290.663 1128.54 290.663C1129 290.663 1129.42 290.58 1129.78 290.415C1130.14 290.249 1130.42 290.019 1130.62 289.726C1130.83 289.432 1130.93 289.094 1130.93 288.71C1130.93 288.322 1130.82 287.979 1130.6 287.68C1130.39 287.377 1130.08 287.141 1129.68 286.97C1129.28 286.8 1128.81 286.714 1128.26 286.714H1126.9V284.456H1128.26C1128.72 284.456 1129.13 284.375 1129.49 284.214C1129.85 284.054 1130.13 283.831 1130.32 283.547C1130.52 283.258 1130.62 282.922 1130.62 282.538C1130.62 282.174 1130.54 281.854 1130.36 281.58C1130.19 281.3 1129.95 281.082 1129.64 280.926C1129.33 280.77 1128.97 280.692 1128.56 280.692C1128.14 280.692 1127.76 280.768 1127.41 280.919C1127.07 281.066 1126.79 281.277 1126.58 281.551C1126.37 281.826 1126.26 282.148 1126.25 282.517H1123.3C1123.31 281.679 1123.55 280.94 1124.02 280.301C1124.48 279.662 1125.11 279.162 1125.89 278.803C1126.68 278.438 1127.58 278.256 1128.57 278.256C1129.57 278.256 1130.45 278.438 1131.21 278.803C1131.96 279.167 1132.54 279.66 1132.96 280.28C1133.38 280.895 1133.59 281.587 1133.58 282.354C1133.59 283.168 1133.34 283.848 1132.82 284.392C1132.32 284.937 1131.66 285.282 1130.84 285.429V285.543C1131.91 285.68 1132.73 286.052 1133.29 286.658C1133.85 287.259 1134.13 288.012 1134.12 288.916C1134.13 289.745 1133.89 290.481 1133.41 291.125C1132.93 291.769 1132.27 292.276 1131.43 292.645C1130.58 293.014 1129.62 293.199 1128.53 293.199ZM1141.05 293V278.455H1150.68V280.99H1144.12V284.456H1150.04V286.991H1144.12V293H1141.05ZM1156.86 293.213C1155.74 293.213 1154.77 292.986 1153.96 292.531C1153.16 292.072 1152.54 291.423 1152.1 290.585C1151.67 289.742 1151.45 288.746 1151.45 287.595C1151.45 286.473 1151.67 285.488 1152.1 284.641C1152.54 283.793 1153.15 283.133 1153.94 282.659C1154.74 282.186 1155.67 281.949 1156.74 281.949C1157.46 281.949 1158.13 282.065 1158.75 282.297C1159.38 282.524 1159.92 282.867 1160.39 283.327C1160.85 283.786 1161.22 284.364 1161.48 285.06C1161.74 285.751 1161.87 286.561 1161.87 287.489V288.32H1152.66V286.445H1159.02C1159.02 286.009 1158.93 285.623 1158.74 285.287C1158.55 284.951 1158.29 284.688 1157.95 284.499C1157.62 284.304 1157.23 284.207 1156.79 284.207C1156.33 284.207 1155.93 284.314 1155.57 284.527C1155.22 284.735 1154.94 285.017 1154.75 285.372C1154.55 285.723 1154.45 286.113 1154.44 286.544V288.327C1154.44 288.866 1154.54 289.333 1154.74 289.726C1154.94 290.119 1155.23 290.422 1155.6 290.635C1155.97 290.848 1156.41 290.955 1156.91 290.955C1157.25 290.955 1157.56 290.907 1157.84 290.812C1158.11 290.718 1158.35 290.576 1158.55 290.386C1158.75 290.197 1158.9 289.965 1159.01 289.69L1161.81 289.875C1161.66 290.547 1161.37 291.134 1160.93 291.636C1160.5 292.134 1159.93 292.522 1159.24 292.801C1158.56 293.076 1157.76 293.213 1156.86 293.213ZM1163.9 293V278.455H1166.93V283.923H1167.02C1167.15 283.63 1167.34 283.331 1167.59 283.028C1167.85 282.721 1168.18 282.465 1168.59 282.261C1169 282.053 1169.51 281.949 1170.12 281.949C1170.92 281.949 1171.65 282.157 1172.32 282.574C1173 282.986 1173.53 283.608 1173.94 284.442C1174.34 285.27 1174.54 286.31 1174.54 287.56C1174.54 288.777 1174.34 289.804 1173.95 290.642C1173.56 291.475 1173.03 292.107 1172.36 292.538C1171.69 292.964 1170.94 293.178 1170.12 293.178C1169.53 293.178 1169.03 293.08 1168.62 292.886C1168.21 292.692 1167.88 292.448 1167.62 292.155C1167.35 291.857 1167.16 291.556 1167.02 291.253H1166.88V293H1163.9ZM1166.86 287.545C1166.86 288.194 1166.95 288.76 1167.13 289.243C1167.31 289.726 1167.57 290.102 1167.91 290.372C1168.25 290.637 1168.67 290.77 1169.16 290.77C1169.65 290.77 1170.07 290.635 1170.41 290.365C1170.75 290.09 1171.01 289.712 1171.18 289.229C1171.36 288.741 1171.45 288.18 1171.45 287.545C1171.45 286.916 1171.36 286.362 1171.19 285.884C1171.01 285.405 1170.75 285.031 1170.41 284.761C1170.07 284.491 1169.65 284.357 1169.16 284.357C1168.66 284.357 1168.25 284.487 1167.91 284.747C1167.57 285.008 1167.31 285.377 1167.13 285.855C1166.95 286.333 1166.86 286.897 1166.86 287.545ZM1176.56 293V282.091H1179.49V283.994H1179.61C1179.8 283.317 1180.14 282.806 1180.61 282.46C1181.08 282.11 1181.62 281.935 1182.23 281.935C1182.38 281.935 1182.54 281.944 1182.72 281.963C1182.89 281.982 1183.05 282.008 1183.18 282.041V284.726C1183.04 284.683 1182.84 284.645 1182.59 284.612C1182.34 284.579 1182.11 284.562 1181.9 284.562C1181.45 284.562 1181.06 284.66 1180.71 284.854C1180.36 285.043 1180.09 285.308 1179.88 285.649C1179.68 285.99 1179.58 286.383 1179.58 286.828V293H1176.56ZM1191.74 288.355V282.091H1194.76V293H1191.86V291.018H1191.75C1191.5 291.658 1191.09 292.171 1190.52 292.56C1189.95 292.948 1189.25 293.142 1188.44 293.142C1187.71 293.142 1187.06 292.976 1186.51 292.645C1185.96 292.313 1185.52 291.842 1185.21 291.232C1184.9 290.621 1184.75 289.889 1184.74 289.037V282.091H1187.77V288.497C1187.77 289.141 1187.95 289.65 1188.29 290.024C1188.63 290.398 1189.08 290.585 1189.66 290.585C1190.02 290.585 1190.36 290.502 1190.68 290.337C1191 290.166 1191.25 289.915 1191.45 289.584C1191.65 289.252 1191.74 288.843 1191.74 288.355ZM1200.29 293.206C1199.6 293.206 1198.98 293.085 1198.43 292.844C1197.89 292.598 1197.46 292.235 1197.14 291.757C1196.83 291.274 1196.67 290.673 1196.67 289.953C1196.67 289.347 1196.78 288.838 1197.01 288.426C1197.23 288.014 1197.53 287.683 1197.92 287.432C1198.3 287.181 1198.73 286.991 1199.22 286.864C1199.71 286.736 1200.23 286.646 1200.77 286.594C1201.41 286.527 1201.92 286.466 1202.3 286.409C1202.69 286.348 1202.97 286.258 1203.15 286.139C1203.33 286.021 1203.41 285.846 1203.41 285.614V285.571C1203.41 285.121 1203.27 284.773 1202.99 284.527C1202.71 284.281 1202.31 284.158 1201.79 284.158C1201.25 284.158 1200.82 284.278 1200.49 284.52C1200.17 284.757 1199.96 285.055 1199.85 285.415L1197.06 285.188C1197.2 284.525 1197.48 283.952 1197.89 283.469C1198.31 282.981 1198.85 282.607 1199.51 282.347C1200.17 282.081 1200.94 281.949 1201.81 281.949C1202.41 281.949 1202.99 282.02 1203.55 282.162C1204.11 282.304 1204.6 282.524 1205.03 282.822C1205.47 283.121 1205.81 283.504 1206.06 283.973C1206.31 284.437 1206.44 284.993 1206.44 285.642V293H1203.57V291.487H1203.48C1203.31 291.828 1203.07 292.129 1202.78 292.389C1202.49 292.645 1202.13 292.846 1201.72 292.993C1201.31 293.135 1200.83 293.206 1200.29 293.206ZM1201.16 291.118C1201.61 291.118 1202 291.03 1202.34 290.855C1202.68 290.675 1202.95 290.434 1203.14 290.131C1203.34 289.828 1203.43 289.484 1203.43 289.101V287.943C1203.34 288.005 1203.21 288.062 1203.04 288.114C1202.88 288.161 1202.7 288.206 1202.5 288.249C1202.29 288.286 1202.09 288.322 1201.89 288.355C1201.68 288.384 1201.5 288.41 1201.33 288.433C1200.98 288.485 1200.67 288.568 1200.4 288.682C1200.14 288.795 1199.93 288.949 1199.78 289.143C1199.64 289.333 1199.56 289.57 1199.56 289.854C1199.56 290.266 1199.71 290.58 1200.01 290.798C1200.31 291.011 1200.7 291.118 1201.16 291.118ZM1208.79 293V282.091H1211.72V283.994H1211.83C1212.03 283.317 1212.37 282.806 1212.83 282.46C1213.3 282.11 1213.84 281.935 1214.45 281.935C1214.6 281.935 1214.77 281.944 1214.94 281.963C1215.12 281.982 1215.27 282.008 1215.4 282.041V284.726C1215.26 284.683 1215.07 284.645 1214.82 284.612C1214.56 284.579 1214.33 284.562 1214.13 284.562C1213.68 284.562 1213.28 284.66 1212.93 284.854C1212.59 285.043 1212.31 285.308 1212.11 285.649C1211.91 285.99 1211.81 286.383 1211.81 286.828V293H1208.79ZM1219.17 297.091C1218.79 297.091 1218.43 297.06 1218.09 296.999C1217.76 296.942 1217.48 296.868 1217.27 296.778L1217.95 294.52C1218.3 294.629 1218.62 294.688 1218.91 294.697C1219.2 294.707 1219.44 294.641 1219.65 294.499C1219.87 294.357 1220.04 294.115 1220.17 293.774L1220.35 293.312L1216.43 282.091H1219.62L1221.88 290.102H1221.99L1224.27 282.091H1227.47L1223.23 294.179C1223.03 294.766 1222.75 295.277 1222.4 295.713C1222.05 296.153 1221.62 296.492 1221.09 296.729C1220.56 296.97 1219.92 297.091 1219.17 297.091Z" fill="#645B87"/>
<path d="M749.746 162.455V177H746.67V162.455H749.746ZM764.442 162.455V177H761.786L755.458 167.845H755.351V177H752.276V162.455H754.975L761.253 171.602H761.381V162.455H764.442ZM766.429 164.99V162.455H778.375V164.99H773.922V177H770.882V164.99H766.429ZM780.342 177V162.455H790.143V164.99H783.418V168.456H789.639V170.991H783.418V174.464H790.172V177H780.342ZM792.588 177V162.455H798.327C799.426 162.455 800.363 162.651 801.14 163.044C801.921 163.432 802.515 163.984 802.922 164.699C803.334 165.409 803.54 166.245 803.54 167.206C803.54 168.172 803.332 169.003 802.915 169.699C802.498 170.39 801.895 170.92 801.104 171.29C800.318 171.659 799.366 171.844 798.249 171.844H794.407V169.372H797.752C798.339 169.372 798.827 169.292 799.215 169.131C799.603 168.97 799.892 168.728 800.081 168.406C800.275 168.084 800.373 167.684 800.373 167.206C800.373 166.723 800.275 166.316 800.081 165.984C799.892 165.653 799.601 165.402 799.208 165.232C798.819 165.056 798.329 164.969 797.738 164.969H795.664V177H792.588ZM800.444 170.381L804.059 177H800.664L797.127 170.381H800.444ZM807.951 162.455L811.466 173.506H811.601L815.124 162.455H818.533L813.519 177H809.556L804.534 162.455H807.951ZM823.359 162.455V177H820.284V162.455H823.359ZM825.889 177V162.455H835.69V164.99H828.964V168.456H835.186V170.991H828.964V174.464H835.719V177H825.889ZM841.409 177L837.248 162.455H840.607L843.015 172.561H843.135L845.792 162.455H848.668L851.317 172.582H851.445L853.853 162.455H857.212L853.05 177H850.053L847.283 167.49H847.169L844.407 177H841.409Z" fill="#1C465C"/>
<path d="M1086.16 175H1082.87L1087.89 160.455H1091.85L1096.87 175H1093.57L1089.93 163.778H1089.81L1086.16 175ZM1085.96 169.283H1093.74V171.683H1085.96V169.283ZM1110.78 160.455V175H1108.13L1101.8 165.845H1101.69V175H1098.62V160.455H1101.32L1107.59 169.602H1107.72V160.455H1110.78ZM1125.49 160.455V175H1122.83L1116.51 165.845H1116.4V175H1113.32V160.455H1116.02L1122.3 169.602H1122.43V160.455H1125.49ZM1141.4 167.727C1141.4 169.313 1141.1 170.663 1140.5 171.776C1139.9 172.888 1139.09 173.738 1138.05 174.325C1137.03 174.908 1135.87 175.199 1134.59 175.199C1133.29 175.199 1132.13 174.905 1131.11 174.318C1130.08 173.731 1129.27 172.881 1128.67 171.768C1128.07 170.656 1127.78 169.309 1127.78 167.727C1127.78 166.141 1128.07 164.792 1128.67 163.679C1129.27 162.566 1130.08 161.719 1131.11 161.136C1132.13 160.549 1133.29 160.256 1134.59 160.256C1135.87 160.256 1137.03 160.549 1138.05 161.136C1139.09 161.719 1139.9 162.566 1140.5 163.679C1141.1 164.792 1141.4 166.141 1141.4 167.727ZM1138.28 167.727C1138.28 166.7 1138.13 165.833 1137.82 165.128C1137.52 164.422 1137.09 163.887 1136.53 163.523C1135.98 163.158 1135.33 162.976 1134.59 162.976C1133.84 162.976 1133.2 163.158 1132.64 163.523C1132.09 163.887 1131.66 164.422 1131.35 165.128C1131.05 165.833 1130.89 166.7 1130.89 167.727C1130.89 168.755 1131.05 169.621 1131.35 170.327C1131.66 171.032 1132.09 171.567 1132.64 171.932C1133.2 172.296 1133.84 172.479 1134.59 172.479C1135.33 172.479 1135.98 172.296 1136.53 171.932C1137.09 171.567 1137.52 171.032 1137.82 170.327C1138.13 169.621 1138.28 168.755 1138.28 167.727ZM1152.66 160.455H1155.74V169.901C1155.74 170.961 1155.48 171.889 1154.98 172.685C1154.47 173.48 1153.77 174.1 1152.87 174.545C1151.96 174.986 1150.91 175.206 1149.71 175.206C1148.5 175.206 1147.44 174.986 1146.54 174.545C1145.63 174.1 1144.93 173.48 1144.43 172.685C1143.93 171.889 1143.68 170.961 1143.68 169.901V160.455H1146.75V169.638C1146.75 170.192 1146.87 170.684 1147.11 171.115C1147.36 171.546 1147.71 171.884 1148.15 172.131C1148.6 172.377 1149.11 172.5 1149.71 172.5C1150.3 172.5 1150.82 172.377 1151.26 172.131C1151.71 171.884 1152.05 171.546 1152.29 171.115C1152.54 170.684 1152.66 170.192 1152.66 169.638V160.455ZM1170.43 160.455V175H1167.78L1161.45 165.845H1161.34V175H1158.27V160.455H1160.97L1167.24 169.602H1167.37V160.455H1170.43ZM1185.81 165.547H1182.7C1182.64 165.144 1182.52 164.787 1182.35 164.474C1182.17 164.157 1181.95 163.887 1181.67 163.665C1181.4 163.442 1181.08 163.272 1180.72 163.153C1180.37 163.035 1179.98 162.976 1179.56 162.976C1178.81 162.976 1178.16 163.163 1177.6 163.537C1177.04 163.906 1176.6 164.446 1176.3 165.156C1175.99 165.862 1175.84 166.719 1175.84 167.727C1175.84 168.764 1175.99 169.635 1176.3 170.341C1176.61 171.046 1177.05 171.579 1177.6 171.939C1178.16 172.299 1178.81 172.479 1179.54 172.479C1179.95 172.479 1180.34 172.424 1180.69 172.315C1181.04 172.206 1181.36 172.048 1181.63 171.839C1181.91 171.626 1182.13 171.368 1182.31 171.065C1182.5 170.762 1182.63 170.417 1182.7 170.028L1185.81 170.043C1185.73 170.71 1185.53 171.354 1185.2 171.974C1184.89 172.59 1184.46 173.142 1183.92 173.629C1183.38 174.112 1182.74 174.496 1182 174.78C1181.26 175.059 1180.43 175.199 1179.49 175.199C1178.2 175.199 1177.04 174.905 1176.01 174.318C1174.99 173.731 1174.19 172.881 1173.6 171.768C1173.01 170.656 1172.72 169.309 1172.72 167.727C1172.72 166.141 1173.02 164.792 1173.61 163.679C1174.21 162.566 1175.02 161.719 1176.04 161.136C1177.06 160.549 1178.21 160.256 1179.49 160.256C1180.34 160.256 1181.12 160.374 1181.84 160.611C1182.56 160.848 1183.2 161.193 1183.76 161.648C1184.32 162.098 1184.77 162.649 1185.13 163.303C1185.48 163.956 1185.71 164.704 1185.81 165.547ZM1188.01 175V160.455H1197.81V162.99H1191.09V166.456H1197.31V168.991H1191.09V172.464H1197.84V175H1188.01ZM1200.26 160.455H1204.05L1208.06 170.227H1208.23L1212.23 160.455H1216.03V175H1213.04V165.533H1212.92L1209.16 174.929H1207.13L1203.36 165.497H1203.24V175H1200.26V160.455ZM1218.56 175V160.455H1228.36V162.99H1221.63V166.456H1227.86V168.991H1221.63V172.464H1228.39V175H1218.56ZM1242.97 160.455V175H1240.32L1233.99 165.845H1233.88V175H1230.81V160.455H1233.5L1239.78 169.602H1239.91V160.455H1242.97ZM1244.96 162.99V160.455H1256.9V162.99H1252.45V175H1249.41V162.99H1244.96Z" fill="#1C465C"/>
<defs>
<filter id="filter0_bd_29_24" x="428.081" y="196.081" width="71.3305" height="64.6997" filterUnits="userSpaceOnUse" color-interpolation-filters="sRGB">
<feFlood flood-opacity="0" result="BackgroundImageFix"/>
<feGaussianBlur in="BackgroundImageFix" stdDeviation="4.76679"/>
<feComposite in2="SourceAlpha" operator="in" result="effect1_backgroundBlur_29_24"/>
<feColorMatrix in="SourceAlpha" type="matrix" values="0 0 0 0 0 0 0 0 0 0 0 0 0 0 0 0 0 0 127 0" result="hardAlpha"/>
<feOffset/>
<feGaussianBlur stdDeviation="5.45957"/>
<feComposite in2="hardAlpha" operator="out"/>
<feColorMatrix type="matrix" values="0 0 0 0 1 0 0 0 0 1 0 0 0 0 1 0 0 0 0.5 0"/>
<feBlend mode="normal" in2="effect1_backgroundBlur_29_24" result="effect2_dropShadow_29_24"/>
<feBlend mode="normal" in="SourceGraphic" in2="effect2_dropShadow_29_24" result="shape"/>
</filter>
<filter id="filter1_bd_29_24" x="761.081" y="196.081" width="71.3305" height="64.6997" filterUnits="userSpaceOnUse" color-interpolation-filters="sRGB">
<feFlood flood-opacity="0" result="BackgroundImageFix"/>
<feGaussianBlur in="BackgroundImageFix" stdDeviation="4.76679"/>
<feComposite in2="SourceAlpha" operator="in" result="effect1_backgroundBlur_29_24"/>
<feColorMatrix in="SourceAlpha" type="matrix" values="0 0 0 0 0 0 0 0 0 0 0 0 0 0 0 0 0 0 127 0" result="hardAlpha"/>
<feOffset/>
<feGaussianBlur stdDeviation="5.45957"/>
<feComposite in2="hardAlpha" operator="out"/>
<feColorMatrix type="matrix" values="0 0 0 0 1 0 0 0 0 1 0 0 0 0 1 0 0 0 0.5 0"/>
<feBlend mode="normal" in2="effect1_backgroundBlur_29_24" result="effect2_dropShadow_29_24"/>
<feBlend mode="normal" in="SourceGraphic" in2="effect2_dropShadow_29_24" result="shape"/>
</filter>
<filter id="filter2_bd_29_24" x="58.0809" y="196.081" width="71.3304" height="64.6997" filterUnits="userSpaceOnUse" color-interpolation-filters="sRGB">
<feFlood flood-opacity="0" result="BackgroundImageFix"/>
<feGaussianBlur in="BackgroundImageFix" stdDeviation="4.76679"/>
<feComposite in2="SourceAlpha" operator="in" result="effect1_backgroundBlur_29_24"/>
<feColorMatrix in="SourceAlpha" type="matrix" values="0 0 0 0 0 0 0 0 0 0 0 0 0 0 0 0 0 0 127 0" result="hardAlpha"/>
<feOffset/>
<feGaussianBlur stdDeviation="5.45957"/>
<feComposite in2="hardAlpha" operator="out"/>
<feColorMatrix type="matrix" values="0 0 0 0 1 0 0 0 0 1 0 0 0 0 1 0 0 0 0.5 0"/>
<feBlend mode="normal" in2="effect1_backgroundBlur_29_24" result="effect2_dropShadow_29_24"/>
<feBlend mode="normal" in="SourceGraphic" in2="effect2_dropShadow_29_24" result="shape"/>
</filter>
<filter id="filter3_bd_29_24" x="1134.08" y="196.081" width="71.3305" height="64.6997" filterUnits="userSpaceOnUse" color-interpolation-filters="sRGB">
<feFlood flood-opacity="0" result="BackgroundImageFix"/>
<feGaussianBlur in="BackgroundImageFix" stdDeviation="4.76679"/>
<feComposite in2="SourceAlpha" operator="in" result="effect1_backgroundBlur_29_24"/>
<feColorMatrix in="SourceAlpha" type="matrix" values="0 0 0 0 0 0 0 0 0 0 0 0 0 0 0 0 0 0 127 0" result="hardAlpha"/>
<feOffset/>
<feGaussianBlur stdDeviation="5.45957"/>
<feComposite in2="hardAlpha" operator="out"/>
<feColorMatrix type="matrix" values="0 0 0 0 1 0 0 0 0 1 0 0 0 0 1 0 0 0 0.5 0"/>
<feBlend mode="normal" in2="effect1_backgroundBlur_29_24" result="effect2_dropShadow_29_24"/>
<feBlend mode="normal" in="SourceGraphic" in2="effect2_dropShadow_29_24" result="shape"/>
</filter>
</defs>
</svg>
