<svg width="40" height="40" viewBox="0 0 40 40" fill="none" xmlns="http://www.w3.org/2000/svg">
<g clip-path="url(#clip0_328_813)">
<path d="M33.3334 6.6665H6.66671C4.83337 6.6665 3.35004 8.1665 3.35004 9.99984L3.33337 29.9998C3.33337 31.8332 4.83337 33.3332 6.66671 33.3332H33.3334C35.1667 33.3332 36.6667 31.8332 36.6667 29.9998V9.99984C36.6667 8.1665 35.1667 6.6665 33.3334 6.6665ZM32.6667 13.7498L20.8834 21.1165C20.35 21.4498 19.65 21.4498 19.1167 21.1165L7.33337 13.7498C6.91671 13.4832 6.66671 13.0332 6.66671 12.5498C6.66671 11.4332 7.88337 10.7665 8.83337 11.3498L20 18.3332L31.1667 11.3498C32.1167 10.7665 33.3334 11.4332 33.3334 12.5498C33.3334 13.0332 33.0834 13.4832 32.6667 13.7498Z" fill="#FAFAFA"/>
</g>
<defs>
<clipPath id="clip0_328_813">
<rect width="40" height="40" fill="white"/>
</clipPath>
</defs>
</svg>
