<svg width="314" height="108" viewBox="0 0 314 108" fill="none" xmlns="http://www.w3.org/2000/svg">
<path fill-rule="evenodd" clip-rule="evenodd" d="M79.9038 37.9259C99.0342 24.2497 126.306 12.2605 156.562 5.47418C214.366 -7.50621 261.178 3.38706 261.106 29.8421C261.104 30.7632 261.045 31.691 260.931 32.6245H261.772H265.736H271.43H277.953H281.917H282.746H292.169H296.152H298.926V32.6428H313.143L309.395 42.7672H295.161H292.386H288.422H278.98H278.151H274.187H267.664H266.583H257.668C256.814 44.4413 255.808 46.1215 254.658 47.8022H264.728H265.629H265.683C267.215 47.8388 268.35 49.102 268.404 50.53L268.729 49.633C269.143 48.5345 270.188 47.8022 271.341 47.8022H285.684H286.387H286.567V47.8205H293.27H307.504L303.757 57.9448H289.522H284.693H282.783H281.9H280.819H269.846C268.476 57.9448 266.746 59.0799 265.99 60.4713C265.233 61.8627 265.737 62.9978 267.107 62.9978H280.819H280.891V62.9795H301.883L298.117 73.1038H279.035H277.125H264.008C262.458 73.1038 261.287 71.8406 261.233 70.3759L260.908 71.273C260.494 72.3715 259.449 73.1038 258.296 73.1038H243.268H242.926H226.491C207.907 84.9372 183.293 95.1293 156.31 101.188C98.5068 114.169 51.6947 103.257 51.7668 76.8388C51.7722 74.2313 52.2341 71.5714 53.1173 68.882L48.6501 71.7491L46.56 73.1039H43.4428H39.767H36.0912H10.4689H3.67596H0.000183105L3.76605 62.9796H7.44182H14.2168H39.8391H40.9022L53.6773 54.7959L58.5062 51.6835L46.8483 42.7492H15.2258H11.2437L15.0096 32.6249H18.9737H51.0646H55.0467L58.2179 35.0599L67.5515 42.2L70.1462 44.1773L73.2274 42.2L79.9038 37.9259ZM89.1765 32.6249H92.1648H122.112H124.274H126.094H128.256H158.239H161.842H162.203C166.888 32.3869 170.401 34.1262 170.942 36.4696C171.05 36.9273 171.122 37.7328 170.599 38.8679L170.437 39.3256L170.077 40.296L168.942 43.3351L168.203 45.294L166.671 49.4317L166.527 49.7978C165.32 52.6173 162.689 57.7435 158.653 58.1646C158.581 58.1646 158.504 58.1692 158.428 58.1737C158.351 58.1783 158.275 58.1829 158.203 58.1829H156.761H155.5L155.86 72.7011H142.418L142.04 57.9266H119.391H110.796H107.679H88.1106L94.6694 62.9979H126.274H127.031L123.265 73.1222H122.526H89.5521H87.1737H86.4349L84.6871 71.7674L75.3535 64.5907L72.1643 62.1557L68.2723 59.1532L63.6055 62.1557L59.8036 64.5907L55.9748 67.048C55.8066 68.0707 55.7183 69.089 55.7129 70.1015C55.6048 93.792 100.777 105.271 156.634 95.7693C182.769 91.315 206.608 83.0573 224.589 73.1038H221.934L225.7 62.9795H240.085C242.206 61.3165 244.163 59.6296 245.941 57.9265H240.944H231.07C229.394 57.9265 228.223 56.2055 228.818 54.6127L230.764 49.3766L231.358 47.8022L231.791 46.6121C231.845 47.3261 232.367 47.8022 233.25 47.8022H254.234C255.231 46.1228 256.038 44.4422 256.644 42.7672H235.97C234.781 42.7672 233.339 43.6093 232.474 44.7444L233.213 42.7672L234.745 38.6479L236.474 33.961C236.781 33.1554 237.537 32.6245 238.384 32.6245H240.943H250.457H254.439H255.015H256.439H257.727C254.104 11.0089 210.462 0.910248 157.049 9.99625C130.957 14.4411 107.147 22.6868 89.1765 32.6249ZM246.021 57.9265C244.287 59.6238 242.419 61.3101 240.427 62.9795H246.692H250.025H250.782C252.152 62.9795 253.881 61.8444 254.638 60.453C255.395 59.0616 254.89 57.9265 253.521 57.9265H250.025H248.908H248.566H248.35H246.908H246.021ZM155.248 45.2757C154.833 46.6671 153.374 47.8022 152.004 47.8022H149.806H147.518H123.139H114.544H111.427H86.0025L93.8585 42.7492H118.364H120.544H122.346H124.508H151.752H153.536C154.905 42.7492 155.662 43.8843 155.248 45.2757ZM184.816 42.7488H209.285H213.249L217.015 32.6245H213.033H188.582H186.708H179.717C179.122 32.6245 177.465 32.7161 175.861 33.8878C174.546 34.8398 173.915 36.0847 173.573 36.8171C172.257 39.6914 167.735 51.7381 161.933 68.2336C161.735 69.1307 161.861 69.7715 161.987 70.156C162.599 71.9867 164.906 73.1951 167.735 73.1035H173.501H173.555H201.988L205.754 62.9792H177.303L184.816 42.7488ZM220.312 32.6245L205.302 73.1035H218.744L233.754 32.6245H220.312ZM9.38833 47.8024H45.4614L41.7135 57.9267H5.62247L9.38833 47.8024Z" fill="#15394A"/>
</svg>
