<svg width="210" height="353" viewBox="0 0 210 353" fill="none" xmlns="http://www.w3.org/2000/svg">
<path d="M-19.5044 293.914L-96.0423 189.602L-43.8984 71.8701L84.7836 58.4504L161.322 162.763L109.178 280.495L-19.5044 293.914Z" fill="#527182"/>
<path d="M-8.88575 277.022L-8.21592 277.935L-7.08952 277.817L102.331 266.388L103.468 266.27L103.93 265.225L148.283 165.085L148.746 164.04L148.07 163.119L83.0014 74.4078L82.3316 73.4946L81.2052 73.6123L-28.2155 85.0413L-29.3521 85.16L-29.8149 86.2048L-74.1672 186.345L-74.63 187.39L-73.9541 188.311L-8.88575 277.022Z" stroke="#F5F5F5" stroke-width="3.94675"/>
<path d="M2.32341 251.82L2.99258 252.731L4.11642 252.614L82.4696 244.512L83.6076 244.394L84.0709 243.348L115.77 171.776L116.234 170.73L115.556 169.809L68.902 106.34L68.2328 105.429L67.109 105.546L-11.2442 113.648L-12.3822 113.766L-12.8455 114.812L-44.5448 186.383L-45.0081 187.43L-44.3305 188.351L2.32341 251.82Z" stroke="#F5F5F5" stroke-width="3.94675"/>
</svg>
