<svg width="40" height="40" viewBox="0 0 40 40" fill="none" xmlns="http://www.w3.org/2000/svg">
<g clip-path="url(#clip0_328_808)">
<path d="M20 3.3335C13.55 3.3335 8.33337 8.55016 8.33337 15.0002C8.33337 21.9502 15.7 31.5335 18.7334 35.1835C19.4 35.9835 20.6167 35.9835 21.2834 35.1835C24.3 31.5335 31.6667 21.9502 31.6667 15.0002C31.6667 8.55016 26.45 3.3335 20 3.3335ZM20 19.1668C17.7 19.1668 15.8334 17.3002 15.8334 15.0002C15.8334 12.7002 17.7 10.8335 20 10.8335C22.3 10.8335 24.1667 12.7002 24.1667 15.0002C24.1667 17.3002 22.3 19.1668 20 19.1668Z" fill="#FAFAFA"/>
</g>
<defs>
<clipPath id="clip0_328_808">
<rect width="40" height="40" fill="white"/>
</clipPath>
</defs>
</svg>
