<svg width="91" height="91" viewBox="0 0 91 91" fill="none" xmlns="http://www.w3.org/2000/svg">
<path d="M55.7839 1.58874L60.2021 36.274L60.2255 36.4578L60.3803 36.5596L89.5869 55.7835L54.9017 60.2017L54.7179 60.2251L54.6161 60.3799L35.3921 89.5865L30.9739 54.9013L30.9505 54.7175L30.7958 54.6157L1.58914 35.3917L36.2744 30.9735L36.4582 30.9501L36.56 30.7954L55.7839 1.58874Z" fill="#0D2734"/>
<path d="M55.7839 1.58874L60.2021 36.274L60.2255 36.4578L60.3803 36.5596L89.5869 55.7835L54.9017 60.2017L54.7179 60.2251L54.6161 60.3799L35.3921 89.5865L30.9739 54.9013L30.9505 54.7175L30.7958 54.6157L1.58914 35.3917L36.2744 30.9735L36.4582 30.9501L36.56 30.7954L55.7839 1.58874Z" fill="url(#paint0_radial_34_64)" fill-opacity="0.65"/>
<path d="M55.7839 1.58874L60.2021 36.274L60.2255 36.4578L60.3803 36.5596L89.5869 55.7835L54.9017 60.2017L54.7179 60.2251L54.6161 60.3799L35.3921 89.5865L30.9739 54.9013L30.9505 54.7175L30.7958 54.6157L1.58914 35.3917L36.2744 30.9735L36.4582 30.9501L36.56 30.7954L55.7839 1.58874Z" stroke="#55457E" stroke-width="0.805662"/>
<defs>
<radialGradient id="paint0_radial_34_64" cx="0" cy="0" r="1" gradientUnits="userSpaceOnUse" gradientTransform="translate(45.588 45.5876) rotate(103.047) scale(46.3256)">
<stop stop-color="#51B1CC"/>
<stop offset="1" stop-opacity="0"/>
</radialGradient>
</defs>
</svg>
