<svg width="410" height="602" viewBox="0 0 410 602" fill="none" xmlns="http://www.w3.org/2000/svg">
<path d="M106.509 9.53023V2.38256H137.292V9.53023H126.249V38.7966H117.57V9.53023H106.509Z" fill="#55457E"/>
<path d="M141.591 38.7966V11.4861H150.287V38.7966H141.591ZM145.948 8.30339C144.727 8.30339 143.677 7.90037 142.8 7.09433C141.923 6.27644 141.484 5.2926 141.484 4.14281C141.484 3.00487 141.923 2.03288 142.8 1.22684C143.677 0.408947 144.727 0 145.948 0C147.181 0 148.23 0.408947 149.095 1.22684C149.973 2.03288 150.411 3.00487 150.411 4.14281C150.411 5.2926 149.973 6.27644 149.095 7.09433C148.23 7.90037 147.181 8.30339 145.948 8.30339Z" fill="#55457E"/>
<path d="M155.822 38.7966V11.4861H164.091V16.5001H164.393C164.962 14.8406 165.923 13.5308 167.274 12.5707C168.626 11.6105 170.238 11.1305 172.111 11.1305C174.008 11.1305 175.632 11.6165 176.984 12.5884C178.335 13.5604 179.195 14.8643 179.562 16.5001H179.847C180.357 14.8762 181.352 13.5782 182.834 12.6062C184.316 11.6224 186.065 11.1305 188.08 11.1305C190.665 11.1305 192.763 11.9602 194.376 13.6197C195.988 15.2673 196.794 17.5314 196.794 20.4118V38.7966H188.098V22.4032C188.098 21.04 187.748 20.0028 187.049 19.2916C186.349 18.5685 185.442 18.207 184.328 18.207C183.131 18.207 182.188 18.5982 181.501 19.3805C180.825 20.151 180.487 21.1882 180.487 22.4921V38.7966H172.129V22.3143C172.129 21.0459 171.785 20.0443 171.097 19.3094C170.41 18.5745 169.503 18.207 168.377 18.207C167.618 18.207 166.948 18.3907 166.367 18.7582C165.786 19.1138 165.33 19.6235 164.998 20.2873C164.678 20.9511 164.518 21.7334 164.518 22.6343V38.7966H155.822Z" fill="#55457E"/>
<path d="M214.951 39.3122C212.093 39.3122 209.627 38.7492 207.553 37.6231C205.49 36.4851 203.901 34.8671 202.787 32.7691C201.684 30.6591 201.133 28.1521 201.133 25.248C201.133 22.4269 201.69 19.9613 202.805 17.8514C203.919 15.7296 205.49 14.082 207.517 12.9085C209.544 11.7231 211.933 11.1305 214.684 11.1305C216.628 11.1305 218.406 11.4327 220.019 12.0373C221.631 12.6418 223.024 13.5367 224.198 14.7221C225.371 15.9074 226.284 17.3713 226.936 19.1138C227.588 20.8444 227.914 22.8299 227.914 25.0702V27.2394H204.174V22.1898H219.823C219.811 21.2652 219.592 20.4414 219.165 19.7183C218.738 18.9953 218.151 18.4322 217.405 18.0292C216.67 17.6143 215.822 17.4069 214.862 17.4069C213.889 17.4069 213.018 17.6262 212.247 18.0648C211.477 18.4915 210.866 19.0782 210.416 19.825C209.965 20.5599 209.728 21.3956 209.705 22.332V27.4705C209.705 28.5848 209.924 29.5627 210.362 30.4043C210.801 31.234 211.424 31.88 212.23 32.3423C213.036 32.8046 213.996 33.0358 215.111 33.0358C215.881 33.0358 216.581 32.9291 217.209 32.7157C217.837 32.5024 218.377 32.1882 218.827 31.7734C219.278 31.3585 219.616 30.8488 219.841 30.2443L227.825 30.4754C227.493 32.2653 226.764 33.824 225.638 35.1516C224.524 36.4674 223.06 37.4927 221.246 38.2276C219.432 38.9507 217.333 39.3122 214.951 39.3122Z" fill="#55457E"/>
<path d="M241.052 2.38256V38.7966H232.356V2.38256H241.052Z" fill="#55457E"/>
<path d="M246.587 38.7966V11.4861H255.282V38.7966H246.587ZM250.943 8.30339C249.722 8.30339 248.673 7.90037 247.796 7.09433C246.919 6.27644 246.48 5.2926 246.48 4.14281C246.48 3.00487 246.919 2.03288 247.796 1.22684C248.673 0.408947 249.722 0 250.943 0C252.176 0 253.226 0.408947 254.091 1.22684C254.968 2.03288 255.407 3.00487 255.407 4.14281C255.407 5.2926 254.968 6.27644 254.091 7.09433C253.226 7.90037 252.176 8.30339 250.943 8.30339Z" fill="#55457E"/>
<path d="M269.513 23.221V38.7966H260.817V11.4861H269.087V16.5001H269.389C269.994 14.8288 271.025 13.5189 272.483 12.5707C273.941 11.6105 275.678 11.1305 277.694 11.1305C279.614 11.1305 281.28 11.5631 282.691 12.4284C284.113 13.2819 285.216 14.4791 285.998 16.02C286.793 17.5491 287.184 19.339 287.172 21.3897V38.7966H278.476V23.0966C278.488 21.5793 278.103 20.394 277.32 19.5405C276.55 18.6871 275.477 18.2604 274.101 18.2604C273.189 18.2604 272.382 18.4619 271.683 18.8649C270.995 19.256 270.462 19.8191 270.082 20.554C269.715 21.2889 269.525 22.1779 269.513 23.221Z" fill="#55457E"/>
<path d="M305.324 39.3122C302.467 39.3122 300.001 38.7492 297.926 37.6231C295.863 36.4851 294.275 34.8671 293.16 32.7691C292.058 30.6591 291.507 28.1521 291.507 25.248C291.507 22.4269 292.064 19.9613 293.178 17.8514C294.293 15.7296 295.863 14.082 297.891 12.9085C299.918 11.7231 302.307 11.1305 305.057 11.1305C307.002 11.1305 308.78 11.4327 310.392 12.0373C312.005 12.6418 313.398 13.5367 314.571 14.7221C315.745 15.9074 316.658 17.3713 317.31 19.1138C317.962 20.8444 318.288 22.8299 318.288 25.0702V27.2394H294.547V22.1898H310.197C310.185 21.2652 309.965 20.4414 309.539 19.7183C309.112 18.9953 308.525 18.4322 307.778 18.0292C307.043 17.6143 306.195 17.4069 305.235 17.4069C304.263 17.4069 303.392 17.6262 302.621 18.0648C301.85 18.4915 301.24 19.0782 300.789 19.825C300.339 20.5599 300.102 21.3956 300.078 22.332V27.4705C300.078 28.5848 300.297 29.5627 300.736 30.4043C301.175 31.234 301.797 31.88 302.603 32.3423C303.409 32.8046 304.37 33.0358 305.484 33.0358C306.255 33.0358 306.954 32.9291 307.582 32.7157C308.211 32.5024 308.75 32.1882 309.201 31.7734C309.651 31.3585 309.989 30.8488 310.214 30.2443L318.199 30.4754C317.867 32.2653 317.138 33.824 316.012 35.1516C314.897 36.4674 313.433 37.4927 311.619 38.2276C309.805 38.9507 307.707 39.3122 305.324 39.3122Z" fill="#55457E"/>
<path d="M213.126 569.531V120.112H217.133V569.531H213.126Z" fill="#15394A"/>
<path d="M198.034 104.506L207.066 88.8658H225.128L234.159 104.506L225.128 120.145H207.066L198.034 104.506Z" fill="#15394A"/>
<path d="M198.034 262.646L207.066 247.006H225.128L234.159 262.646L225.128 278.285H207.066L198.034 262.646Z" fill="#15394A"/>
<path d="M198.034 420.786L207.066 405.146H225.128L234.159 420.786L225.128 436.425H207.066L198.034 420.786Z" fill="#15394A"/>
<path d="M198.034 578.926L207.066 563.286H225.128L234.159 578.926L225.128 594.565H207.066L198.034 578.926Z" fill="#15394A"/>
<path d="M26.8746 240.743H21.7104V226.177H26.9173C28.3827 226.177 29.6441 226.469 30.7016 227.052C31.7591 227.63 32.5723 228.462 33.1414 229.548C33.7152 230.634 34.0021 231.933 34.0021 233.446C34.0021 234.963 33.7152 236.267 33.1414 237.357C32.5723 238.448 31.7543 239.285 30.6873 239.868C29.6251 240.451 28.3542 240.743 26.8746 240.743ZM24.7905 238.104H26.7466C27.6571 238.104 28.423 237.943 29.0442 237.62C29.6701 237.293 30.1396 236.788 30.4526 236.106C30.7703 235.418 30.9292 234.531 30.9292 233.446C30.9292 232.369 30.7703 231.49 30.4526 230.807C30.1396 230.124 29.6725 229.622 29.0513 229.299C28.4301 228.977 27.6642 228.816 26.7537 228.816H24.7905V238.104Z" fill="#1C465C"/>
<path d="M49.6708 233.46C49.6708 235.048 49.3696 236.4 48.7674 237.514C48.1699 238.628 47.3542 239.479 46.3204 240.067C45.2914 240.65 44.1343 240.942 42.8492 240.942C41.5546 240.942 40.3927 240.648 39.3637 240.06C38.3346 239.472 37.5214 238.621 36.9239 237.507C36.3263 236.392 36.0276 235.043 36.0276 233.46C36.0276 231.871 36.3263 230.52 36.9239 229.406C37.5214 228.292 38.3346 227.443 39.3637 226.86C40.3927 226.272 41.5546 225.978 42.8492 225.978C44.1343 225.978 45.2914 226.272 46.3204 226.86C47.3542 227.443 48.1699 228.292 48.7674 229.406C49.3696 230.52 49.6708 231.871 49.6708 233.46ZM46.548 233.46C46.548 232.431 46.3939 231.563 46.0857 230.857C45.7822 230.15 45.353 229.615 44.7982 229.249C44.2434 228.884 43.5937 228.702 42.8492 228.702C42.1047 228.702 41.455 228.884 40.9001 229.249C40.3453 229.615 39.9138 230.15 39.6055 230.857C39.302 231.563 39.1503 232.431 39.1503 233.46C39.1503 234.489 39.302 235.356 39.6055 236.063C39.9138 236.769 40.3453 237.305 40.9001 237.67C41.455 238.035 42.1047 238.218 42.8492 238.218C43.5937 238.218 44.2434 238.035 44.7982 237.67C45.353 237.305 45.7822 236.769 46.0857 236.063C46.3939 235.356 46.548 234.489 46.548 233.46Z" fill="#1C465C"/>
<path d="M64.8059 231.276H61.6903C61.6334 230.873 61.5172 230.515 61.3418 230.202C61.1663 229.885 60.9411 229.615 60.666 229.392C60.391 229.169 60.0732 228.998 59.7128 228.88C59.3572 228.761 58.9707 228.702 58.5534 228.702C57.7994 228.702 57.1426 228.889 56.583 229.264C56.0235 229.634 55.5896 230.174 55.2813 230.885C54.9731 231.592 54.819 232.45 54.819 233.46C54.819 234.498 54.9731 235.371 55.2813 236.077C55.5943 236.784 56.0306 237.317 56.5901 237.677C57.1497 238.038 57.797 238.218 58.5321 238.218C58.9446 238.218 59.3264 238.163 59.6773 238.054C60.0329 237.945 60.3483 237.786 60.6233 237.578C60.8984 237.364 61.126 237.106 61.3062 236.803C61.4912 236.499 61.6192 236.153 61.6903 235.764L64.8059 235.778C64.7253 236.447 64.5238 237.092 64.2013 237.713C63.8836 238.329 63.4544 238.882 62.9138 239.37C62.3779 239.854 61.7377 240.238 60.9932 240.522C60.2535 240.802 59.4165 240.942 58.4823 240.942C57.1829 240.942 56.0211 240.648 54.9968 240.06C53.9772 239.472 53.1711 238.621 52.5783 237.507C51.9903 236.392 51.6962 235.043 51.6962 233.46C51.6962 231.871 51.995 230.52 52.5925 229.406C53.19 228.292 54.0009 227.443 55.0252 226.86C56.0495 226.272 57.2019 225.978 58.4823 225.978C59.3264 225.978 60.1088 226.096 60.8296 226.333C61.5552 226.571 62.1977 226.917 62.7573 227.372C63.3169 227.822 63.7721 228.375 64.123 229.029C64.4787 229.683 64.7063 230.432 64.8059 231.276Z" fill="#1C465C"/>
<path d="M76.0128 226.177H79.0928V235.636C79.0928 236.698 78.8391 237.628 78.3317 238.424C77.829 239.221 77.1248 239.842 76.2191 240.287C75.3133 240.728 74.2582 240.949 73.0537 240.949C71.8444 240.949 70.787 240.728 69.8812 240.287C68.9755 239.842 68.2712 239.221 67.7686 238.424C67.2659 237.628 67.0146 236.698 67.0146 235.636V226.177H70.0946V235.373C70.0946 235.928 70.2155 236.421 70.4574 236.852C70.704 237.284 71.0501 237.623 71.4959 237.869C71.9417 238.116 72.4609 238.239 73.0537 238.239C73.6512 238.239 74.1705 238.116 74.6115 237.869C75.0573 237.623 75.4011 237.284 75.6429 236.852C75.8895 236.421 76.0128 235.928 76.0128 235.373V226.177Z" fill="#1C465C"/>
<path d="M81.6269 226.177H85.4254L89.4372 235.963H89.6079L93.6198 226.177H97.4183V240.743H94.4307V231.262H94.3098L90.5398 240.672H88.5054L84.7354 231.227H84.6145V240.743H81.6269V226.177Z" fill="#1C465C"/>
<path d="M99.9559 240.743V226.177H109.772V228.716H103.036V232.187H109.267V234.726H103.036V238.204H109.801V240.743H99.9559Z" fill="#1C465C"/>
<path d="M124.406 226.177V240.743H121.745L115.408 231.575H115.301V240.743H112.221V226.177H114.924L121.212 235.337H121.34V226.177H124.406Z" fill="#1C465C"/>
<path d="M126.396 228.716V226.177H138.36V228.716H133.9V240.743H130.856V228.716H126.396Z" fill="#1C465C"/>
<path d="M30.8358 255.401C30.7789 254.827 30.5347 254.381 30.1032 254.064C29.6716 253.746 29.086 253.587 28.3462 253.587C27.8435 253.587 27.4191 253.658 27.0729 253.8C26.7268 253.938 26.4612 254.13 26.2762 254.377C26.096 254.623 26.0059 254.903 26.0059 255.216C25.9965 255.477 26.051 255.704 26.1696 255.899C26.2928 256.093 26.4612 256.261 26.6746 256.403C26.888 256.541 27.1346 256.662 27.4144 256.766C27.6942 256.866 27.9929 256.951 28.3106 257.022L29.6195 257.335C30.2549 257.477 30.8382 257.667 31.3693 257.904C31.9004 258.141 32.3604 258.433 32.7493 258.779C33.1381 259.125 33.4393 259.533 33.6527 260.002C33.8708 260.472 33.9822 261.01 33.987 261.617C33.9822 262.508 33.7546 263.281 33.3041 263.935C32.8584 264.585 32.2134 265.09 31.3693 265.45C30.53 265.806 29.5175 265.984 28.332 265.984C27.1559 265.984 26.1316 265.803 25.2591 265.443C24.3912 265.083 23.7131 264.549 23.2247 263.843C22.741 263.132 22.4873 262.252 22.4636 261.204H25.444C25.4772 261.693 25.6171 262.1 25.8637 262.427C26.115 262.75 26.4493 262.994 26.8666 263.16C27.2887 263.321 27.7653 263.402 28.2964 263.402C28.818 263.402 29.2709 263.326 29.655 263.174C30.0439 263.023 30.345 262.812 30.5584 262.541C30.7718 262.271 30.8785 261.96 30.8785 261.61C30.8785 261.282 30.7813 261.007 30.5869 260.785C30.3972 260.562 30.1174 260.372 29.7475 260.216C29.3824 260.059 28.9342 259.917 28.4031 259.789L26.8169 259.391C25.5886 259.092 24.6189 258.625 23.9075 257.99C23.1962 257.354 22.8429 256.498 22.8477 255.422C22.8429 254.54 23.0777 253.77 23.5519 253.111C24.0308 252.452 24.6876 251.937 25.5222 251.567C26.3569 251.197 27.3053 251.013 28.3675 251.013C29.4487 251.013 30.3924 251.197 31.1986 251.567C32.0095 251.937 32.6402 252.452 33.0907 253.111C33.5412 253.77 33.7736 254.533 33.7878 255.401H30.8358Z" fill="#1C465C"/>
<path d="M48.9123 256.311H45.7967C45.7398 255.908 45.6236 255.55 45.4482 255.237C45.2727 254.919 45.0475 254.649 44.7724 254.426C44.4974 254.204 44.1796 254.033 43.8192 253.914C43.4636 253.796 43.0771 253.736 42.6598 253.736C41.9058 253.736 41.249 253.924 40.6894 254.298C40.1298 254.668 39.6959 255.209 39.3877 255.92C39.0795 256.626 38.9253 257.485 38.9253 258.494C38.9253 259.533 39.0795 260.405 39.3877 261.112C39.7007 261.818 40.137 262.352 40.6965 262.712C41.2561 263.072 41.9034 263.252 42.6384 263.252C43.051 263.252 43.4328 263.198 43.7837 263.089C44.1393 262.98 44.4547 262.821 44.7297 262.612C45.0048 262.399 45.2324 262.141 45.4126 261.837C45.5975 261.534 45.7256 261.188 45.7967 260.799L48.9123 260.813C48.8317 261.482 48.6301 262.126 48.3077 262.748C47.99 263.364 47.5608 263.916 47.0202 264.405C46.4843 264.888 45.8441 265.272 45.0996 265.557C44.3598 265.837 43.5229 265.976 42.5886 265.976C41.2893 265.976 40.1275 265.682 39.1032 265.095C38.0836 264.507 37.2774 263.655 36.6847 262.541C36.0966 261.427 35.8026 260.078 35.8026 258.494C35.8026 256.906 36.1014 255.555 36.6989 254.441C37.2964 253.326 38.1073 252.478 39.1316 251.894C40.1559 251.306 41.3083 251.013 42.5886 251.013C43.4328 251.013 44.2152 251.131 44.936 251.368C45.6616 251.605 46.3041 251.951 46.8637 252.406C47.4233 252.857 47.8785 253.409 48.2294 254.064C48.5851 254.718 48.8127 255.467 48.9123 256.311Z" fill="#1C465C"/>
<path d="M51.121 265.777V251.212H56.8684C57.9686 251.212 58.9076 251.408 59.6853 251.802C60.4677 252.191 61.0629 252.743 61.4707 253.459C61.8833 254.17 62.0896 255.007 62.0896 255.97C62.0896 256.937 61.8809 257.769 61.4636 258.466C61.0463 259.158 60.4417 259.689 59.6497 260.059C58.8625 260.429 57.9094 260.614 56.7902 260.614H52.9419V258.139H56.2923C56.8803 258.139 57.3687 258.058 57.7576 257.897C58.1465 257.736 58.4357 257.494 58.6254 257.172C58.8198 256.849 58.9171 256.449 58.9171 255.97C58.9171 255.486 58.8198 255.078 58.6254 254.746C58.4357 254.414 58.1441 254.163 57.7505 253.993C57.3616 253.817 56.8708 253.729 56.278 253.729H54.201V265.777H51.121ZM58.9882 259.149L62.6088 265.777H59.2087L55.6663 259.149H58.9882Z" fill="#1C465C"/>
<path d="M64.2662 265.777V251.212H74.0825V253.751H67.3462V257.221H73.5774V259.76H67.3462V263.238H74.1109V265.777H64.2662Z" fill="#1C465C"/>
<path d="M76.5312 265.777V251.212H86.3474V253.751H79.6112V257.221H85.8424V259.76H79.6112V263.238H86.3759V265.777H76.5312Z" fill="#1C465C"/>
<path d="M100.981 251.212V265.777H98.3208L91.9829 256.61H91.8762V265.777H88.7962V251.212H91.4992L97.7873 260.372H97.9153V251.212H100.981Z" fill="#1C465C"/>
<path d="M106.606 251.212V265.777H103.526V251.212H106.606Z" fill="#1C465C"/>
<path d="M121.325 251.212V265.777H118.665L112.327 256.61H112.22V265.777H109.14V251.212H111.843L118.131 260.372H118.259V251.212H121.325Z" fill="#1C465C"/>
<path d="M133.529 255.92C133.43 255.574 133.29 255.268 133.11 255.002C132.93 254.732 132.709 254.505 132.448 254.32C132.192 254.13 131.898 253.985 131.566 253.886C131.239 253.786 130.876 253.736 130.478 253.736C129.733 253.736 129.079 253.921 128.515 254.291C127.955 254.661 127.519 255.199 127.206 255.906C126.893 256.607 126.736 257.466 126.736 258.48C126.736 259.495 126.89 260.358 127.199 261.069C127.507 261.78 127.943 262.323 128.508 262.698C129.072 263.068 129.738 263.252 130.506 263.252C131.203 263.252 131.799 263.129 132.292 262.883C132.79 262.631 133.169 262.278 133.43 261.823C133.695 261.368 133.828 260.83 133.828 260.208L134.454 260.301H130.698V257.982H136.794V259.817C136.794 261.097 136.524 262.198 135.983 263.117C135.443 264.032 134.698 264.739 133.75 265.237C132.802 265.73 131.716 265.976 130.492 265.976C129.126 265.976 127.927 265.675 126.893 265.073C125.859 264.466 125.053 263.606 124.474 262.491C123.901 261.373 123.614 260.045 123.614 258.509C123.614 257.328 123.784 256.275 124.126 255.351C124.472 254.422 124.956 253.635 125.577 252.99C126.198 252.345 126.921 251.854 127.746 251.517C128.572 251.181 129.465 251.013 130.428 251.013C131.253 251.013 132.021 251.133 132.733 251.375C133.444 251.612 134.075 251.949 134.625 252.385C135.18 252.821 135.633 253.341 135.983 253.943C136.334 254.54 136.56 255.199 136.659 255.92H133.529Z" fill="#1C465C"/>
<path d="M20.334 282.922V297.488H17.254V285.845H17.1687L13.8326 287.936V285.205L17.439 282.922H20.334Z" fill="#645B87"/>
<path d="M35.2683 289.003V291.407H28.6245V289.003H35.2683Z" fill="#645B87"/>
<path d="M42.4579 297.488V295.269L47.6435 290.468C48.0845 290.041 48.4544 289.657 48.7531 289.316C49.0566 288.975 49.2866 288.64 49.4431 288.313C49.5996 287.981 49.6779 287.623 49.6779 287.239C49.6779 286.813 49.5807 286.445 49.3862 286.137C49.1918 285.824 48.9262 285.585 48.5895 285.419C48.2529 285.248 47.8711 285.163 47.4443 285.163C46.9986 285.163 46.6097 285.253 46.2777 285.433C45.9458 285.613 45.6897 285.871 45.5095 286.208C45.3293 286.545 45.2392 286.945 45.2392 287.41H42.3157C42.3157 286.457 42.5314 285.63 42.963 284.928C43.3945 284.226 43.9991 283.683 44.7769 283.299C45.5546 282.915 46.4508 282.723 47.4657 282.723C48.5089 282.723 49.417 282.908 50.19 283.278C50.9677 283.643 51.5724 284.15 52.0039 284.8C52.4354 285.449 52.6512 286.194 52.6512 287.033C52.6512 287.583 52.5421 288.126 52.324 288.662C52.1106 289.197 51.7288 289.793 51.1788 290.447C50.6287 291.096 49.8533 291.876 48.8527 292.787L46.7259 294.871V294.97H52.8433V297.488H42.4579Z" fill="#645B87"/>
<path d="M59.7964 297.488V282.922H69.442V285.461H62.8765V288.932H68.8018V291.471H62.8765V297.488H59.7964Z" fill="#645B87"/>
<path d="M75.634 297.701C74.5101 297.701 73.5427 297.474 72.7318 297.018C71.9257 296.558 71.3044 295.909 70.8682 295.07C70.4319 294.226 70.2137 293.228 70.2137 292.075C70.2137 290.952 70.4319 289.966 70.8682 289.117C71.3044 288.268 71.9185 287.607 72.7105 287.133C73.5072 286.658 74.4414 286.421 75.5131 286.421C76.2339 286.421 76.9049 286.538 77.5261 286.77C78.1521 286.997 78.6974 287.341 79.1622 287.801C79.6317 288.261 79.9968 288.839 80.2576 289.536C80.5184 290.229 80.6488 291.039 80.6488 291.969V292.801H71.423V290.923H77.7964C77.7964 290.487 77.7016 290.101 77.5119 289.764C77.3222 289.427 77.059 289.164 76.7223 288.975C76.3904 288.78 76.0039 288.683 75.5629 288.683C75.1029 288.683 74.6951 288.79 74.3394 289.003C73.9885 289.212 73.7135 289.494 73.5143 289.849C73.3151 290.2 73.2132 290.591 73.2084 291.023V292.808C73.2084 293.349 73.308 293.816 73.5072 294.209C73.7111 294.603 73.998 294.906 74.3679 295.119C74.7378 295.333 75.1764 295.44 75.6838 295.44C76.0205 295.44 76.3287 295.392 76.6085 295.297C76.8883 295.202 77.1278 295.06 77.327 294.871C77.5261 294.681 77.6779 294.449 77.7822 294.174L80.5848 294.358C80.4426 295.032 80.1509 295.62 79.7099 296.122C79.2736 296.62 78.7093 297.009 78.0169 297.289C77.3293 297.564 76.535 297.701 75.634 297.701Z" fill="#645B87"/>
<path d="M82.6832 297.488V282.922H85.7135V288.399H85.8059C85.9387 288.105 86.1308 287.806 86.3821 287.502C86.6382 287.194 86.9701 286.938 87.378 286.734C87.7905 286.526 88.3027 286.421 88.9144 286.421C89.7111 286.421 90.4461 286.63 91.1195 287.047C91.7929 287.46 92.3311 288.083 92.7342 288.918C93.1373 289.747 93.3388 290.788 93.3388 292.04C93.3388 293.258 93.142 294.287 92.7484 295.127C92.3596 295.961 91.8285 296.594 91.1551 297.026C90.4864 297.452 89.7372 297.666 88.9073 297.666C88.3193 297.666 87.819 297.568 87.4064 297.374C86.9986 297.18 86.6643 296.935 86.4034 296.641C86.1426 296.343 85.9435 296.042 85.8059 295.738H85.6708V297.488H82.6832ZM85.6494 292.026C85.6494 292.675 85.7395 293.242 85.9197 293.726C86.0999 294.209 86.3608 294.586 86.7022 294.856C87.0436 295.122 87.4586 295.255 87.947 295.255C88.4402 295.255 88.8575 295.119 89.1989 294.849C89.5404 294.574 89.7988 294.195 89.9743 293.711C90.1545 293.223 90.2446 292.661 90.2446 292.026C90.2446 291.395 90.1569 290.84 89.9814 290.361C89.8059 289.883 89.5475 289.508 89.206 289.238C88.8646 288.967 88.4449 288.832 87.947 288.832C87.4538 288.832 87.0365 288.963 86.6951 289.224C86.3584 289.484 86.0999 289.854 85.9197 290.333C85.7395 290.812 85.6494 291.376 85.6494 292.026Z" fill="#645B87"/>
<path d="M95.3608 297.488V286.564H98.2985V288.47H98.4123C98.6115 287.792 98.9458 287.28 99.4153 286.933C99.8848 286.583 100.425 286.407 101.037 286.407C101.189 286.407 101.352 286.417 101.528 286.436C101.703 286.455 101.858 286.481 101.99 286.514V289.202C101.848 289.16 101.651 289.122 101.4 289.088C101.149 289.055 100.919 289.039 100.71 289.039C100.264 289.039 99.8658 289.136 99.5149 289.33C99.1687 289.52 98.8937 289.785 98.6898 290.127C98.4906 290.468 98.391 290.862 98.391 291.307V297.488H95.3608Z" fill="#645B87"/>
<path d="M110.564 292.836V286.564H113.594V297.488H110.684V295.504H110.571C110.324 296.144 109.914 296.658 109.34 297.047C108.771 297.436 108.076 297.63 107.256 297.63C106.526 297.63 105.883 297.464 105.328 297.132C104.773 296.8 104.339 296.329 104.026 295.717C103.718 295.105 103.562 294.373 103.557 293.519V286.564H106.587V292.979C106.592 293.624 106.765 294.133 107.106 294.508C107.448 294.882 107.906 295.07 108.479 295.07C108.844 295.07 109.186 294.987 109.504 294.821C109.821 294.65 110.077 294.399 110.272 294.067C110.471 293.735 110.568 293.325 110.564 292.836Z" fill="#645B87"/>
<path d="M119.133 297.694C118.436 297.694 117.815 297.573 117.269 297.331C116.724 297.085 116.293 296.722 115.975 296.243C115.662 295.76 115.505 295.157 115.505 294.437C115.505 293.83 115.617 293.32 115.84 292.908C116.063 292.495 116.366 292.163 116.75 291.912C117.134 291.661 117.571 291.471 118.059 291.343C118.552 291.215 119.069 291.125 119.61 291.073C120.245 291.006 120.757 290.945 121.146 290.888C121.535 290.826 121.817 290.736 121.993 290.618C122.168 290.499 122.256 290.324 122.256 290.091V290.049C122.256 289.598 122.114 289.25 121.829 289.003C121.549 288.756 121.151 288.633 120.634 288.633C120.089 288.633 119.655 288.754 119.332 288.996C119.01 289.233 118.796 289.532 118.692 289.892L115.89 289.664C116.032 289.001 116.312 288.427 116.729 287.943C117.146 287.455 117.684 287.08 118.344 286.82C119.008 286.554 119.776 286.421 120.648 286.421C121.255 286.421 121.836 286.492 122.391 286.635C122.951 286.777 123.446 286.997 123.878 287.296C124.314 287.595 124.658 287.979 124.909 288.448C125.16 288.913 125.286 289.47 125.286 290.12V297.488H122.412V295.973H122.327C122.152 296.314 121.917 296.615 121.623 296.876C121.329 297.132 120.975 297.334 120.563 297.481C120.15 297.623 119.674 297.694 119.133 297.694ZM120.001 295.603C120.447 295.603 120.84 295.515 121.182 295.34C121.523 295.16 121.791 294.918 121.986 294.615C122.18 294.311 122.277 293.967 122.277 293.583V292.424C122.182 292.486 122.052 292.543 121.886 292.595C121.725 292.642 121.542 292.687 121.338 292.73C121.134 292.768 120.93 292.803 120.727 292.836C120.523 292.865 120.338 292.891 120.172 292.915C119.816 292.967 119.505 293.05 119.24 293.164C118.974 293.277 118.768 293.432 118.621 293.626C118.474 293.816 118.401 294.053 118.401 294.337C118.401 294.75 118.55 295.065 118.849 295.283C119.152 295.496 119.536 295.603 120.001 295.603Z" fill="#645B87"/>
<path d="M127.637 297.488V286.564H130.575V288.47H130.689C130.888 287.792 131.222 287.28 131.692 286.933C132.161 286.583 132.702 286.407 133.313 286.407C133.465 286.407 133.629 286.417 133.804 286.436C133.98 286.455 134.134 286.481 134.267 286.514V289.202C134.124 289.16 133.927 289.122 133.676 289.088C133.425 289.055 133.195 289.039 132.986 289.039C132.54 289.039 132.142 289.136 131.791 289.33C131.445 289.52 131.17 289.785 130.966 290.127C130.767 290.468 130.667 290.862 130.667 291.307V297.488H127.637Z" fill="#645B87"/>
<path d="M138.037 301.584C137.652 301.584 137.292 301.554 136.955 301.492C136.623 301.435 136.348 301.362 136.13 301.271L136.813 299.01C137.169 299.119 137.489 299.178 137.773 299.188C138.063 299.197 138.312 299.131 138.52 298.988C138.734 298.846 138.907 298.604 139.04 298.263L139.217 297.801L135.298 286.564H138.485L140.747 294.586H140.861L143.144 286.564H146.352L142.105 298.668C141.901 299.256 141.624 299.768 141.273 300.205C140.927 300.646 140.488 300.985 139.957 301.222C139.426 301.463 138.786 301.584 138.037 301.584Z" fill="#645B87"/>
<path d="M260.946 98.8797V84.3141H266.693C267.794 84.3141 268.733 84.5109 269.51 84.9044C270.293 85.2932 270.888 85.8456 271.296 86.5615C271.708 87.2727 271.915 88.1096 271.915 89.0721C271.915 90.0393 271.706 90.8715 271.289 91.5685C270.871 92.2607 270.267 92.7917 269.475 93.1616C268.688 93.5314 267.734 93.7163 266.615 93.7163H262.767V91.2413H266.117C266.705 91.2413 267.194 91.1607 267.583 90.9995C267.971 90.8383 268.261 90.5965 268.45 90.274C268.645 89.9516 268.742 89.551 268.742 89.0721C268.742 88.5885 268.645 88.1807 268.45 87.8488C268.261 87.5169 267.969 87.2656 267.575 87.0949C267.187 86.9195 266.696 86.8318 266.103 86.8318H264.026V98.8797H260.946ZM268.813 92.2512L272.434 98.8797H269.034L265.491 92.2512H268.813Z" fill="#1C465C"/>
<path d="M274.091 98.8797V84.3141H283.907V86.8531H277.171V90.3238H283.402V92.8629H277.171V96.3407H283.936V98.8797H274.091Z" fill="#1C465C"/>
<path d="M299.21 89.4135H296.094C296.037 89.0105 295.921 88.6525 295.746 88.3395C295.57 88.0219 295.345 87.7516 295.07 87.5288C294.795 87.3059 294.477 87.1352 294.117 87.0167C293.761 86.8982 293.375 86.8389 292.957 86.8389C292.203 86.8389 291.546 87.0262 290.987 87.4007C290.427 87.7706 289.993 88.3111 289.685 89.0223C289.377 89.7288 289.223 90.587 289.223 91.5969C289.223 92.6353 289.377 93.5077 289.685 94.2142C289.998 94.9206 290.434 95.454 290.994 95.8144C291.554 96.1747 292.201 96.3549 292.936 96.3549C293.348 96.3549 293.73 96.3004 294.081 96.1913C294.437 96.0823 294.752 95.9234 295.027 95.7148C295.302 95.5014 295.53 95.243 295.71 94.9396C295.895 94.6361 296.023 94.29 296.094 93.9012L299.21 93.9154C299.129 94.584 298.928 95.2288 298.605 95.8499C298.287 96.4663 297.858 97.0187 297.318 97.5071C296.782 97.9907 296.142 98.3747 295.397 98.6592C294.657 98.939 293.82 99.0788 292.886 99.0788C291.587 99.0788 290.425 98.7849 289.401 98.1969C288.381 97.609 287.575 96.7579 286.982 95.6437C286.394 94.5295 286.1 93.1805 286.1 91.5969C286.1 90.0085 286.399 88.6572 286.996 87.543C287.594 86.4288 288.405 85.5801 289.429 84.9969C290.453 84.4089 291.606 84.115 292.886 84.115C293.73 84.115 294.513 84.2335 295.233 84.4706C295.959 84.7076 296.602 85.0538 297.161 85.5089C297.721 85.9594 298.176 86.5117 298.527 87.166C298.883 87.8204 299.11 88.5695 299.21 89.4135Z" fill="#1C465C"/>
<path d="M301.418 98.8797V84.3141H307.166C308.266 84.3141 309.205 84.5109 309.983 84.9044C310.765 85.2932 311.36 85.8456 311.768 86.5615C312.181 87.2727 312.387 88.1096 312.387 89.0721C312.387 90.0393 312.178 90.8715 311.761 91.5685C311.344 92.2607 310.739 92.7917 309.947 93.1616C309.16 93.5314 308.207 93.7163 307.088 93.7163H303.239V91.2413H306.59C307.178 91.2413 307.666 91.1607 308.055 90.9995C308.444 90.8383 308.733 90.5965 308.923 90.274C309.117 89.9516 309.215 89.551 309.215 89.0721C309.215 88.5885 309.117 88.1807 308.923 87.8488C308.733 87.5169 308.442 87.2656 308.048 87.0949C307.659 86.9195 307.168 86.8318 306.576 86.8318H304.498V98.8797H301.418ZM309.286 92.2512L312.906 98.8797H309.506L305.964 92.2512H309.286Z" fill="#1C465C"/>
<path d="M323.562 84.3141H326.642V93.7732C326.642 94.8353 326.388 95.7646 325.881 96.5612C325.378 97.3577 324.674 97.9788 323.768 98.4245C322.862 98.8655 321.807 99.086 320.603 99.086C319.394 99.086 318.336 98.8655 317.43 98.4245C316.525 97.9788 315.82 97.3577 315.318 96.5612C314.815 95.7646 314.564 94.8353 314.564 93.7732V84.3141H317.644V93.5101C317.644 94.0648 317.765 94.5579 318.006 94.9894C318.253 95.4208 318.599 95.7599 319.045 96.0064C319.491 96.253 320.01 96.3762 320.603 96.3762C321.2 96.3762 321.72 96.253 322.161 96.0064C322.606 95.7599 322.95 95.4208 323.192 94.9894C323.439 94.5579 323.562 94.0648 323.562 93.5101V84.3141Z" fill="#1C465C"/>
<path d="M332.256 84.3141V98.8797H329.176V84.3141H332.256Z" fill="#1C465C"/>
<path d="M334.235 86.8531V84.3141H346.2V86.8531H341.74V98.8797H338.695V86.8531H334.235Z" fill="#1C465C"/>
<path d="M348.17 84.3141H351.969L355.98 94.1004H356.151L360.163 84.3141H363.961V98.8797H360.974V89.3993H360.853L357.083 98.8086H355.049L351.279 89.3637H351.158V98.8797H348.17V84.3141Z" fill="#1C465C"/>
<path d="M366.499 98.8797V84.3141H376.315V86.8531H369.579V90.3238H375.81V92.8629H369.579V96.3407H376.344V98.8797H366.499Z" fill="#1C465C"/>
<path d="M390.949 84.3141V98.8797H388.289L381.951 89.7122H381.844V98.8797H378.764V84.3141H381.467L387.755 93.4745H387.883V84.3141H390.949Z" fill="#1C465C"/>
<path d="M392.939 86.8531V84.3141H404.903V86.8531H400.443V98.8797H397.399V86.8531H392.939Z" fill="#1C465C"/>
<path d="M256.127 130.59V128.371L261.312 123.571C261.753 123.144 262.123 122.76 262.422 122.418C262.725 122.077 262.955 121.743 263.112 121.416C263.268 121.084 263.347 120.726 263.347 120.342C263.347 119.915 263.249 119.547 263.055 119.239C262.861 118.926 262.595 118.687 262.258 118.521C261.922 118.35 261.54 118.265 261.113 118.265C260.667 118.265 260.278 118.355 259.947 118.535C259.615 118.715 259.359 118.974 259.178 119.31C258.998 119.647 258.908 120.048 258.908 120.512H255.984C255.984 119.559 256.2 118.732 256.632 118.03C257.063 117.329 257.668 116.786 258.446 116.402C259.223 116.018 260.12 115.825 261.134 115.825C262.178 115.825 263.086 116.01 263.859 116.38C264.637 116.745 265.241 117.253 265.673 117.902C266.104 118.552 266.32 119.296 266.32 120.135C266.32 120.685 266.211 121.228 265.993 121.764C265.779 122.3 265.398 122.895 264.848 123.549C264.297 124.199 263.522 124.979 262.522 125.889L260.395 127.973V128.073H266.512V130.59H256.127Z" fill="#645B87"/>
<path d="M274.456 130.91C273.232 130.906 272.18 130.604 271.297 130.007C270.42 129.41 269.744 128.544 269.27 127.411C268.801 126.278 268.568 124.915 268.573 123.322C268.573 121.733 268.808 120.38 269.277 119.261C269.752 118.142 270.427 117.291 271.305 116.707C272.187 116.119 273.237 115.825 274.456 115.825C275.674 115.825 276.723 116.119 277.6 116.707C278.482 117.295 279.16 118.149 279.634 119.268C280.108 120.382 280.343 121.733 280.338 123.322C280.338 124.92 280.101 126.285 279.627 127.418C279.158 128.551 278.484 129.417 277.607 130.014C276.73 130.612 275.679 130.91 274.456 130.91ZM274.456 128.357C275.29 128.357 275.957 127.937 276.455 127.098C276.952 126.259 277.199 125 277.194 123.322C277.194 122.217 277.081 121.297 276.853 120.562C276.63 119.827 276.312 119.275 275.9 118.905C275.492 118.535 275.011 118.35 274.456 118.35C273.626 118.35 272.962 118.765 272.464 119.595C271.966 120.425 271.715 121.667 271.71 123.322C271.71 124.441 271.821 125.375 272.044 126.124C272.272 126.868 272.592 127.428 273.005 127.802C273.417 128.172 273.901 128.357 274.456 128.357Z" fill="#645B87"/>
<path d="M294.006 122.105V124.509H287.363V122.105H294.006Z" fill="#645B87"/>
<path d="M301.196 130.59V128.371L306.382 123.571C306.823 123.144 307.193 122.76 307.491 122.418C307.795 122.077 308.025 121.743 308.181 121.416C308.338 121.084 308.416 120.726 308.416 120.342C308.416 119.915 308.319 119.547 308.124 119.239C307.93 118.926 307.664 118.687 307.328 118.521C306.991 118.35 306.609 118.265 306.182 118.265C305.737 118.265 305.348 118.355 305.016 118.535C304.684 118.715 304.428 118.974 304.248 119.31C304.067 119.647 303.977 120.048 303.977 120.512H301.054C301.054 119.559 301.27 118.732 301.701 118.03C302.133 117.329 302.737 116.786 303.515 116.402C304.293 116.018 305.189 115.825 306.204 115.825C307.247 115.825 308.155 116.01 308.928 116.38C309.706 116.745 310.311 117.253 310.742 117.902C311.174 118.552 311.389 119.296 311.389 120.135C311.389 120.685 311.28 121.228 311.062 121.764C310.849 122.3 310.467 122.895 309.917 123.549C309.367 124.199 308.592 124.979 307.591 125.889L305.464 127.973V128.073H311.581V130.59H301.196Z" fill="#645B87"/>
<path d="M319.404 130.789C318.655 130.785 317.932 130.659 317.235 130.412C316.542 130.166 315.921 129.765 315.371 129.21C314.821 128.656 314.385 127.921 314.062 127.006C313.744 126.091 313.586 124.967 313.586 123.635C313.59 122.411 313.73 121.318 314.005 120.356C314.285 119.389 314.683 118.568 315.2 117.895C315.722 117.222 316.346 116.71 317.071 116.359C317.797 116.003 318.61 115.825 319.511 115.825C320.483 115.825 321.341 116.015 322.086 116.394C322.83 116.769 323.428 117.279 323.878 117.924C324.334 118.568 324.609 119.291 324.704 120.093H321.666C321.548 119.585 321.299 119.187 320.919 118.898C320.54 118.609 320.07 118.464 319.511 118.464C318.562 118.464 317.842 118.877 317.348 119.702C316.86 120.527 316.611 121.648 316.602 123.066H316.701C316.919 122.634 317.213 122.267 317.583 121.963C317.958 121.655 318.382 121.42 318.856 121.259C319.335 121.093 319.84 121.01 320.372 121.01C321.235 121.01 322.003 121.214 322.676 121.622C323.35 122.025 323.881 122.58 324.27 123.286C324.659 123.993 324.853 124.801 324.853 125.711C324.853 126.698 324.623 127.575 324.163 128.343C323.708 129.111 323.07 129.713 322.249 130.149C321.434 130.581 320.485 130.794 319.404 130.789ZM319.39 128.371C319.864 128.371 320.289 128.257 320.663 128.03C321.038 127.802 321.332 127.494 321.545 127.105C321.759 126.717 321.865 126.28 321.865 125.797C321.865 125.313 321.759 124.879 321.545 124.495C321.337 124.111 321.047 123.805 320.677 123.578C320.308 123.35 319.886 123.236 319.411 123.236C319.056 123.236 318.726 123.303 318.423 123.435C318.124 123.568 317.861 123.753 317.633 123.99C317.41 124.227 317.235 124.502 317.107 124.815C316.979 125.123 316.915 125.453 316.915 125.804C316.915 126.273 317.021 126.702 317.235 127.091C317.453 127.48 317.747 127.79 318.117 128.023C318.491 128.255 318.916 128.371 319.39 128.371Z" fill="#645B87"/>
<path d="M337.591 116.025H340.635V126.181C340.635 127.12 340.424 127.935 340.002 128.627C339.585 129.32 339.004 129.853 338.26 130.228C337.515 130.602 336.65 130.789 335.663 130.789C334.786 130.789 333.989 130.635 333.273 130.327C332.562 130.014 331.998 129.54 331.58 128.905C331.163 128.265 330.957 127.461 330.961 126.494H334.027C334.037 126.878 334.115 127.207 334.262 127.482C334.414 127.753 334.62 127.961 334.881 128.108C335.146 128.25 335.459 128.321 335.82 128.321C336.199 128.321 336.519 128.241 336.78 128.08C337.046 127.914 337.247 127.672 337.385 127.354C337.522 127.037 337.591 126.645 337.591 126.181V116.025Z" fill="#645B87"/>
<path d="M346.241 130.796C345.544 130.796 344.922 130.676 344.377 130.434C343.832 130.187 343.4 129.824 343.082 129.346C342.769 128.862 342.613 128.26 342.613 127.539C342.613 126.932 342.724 126.423 342.947 126.01C343.17 125.598 343.474 125.266 343.858 125.014C344.242 124.763 344.678 124.573 345.167 124.445C345.66 124.317 346.177 124.227 346.717 124.175C347.353 124.109 347.865 124.047 348.254 123.99C348.643 123.929 348.925 123.838 349.1 123.72C349.276 123.601 349.363 123.426 349.363 123.194V123.151C349.363 122.701 349.221 122.352 348.937 122.105C348.657 121.859 348.258 121.736 347.742 121.736C347.196 121.736 346.762 121.857 346.44 122.098C346.117 122.335 345.904 122.634 345.8 122.995L342.997 122.767C343.139 122.103 343.419 121.529 343.836 121.046C344.254 120.557 344.792 120.183 345.451 119.922C346.115 119.657 346.883 119.524 347.756 119.524C348.363 119.524 348.944 119.595 349.498 119.737C350.058 119.879 350.554 120.1 350.985 120.399C351.421 120.697 351.765 121.081 352.017 121.551C352.268 122.015 352.394 122.573 352.394 123.222V130.59H349.52V129.075H349.434C349.259 129.417 349.024 129.718 348.73 129.979C348.436 130.235 348.083 130.436 347.67 130.583C347.258 130.725 346.781 130.796 346.241 130.796ZM347.108 128.706C347.554 128.706 347.948 128.618 348.289 128.442C348.631 128.262 348.899 128.02 349.093 127.717C349.287 127.413 349.385 127.07 349.385 126.686V125.526C349.29 125.588 349.159 125.645 348.993 125.697C348.832 125.745 348.65 125.79 348.446 125.832C348.242 125.87 348.038 125.906 347.834 125.939C347.63 125.967 347.445 125.993 347.279 126.017C346.923 126.069 346.613 126.152 346.347 126.266C346.082 126.38 345.875 126.534 345.728 126.728C345.581 126.918 345.508 127.155 345.508 127.44C345.508 127.852 345.657 128.167 345.956 128.385C346.26 128.599 346.644 128.706 347.108 128.706Z" fill="#645B87"/>
<path d="M357.775 124.275V130.59H354.744V119.666H357.632V121.593H357.76C358.002 120.958 358.408 120.455 358.977 120.086C359.546 119.711 360.236 119.524 361.047 119.524C361.806 119.524 362.467 119.69 363.031 120.022C363.596 120.354 364.034 120.828 364.347 121.444C364.66 122.056 364.817 122.786 364.817 123.635V130.59H361.787V124.175C361.791 123.507 361.621 122.985 361.274 122.61C360.928 122.231 360.452 122.041 359.845 122.041C359.437 122.041 359.076 122.129 358.763 122.305C358.455 122.48 358.213 122.736 358.038 123.073C357.867 123.405 357.779 123.805 357.775 124.275Z" fill="#645B87"/>
<path d="M374.212 125.939V119.666H377.242V130.59H374.333V128.606H374.219C373.972 129.246 373.562 129.76 372.988 130.149C372.419 130.538 371.724 130.732 370.904 130.732C370.174 130.732 369.531 130.567 368.976 130.235C368.421 129.903 367.988 129.431 367.675 128.819C367.366 128.208 367.21 127.475 367.205 126.622V119.666H370.235V126.081C370.24 126.726 370.413 127.236 370.755 127.61C371.096 127.985 371.554 128.172 372.127 128.172C372.493 128.172 372.834 128.089 373.152 127.923C373.469 127.753 373.726 127.501 373.92 127.169C374.119 126.837 374.216 126.427 374.212 125.939Z" fill="#645B87"/>
<path d="M382.781 130.796C382.084 130.796 381.463 130.676 380.918 130.434C380.372 130.187 379.941 129.824 379.623 129.346C379.31 128.862 379.153 128.26 379.153 127.539C379.153 126.932 379.265 126.423 379.488 126.01C379.711 125.598 380.014 125.266 380.398 125.014C380.782 124.763 381.219 124.573 381.707 124.445C382.2 124.317 382.717 124.227 383.258 124.175C383.893 124.109 384.405 124.047 384.794 123.99C385.183 123.929 385.465 123.838 385.641 123.72C385.816 123.601 385.904 123.426 385.904 123.194V123.151C385.904 122.701 385.762 122.352 385.477 122.105C385.197 121.859 384.799 121.736 384.282 121.736C383.737 121.736 383.303 121.857 382.98 122.098C382.658 122.335 382.445 122.634 382.34 122.995L379.538 122.767C379.68 122.103 379.96 121.529 380.377 121.046C380.794 120.557 381.333 120.183 381.992 119.922C382.656 119.657 383.424 119.524 384.296 119.524C384.903 119.524 385.484 119.595 386.039 119.737C386.599 119.879 387.094 120.1 387.526 120.399C387.962 120.697 388.306 121.081 388.557 121.551C388.809 122.015 388.934 122.573 388.934 123.222V130.59H386.06V129.075H385.975C385.8 129.417 385.565 129.718 385.271 129.979C384.977 130.235 384.624 130.436 384.211 130.583C383.798 130.725 383.322 130.796 382.781 130.796ZM383.649 128.706C384.095 128.706 384.488 128.618 384.83 128.442C385.171 128.262 385.439 128.02 385.634 127.717C385.828 127.413 385.925 127.07 385.925 126.686V125.526C385.83 125.588 385.7 125.645 385.534 125.697C385.373 125.745 385.19 125.79 384.986 125.832C384.782 125.87 384.579 125.906 384.375 125.939C384.171 125.967 383.986 125.993 383.82 126.017C383.464 126.069 383.154 126.152 382.888 126.266C382.622 126.38 382.416 126.534 382.269 126.728C382.122 126.918 382.049 127.155 382.049 127.44C382.049 127.852 382.198 128.167 382.497 128.385C382.8 128.599 383.184 128.706 383.649 128.706Z" fill="#645B87"/>
<path d="M391.285 130.59V119.666H394.223V121.572H394.337C394.536 120.894 394.87 120.382 395.34 120.036C395.809 119.685 396.35 119.51 396.961 119.51C397.113 119.51 397.277 119.519 397.452 119.538C397.628 119.557 397.782 119.583 397.915 119.616V122.305C397.772 122.262 397.576 122.224 397.324 122.191C397.073 122.158 396.843 122.141 396.634 122.141C396.188 122.141 395.79 122.238 395.439 122.433C395.093 122.622 394.818 122.888 394.614 123.229C394.415 123.571 394.315 123.964 394.315 124.41V130.59H391.285Z" fill="#645B87"/>
<path d="M401.685 134.687C401.301 134.687 400.94 134.656 400.603 134.594C400.271 134.537 399.996 134.464 399.778 134.374L400.461 132.112C400.817 132.221 401.137 132.281 401.421 132.29C401.711 132.3 401.96 132.233 402.168 132.091C402.382 131.949 402.555 131.707 402.688 131.365L402.865 130.903L398.946 119.666H402.133L404.395 127.688H404.509L406.792 119.666H410L405.753 131.771C405.549 132.359 405.272 132.871 404.921 133.307C404.575 133.748 404.136 134.087 403.605 134.324C403.074 134.566 402.434 134.687 401.685 134.687Z" fill="#645B87"/>
<path d="M261.547 446.226C260.485 446.226 259.539 446.043 258.709 445.678C257.884 445.308 257.232 444.801 256.753 444.156C256.279 443.507 256.035 442.757 256.02 441.909H259.122C259.141 442.264 259.257 442.577 259.47 442.848C259.688 443.113 259.978 443.319 260.338 443.466C260.698 443.613 261.104 443.687 261.554 443.687C262.024 443.687 262.439 443.604 262.799 443.438C263.16 443.272 263.442 443.042 263.646 442.748C263.85 442.454 263.952 442.115 263.952 441.731C263.952 441.342 263.843 440.998 263.624 440.7C263.411 440.396 263.103 440.159 262.7 439.988C262.301 439.818 261.827 439.732 261.277 439.732H259.918V437.471H261.277C261.742 437.471 262.152 437.39 262.508 437.229C262.868 437.068 263.148 436.845 263.347 436.56C263.546 436.271 263.646 435.935 263.646 435.551C263.646 435.185 263.558 434.865 263.383 434.59C263.212 434.311 262.97 434.093 262.657 433.936C262.349 433.78 261.988 433.701 261.576 433.701C261.158 433.701 260.777 433.777 260.431 433.929C260.084 434.076 259.807 434.287 259.598 434.562C259.39 434.837 259.278 435.159 259.264 435.529H256.312C256.326 434.69 256.566 433.95 257.03 433.31C257.495 432.67 258.121 432.17 258.908 431.81C259.7 431.444 260.594 431.262 261.59 431.262C262.595 431.262 263.475 431.444 264.229 431.81C264.983 432.175 265.569 432.668 265.986 433.289C266.408 433.905 266.617 434.597 266.612 435.366C266.617 436.181 266.363 436.861 265.851 437.407C265.343 437.952 264.682 438.298 263.866 438.445V438.559C264.938 438.696 265.754 439.069 266.313 439.676C266.877 440.278 267.157 441.032 267.153 441.937C267.157 442.767 266.918 443.504 266.434 444.149C265.955 444.794 265.294 445.301 264.45 445.671C263.605 446.041 262.638 446.226 261.547 446.226Z" fill="#645B87"/>
<path d="M276.202 437.542V439.946H269.559V437.542H276.202Z" fill="#645B87"/>
<path d="M284.027 431.262C284.776 431.262 285.497 431.388 286.189 431.639C286.886 431.89 287.508 432.291 288.053 432.841C288.603 433.391 289.037 434.121 289.355 435.031C289.677 435.937 289.841 437.049 289.845 438.367C289.845 439.604 289.706 440.709 289.426 441.681C289.151 442.648 288.755 443.471 288.238 444.149C287.721 444.827 287.097 445.344 286.367 445.699C285.637 446.05 284.821 446.226 283.92 446.226C282.948 446.226 282.09 446.039 281.345 445.664C280.601 445.285 280.001 444.77 279.546 444.121C279.095 443.466 278.822 442.731 278.728 441.916H281.765C281.883 442.447 282.132 442.859 282.512 443.153C282.891 443.443 283.361 443.587 283.92 443.587C284.869 443.587 285.589 443.175 286.083 442.35C286.576 441.52 286.825 440.384 286.83 438.943H286.73C286.512 439.37 286.218 439.737 285.848 440.045C285.478 440.349 285.054 440.584 284.575 440.749C284.1 440.915 283.595 440.998 283.059 440.998C282.201 440.998 281.435 440.797 280.762 440.394C280.089 439.991 279.557 439.436 279.169 438.73C278.78 438.023 278.585 437.217 278.585 436.311C278.581 435.335 278.806 434.465 279.261 433.701C279.716 432.938 280.352 432.341 281.167 431.909C281.988 431.473 282.941 431.257 284.027 431.262ZM284.048 433.68C283.569 433.68 283.142 433.794 282.768 434.021C282.398 434.249 282.104 434.555 281.886 434.939C281.672 435.323 281.568 435.752 281.573 436.226C281.573 436.705 281.677 437.136 281.886 437.521C282.099 437.9 282.388 438.203 282.754 438.431C283.123 438.654 283.546 438.765 284.02 438.765C284.375 438.765 284.705 438.699 285.009 438.566C285.312 438.433 285.575 438.251 285.798 438.018C286.026 437.781 286.204 437.509 286.332 437.201C286.46 436.892 286.524 436.565 286.524 436.219C286.519 435.759 286.41 435.337 286.196 434.953C285.983 434.569 285.689 434.261 285.314 434.029C284.94 433.796 284.518 433.68 284.048 433.68Z" fill="#645B87"/>
<path d="M296.701 446.027V431.461H306.346V434H299.781V437.471H305.706V440.01H299.781V446.027H296.701Z" fill="#645B87"/>
<path d="M312.538 446.24C311.415 446.24 310.447 446.012 309.636 445.557C308.83 445.097 308.209 444.448 307.773 443.609C307.336 442.765 307.118 441.766 307.118 440.614C307.118 439.491 307.336 438.504 307.773 437.656C308.209 436.807 308.823 436.146 309.615 435.671C310.412 435.197 311.346 434.96 312.418 434.96C313.138 434.96 313.809 435.076 314.431 435.309C315.057 435.536 315.602 435.88 316.067 436.34C316.536 436.8 316.901 437.378 317.162 438.075C317.423 438.768 317.553 439.578 317.553 440.508V441.34H308.327V439.462H314.701C314.701 439.026 314.606 438.64 314.416 438.303C314.227 437.966 313.963 437.703 313.627 437.513C313.295 437.319 312.908 437.222 312.467 437.222C312.007 437.222 311.6 437.329 311.244 437.542C310.893 437.751 310.618 438.033 310.419 438.388C310.22 438.739 310.118 439.13 310.113 439.562V441.347C310.113 441.887 310.212 442.354 310.412 442.748C310.616 443.141 310.902 443.445 311.272 443.658C311.642 443.872 312.081 443.978 312.588 443.978C312.925 443.978 313.233 443.931 313.513 443.836C313.793 443.741 314.032 443.599 314.231 443.409C314.431 443.22 314.582 442.987 314.687 442.712L317.489 442.897C317.347 443.571 317.055 444.159 316.614 444.661C316.178 445.159 315.614 445.548 314.921 445.828C314.234 446.103 313.439 446.24 312.538 446.24Z" fill="#645B87"/>
<path d="M319.588 446.027V431.461H322.618V436.937H322.71C322.843 436.643 323.035 436.345 323.287 436.041C323.543 435.733 323.875 435.477 324.282 435.273C324.695 435.065 325.207 434.96 325.819 434.96C326.616 434.96 327.351 435.169 328.024 435.586C328.697 435.999 329.236 436.622 329.639 437.457C330.042 438.286 330.243 439.327 330.243 440.579C330.243 441.797 330.046 442.826 329.653 443.665C329.264 444.5 328.733 445.133 328.06 445.564C327.391 445.991 326.642 446.204 325.812 446.204C325.224 446.204 324.723 446.107 324.311 445.913C323.903 445.718 323.569 445.474 323.308 445.18C323.047 444.882 322.848 444.581 322.71 444.277H322.575V446.027H319.588ZM322.554 440.565C322.554 441.214 322.644 441.781 322.824 442.264C323.004 442.748 323.265 443.125 323.607 443.395C323.948 443.661 324.363 443.793 324.851 443.793C325.345 443.793 325.762 443.658 326.103 443.388C326.445 443.113 326.703 442.734 326.879 442.25C327.059 441.762 327.149 441.2 327.149 440.565C327.149 439.934 327.061 439.379 326.886 438.9C326.71 438.421 326.452 438.047 326.11 437.777C325.769 437.506 325.349 437.371 324.851 437.371C324.358 437.371 323.941 437.502 323.6 437.762C323.263 438.023 323.004 438.393 322.824 438.872C322.644 439.351 322.554 439.915 322.554 440.565Z" fill="#645B87"/>
<path d="M332.265 446.027V435.102H335.203V437.008H335.317C335.516 436.33 335.85 435.818 336.32 435.472C336.789 435.121 337.33 434.946 337.942 434.946C338.093 434.946 338.257 434.955 338.432 434.974C338.608 434.993 338.762 435.019 338.895 435.053V437.741C338.752 437.698 338.556 437.66 338.304 437.627C338.053 437.594 337.823 437.577 337.614 437.577C337.169 437.577 336.77 437.675 336.419 437.869C336.073 438.059 335.798 438.324 335.594 438.666C335.395 439.007 335.295 439.401 335.295 439.846V446.027H332.265Z" fill="#645B87"/>
<path d="M347.468 441.375V435.102H350.498V446.027H347.589V444.042H347.475C347.228 444.682 346.818 445.197 346.244 445.586C345.675 445.974 344.981 446.169 344.16 446.169C343.43 446.169 342.787 446.003 342.233 445.671C341.678 445.339 341.244 444.867 340.931 444.256C340.623 443.644 340.466 442.912 340.461 442.058V435.102H343.492V441.518C343.496 442.162 343.669 442.672 344.011 443.047C344.352 443.421 344.81 443.609 345.384 443.609C345.749 443.609 346.09 443.526 346.408 443.36C346.726 443.189 346.982 442.938 347.176 442.606C347.375 442.274 347.473 441.864 347.468 441.375Z" fill="#645B87"/>
<path d="M356.038 446.233C355.341 446.233 354.719 446.112 354.174 445.87C353.629 445.624 353.197 445.261 352.879 444.782C352.566 444.298 352.41 443.696 352.41 442.976C352.41 442.369 352.521 441.859 352.744 441.446C352.967 441.034 353.271 440.702 353.655 440.451C354.039 440.199 354.475 440.01 354.963 439.882C355.457 439.754 355.974 439.664 356.514 439.612C357.15 439.545 357.662 439.484 358.051 439.427C358.44 439.365 358.722 439.275 358.897 439.156C359.073 439.038 359.16 438.862 359.16 438.63V438.587C359.16 438.137 359.018 437.788 358.734 437.542C358.454 437.295 358.055 437.172 357.538 437.172C356.993 437.172 356.559 437.293 356.237 437.535C355.914 437.772 355.701 438.071 355.597 438.431L352.794 438.203C352.936 437.54 353.216 436.966 353.633 436.482C354.051 435.994 354.589 435.619 355.248 435.358C355.912 435.093 356.68 434.96 357.553 434.96C358.16 434.96 358.741 435.031 359.295 435.174C359.855 435.316 360.351 435.536 360.782 435.835C361.218 436.134 361.562 436.518 361.814 436.987C362.065 437.452 362.191 438.009 362.191 438.658V446.027H359.317V444.512H359.231C359.056 444.853 358.821 445.154 358.527 445.415C358.233 445.671 357.88 445.873 357.467 446.02C357.055 446.162 356.578 446.233 356.038 446.233ZM356.905 444.142C357.351 444.142 357.745 444.054 358.086 443.879C358.428 443.699 358.696 443.457 358.89 443.153C359.084 442.85 359.182 442.506 359.182 442.122V440.963C359.087 441.024 358.956 441.081 358.79 441.134C358.629 441.181 358.447 441.226 358.243 441.269C358.039 441.307 357.835 441.342 357.631 441.375C357.427 441.404 357.242 441.43 357.076 441.454C356.72 441.506 356.41 441.589 356.144 441.702C355.879 441.816 355.672 441.97 355.525 442.165C355.378 442.354 355.305 442.591 355.305 442.876C355.305 443.288 355.454 443.604 355.753 443.822C356.057 444.035 356.441 444.142 356.905 444.142Z" fill="#645B87"/>
<path d="M364.541 446.027V435.102H367.479V437.008H367.593C367.792 436.33 368.127 435.818 368.596 435.472C369.065 435.121 369.606 434.946 370.218 434.946C370.37 434.946 370.533 434.955 370.709 434.974C370.884 434.993 371.038 435.019 371.171 435.053V437.741C371.029 437.698 370.832 437.66 370.581 437.627C370.329 437.594 370.099 437.577 369.891 437.577C369.445 437.577 369.046 437.675 368.696 437.869C368.349 438.059 368.074 438.324 367.87 438.666C367.671 439.007 367.572 439.401 367.572 439.846V446.027H364.541Z" fill="#645B87"/>
<path d="M374.941 450.123C374.557 450.123 374.196 450.092 373.86 450.031C373.528 449.974 373.253 449.9 373.035 449.81L373.718 447.549C374.073 447.658 374.393 447.717 374.678 447.726C374.967 447.736 375.216 447.67 375.425 447.527C375.638 447.385 375.811 447.143 375.944 446.802L376.122 446.34L372.202 435.102H375.389L377.651 443.125H377.765L380.048 435.102H383.256L379.01 447.207C378.806 447.795 378.528 448.307 378.178 448.743C377.831 449.184 377.393 449.523 376.862 449.761C376.33 450.002 375.69 450.123 374.941 450.123Z" fill="#645B87"/>
<path d="M267.456 399.75V414.316H264.376V399.75H267.456Z" fill="#1C465C"/>
<path d="M282.175 399.75V414.316H279.514L273.177 405.149H273.07V414.316H269.99V399.75H272.693L278.981 408.911H279.109V399.75H282.175Z" fill="#1C465C"/>
<path d="M284.165 402.29V399.75H296.129V402.29H291.669V414.316H288.625V402.29H284.165Z" fill="#1C465C"/>
<path d="M298.099 414.316V399.75H307.916V402.29H301.18V405.76H307.411V408.299H301.18V411.777H307.944V414.316H298.099Z" fill="#1C465C"/>
<path d="M310.364 414.316V399.75H316.112C317.212 399.75 318.151 399.947 318.929 400.341C319.711 400.73 320.306 401.282 320.714 401.998C321.127 402.709 321.333 403.546 321.333 404.509C321.333 405.476 321.124 406.308 320.707 407.005C320.29 407.697 319.685 408.228 318.893 408.598C318.106 408.968 317.153 409.153 316.034 409.153H312.185V406.678H315.536C316.124 406.678 316.612 406.597 317.001 406.436C317.39 406.275 317.679 406.033 317.869 405.71C318.063 405.388 318.161 404.987 318.161 404.509C318.161 404.025 318.063 403.617 317.869 403.285C317.679 402.953 317.388 402.702 316.994 402.531C316.605 402.356 316.114 402.268 315.522 402.268H313.444V414.316H310.364ZM318.232 407.688L321.852 414.316H318.452L314.91 407.688H318.232Z" fill="#1C465C"/>
<path d="M325.75 399.75L329.271 410.817H329.407L332.935 399.75H336.349L331.327 414.316H327.358L322.329 399.75H325.75Z" fill="#1C465C"/>
<path d="M341.183 399.75V414.316H338.102V399.75H341.183Z" fill="#1C465C"/>
<path d="M343.717 414.316V399.75H353.533V402.29H346.797V405.76H353.028V408.299H346.797V411.777H353.561V414.316H343.717Z" fill="#1C465C"/>
<path d="M359.261 414.316L355.092 399.75H358.457L360.868 409.871H360.989L363.65 399.75H366.531L369.184 409.892H369.312L371.723 399.75H375.088L370.919 414.316H367.918L365.143 404.793H365.03L362.263 414.316H359.261Z" fill="#1C465C"/>
<path d="M36.883 583.338V597.903H33.8029V586.261H33.7176L30.3815 588.352V585.621L33.9879 583.338H36.883Z" fill="#645B87"/>
<path d="M45.73 598.103C44.6678 598.103 43.7217 597.92 42.8919 597.555C42.0667 597.185 41.4147 596.678 40.9357 596.033C40.4615 595.383 40.2173 594.634 40.2031 593.786H43.3044C43.3234 594.141 43.4396 594.454 43.653 594.724C43.8711 594.99 44.1604 595.196 44.5208 595.343C44.8812 595.49 45.2866 595.564 45.7371 595.564C46.2066 595.564 46.6216 595.481 46.982 595.315C47.3424 595.149 47.6245 594.919 47.8284 594.625C48.0323 594.331 48.1343 593.992 48.1343 593.608C48.1343 593.219 48.0252 592.875 47.8071 592.576C47.5937 592.273 47.2855 592.036 46.8824 591.865C46.484 591.695 46.0098 591.609 45.4597 591.609H44.1011V589.348H45.4597C45.9245 589.348 46.3347 589.267 46.6903 589.106C47.0507 588.945 47.3305 588.722 47.5297 588.437C47.7288 588.148 47.8284 587.811 47.8284 587.427C47.8284 587.062 47.7407 586.742 47.5652 586.467C47.3945 586.187 47.1527 585.969 46.8397 585.813C46.5315 585.656 46.171 585.578 45.7585 585.578C45.3412 585.578 44.9594 585.654 44.6133 585.806C44.2671 585.953 43.9897 586.164 43.781 586.439C43.5723 586.714 43.4609 587.036 43.4467 587.406H40.4947C40.5089 586.567 40.7484 585.827 41.2131 585.187C41.6779 584.547 42.3038 584.047 43.091 583.686C43.883 583.321 44.7769 583.139 45.7727 583.139C46.778 583.139 47.6577 583.321 48.4117 583.686C49.1657 584.051 49.7514 584.545 50.1687 585.166C50.5907 585.782 50.7994 586.474 50.7946 587.242C50.7994 588.058 50.5457 588.738 50.0335 589.284C49.5261 589.829 48.8646 590.175 48.0489 590.322V590.436C49.1207 590.573 49.9363 590.945 50.4959 591.552C51.0602 592.154 51.34 592.908 51.3352 593.814C51.34 594.644 51.1005 595.381 50.6168 596.026C50.1379 596.671 49.4763 597.178 48.6322 597.548C47.7881 597.918 46.8207 598.103 45.73 598.103Z" fill="#645B87"/>
<path d="M58.2706 597.903V583.338H67.9162V585.877H61.3507V589.348H67.276V591.887H61.3507V597.903H58.2706Z" fill="#645B87"/>
<path d="M74.1082 598.117C72.9843 598.117 72.0169 597.889 71.206 597.434C70.3999 596.974 69.7787 596.325 69.3424 595.485C68.9061 594.641 68.688 593.643 68.688 592.491C68.688 591.367 68.9061 590.381 69.3424 589.532C69.7787 588.684 70.3928 588.022 71.1847 587.548C71.9814 587.074 72.9156 586.837 73.9873 586.837C74.7081 586.837 75.3791 586.953 76.0004 587.185C76.6263 587.413 77.1717 587.757 77.6364 588.217C78.1059 588.677 78.471 589.255 78.7318 589.952C78.9926 590.644 79.1231 591.455 79.1231 592.384V593.217H69.8972V591.339H76.2707C76.2707 590.903 76.1758 590.516 75.9861 590.18C75.7964 589.843 75.5333 589.58 75.1966 589.39C74.8646 589.196 74.4781 589.099 74.0371 589.099C73.5771 589.099 73.1693 589.205 72.8136 589.419C72.4627 589.627 72.1877 589.909 71.9885 590.265C71.7893 590.616 71.6874 591.007 71.6826 591.439V593.224C71.6826 593.764 71.7822 594.231 71.9814 594.625C72.1853 595.018 72.4722 595.322 72.8421 595.535C73.212 595.748 73.6506 595.855 74.158 595.855C74.4947 595.855 74.803 595.808 75.0827 595.713C75.3625 595.618 75.602 595.476 75.8012 595.286C76.0004 595.097 76.1521 594.864 76.2564 594.589L79.059 594.774C78.9168 595.447 78.6251 596.035 78.1841 596.538C77.7478 597.036 77.1835 597.425 76.4912 597.704C75.8035 597.979 75.0092 598.117 74.1082 598.117Z" fill="#645B87"/>
<path d="M81.1574 597.903V583.338H84.1877V588.814H84.2801C84.4129 588.52 84.605 588.221 84.8563 587.918C85.1124 587.61 85.4443 587.354 85.8522 587.15C86.2647 586.941 86.7769 586.837 87.3886 586.837C88.1853 586.837 88.9203 587.046 89.5937 587.463C90.2671 587.875 90.8053 588.499 91.2084 589.333C91.6115 590.163 91.813 591.204 91.813 592.456C91.813 593.674 91.6163 594.703 91.2227 595.542C90.8338 596.377 90.3027 597.01 89.6293 597.441C88.9606 597.868 88.2114 598.081 87.3815 598.081C86.7935 598.081 86.2932 597.984 85.8806 597.79C85.4728 597.595 85.1385 597.351 84.8777 597.057C84.6168 596.758 84.4177 596.457 84.2801 596.154H84.145V597.903H81.1574ZM84.1237 592.441C84.1237 593.091 84.2138 593.658 84.394 594.141C84.5742 594.625 84.835 595.002 85.1764 595.272C85.5178 595.537 85.9328 595.67 86.4212 595.67C86.9144 595.67 87.3317 595.535 87.6731 595.265C88.0146 594.99 88.273 594.611 88.4485 594.127C88.6287 593.639 88.7188 593.077 88.7188 592.441C88.7188 591.811 88.6311 591.256 88.4556 590.777C88.2801 590.298 88.0217 589.924 87.6803 589.653C87.3388 589.383 86.9191 589.248 86.4212 589.248C85.928 589.248 85.5107 589.378 85.1693 589.639C84.8326 589.9 84.5742 590.27 84.394 590.749C84.2138 591.228 84.1237 591.792 84.1237 592.441Z" fill="#645B87"/>
<path d="M93.835 597.903V586.979H96.7727V588.885H96.8866C97.0857 588.207 97.42 587.695 97.8895 587.349C98.359 586.998 98.8996 586.823 99.5113 586.823C99.6631 586.823 99.8267 586.832 100.002 586.851C100.178 586.87 100.332 586.896 100.465 586.929V589.618C100.322 589.575 100.125 589.537 99.8741 589.504C99.6228 589.471 99.3928 589.454 99.1841 589.454C98.7384 589.454 98.34 589.551 97.9891 589.746C97.6429 589.935 97.3679 590.201 97.164 590.542C96.9648 590.884 96.8652 591.277 96.8652 591.723V597.903H93.835Z" fill="#645B87"/>
<path d="M109.038 593.252V586.979H112.068V597.903H109.159V595.919H109.045C108.798 596.559 108.388 597.074 107.814 597.462C107.245 597.851 106.55 598.046 105.73 598.046C105 598.046 104.357 597.88 103.802 597.548C103.248 597.216 102.814 596.744 102.501 596.133C102.192 595.521 102.036 594.788 102.031 593.935V586.979H105.061V593.394C105.066 594.039 105.239 594.549 105.581 594.923C105.922 595.298 106.38 595.485 106.954 595.485C107.319 595.485 107.66 595.402 107.978 595.236C108.296 595.066 108.552 594.814 108.746 594.482C108.945 594.151 109.042 593.74 109.038 593.252Z" fill="#645B87"/>
<path d="M117.607 598.11C116.91 598.11 116.289 597.989 115.744 597.747C115.198 597.5 114.767 597.138 114.449 596.659C114.136 596.175 113.98 595.573 113.98 594.852C113.98 594.245 114.091 593.736 114.314 593.323C114.537 592.911 114.84 592.579 115.224 592.328C115.609 592.076 116.045 591.887 116.533 591.759C117.026 591.631 117.543 591.54 118.084 591.488C118.719 591.422 119.232 591.36 119.62 591.303C120.009 591.242 120.291 591.152 120.467 591.033C120.642 590.915 120.73 590.739 120.73 590.507V590.464C120.73 590.014 120.588 589.665 120.303 589.419C120.024 589.172 119.625 589.049 119.108 589.049C118.563 589.049 118.129 589.17 117.807 589.412C117.484 589.649 117.271 589.947 117.166 590.308L114.364 590.08C114.506 589.416 114.786 588.843 115.203 588.359C115.62 587.871 116.159 587.496 116.818 587.235C117.482 586.97 118.25 586.837 119.122 586.837C119.729 586.837 120.31 586.908 120.865 587.05C121.425 587.193 121.92 587.413 122.352 587.712C122.788 588.01 123.132 588.395 123.383 588.864C123.635 589.329 123.76 589.886 123.76 590.535V597.903H120.887V596.389H120.801C120.626 596.73 120.391 597.031 120.097 597.292C119.803 597.548 119.45 597.749 119.037 597.896C118.625 598.039 118.148 598.11 117.607 598.11ZM118.475 596.019C118.921 596.019 119.315 595.931 119.656 595.756C119.997 595.575 120.265 595.334 120.46 595.03C120.654 594.727 120.751 594.383 120.751 593.999V592.84C120.657 592.901 120.526 592.958 120.36 593.01C120.199 593.058 120.016 593.103 119.812 593.145C119.609 593.183 119.405 593.219 119.201 593.252C118.997 593.281 118.812 593.307 118.646 593.33C118.29 593.382 117.98 593.465 117.714 593.579C117.449 593.693 117.242 593.847 117.095 594.042C116.948 594.231 116.875 594.468 116.875 594.753C116.875 595.165 117.024 595.481 117.323 595.699C117.626 595.912 118.01 596.019 118.475 596.019Z" fill="#645B87"/>
<path d="M126.111 597.903V586.979H129.049V588.885H129.163C129.362 588.207 129.696 587.695 130.166 587.349C130.635 586.998 131.176 586.823 131.788 586.823C131.939 586.823 132.103 586.832 132.278 586.851C132.454 586.87 132.608 586.896 132.741 586.929V589.618C132.599 589.575 132.402 589.537 132.15 589.504C131.899 589.471 131.669 589.454 131.46 589.454C131.015 589.454 130.616 589.551 130.265 589.746C129.919 589.935 129.644 590.201 129.44 590.542C129.241 590.884 129.141 591.277 129.141 591.723V597.903H126.111Z" fill="#645B87"/>
<path d="M136.511 602C136.127 602 135.766 601.969 135.43 601.908C135.098 601.851 134.823 601.777 134.604 601.687L135.287 599.425C135.643 599.535 135.963 599.594 136.248 599.603C136.537 599.613 136.786 599.546 136.994 599.404C137.208 599.262 137.381 599.02 137.514 598.679L137.692 598.216L133.772 586.979H136.959L139.221 595.002H139.335L141.618 586.979H144.826L140.58 599.084C140.376 599.672 140.098 600.184 139.747 600.62C139.401 601.061 138.962 601.4 138.431 601.637C137.9 601.879 137.26 602 136.511 602Z" fill="#645B87"/>
<path d="M3.30054 567.862H0L5.02905 553.296H8.99823L14.0202 567.862H10.7196L7.07054 556.625H6.95673L3.30054 567.862ZM3.09425 562.137H10.8903V564.541H3.09425V562.137Z" fill="#1C465C"/>
<path d="M27.9585 553.296V567.862H25.2982L18.9603 558.694H18.8536V567.862H15.7736V553.296H18.4766L24.7647 562.457H24.8927V553.296H27.9585Z" fill="#1C465C"/>
<path d="M42.6882 553.296V567.862H40.0279L33.69 558.694H33.5833V567.862H30.5033V553.296H33.2063L39.4944 562.457H39.6224V553.296H42.6882Z" fill="#1C465C"/>
<path d="M58.6201 560.579C58.6201 562.167 58.319 563.519 57.7167 564.633C57.1192 565.747 56.3035 566.598 55.2697 567.186C54.2407 567.769 53.0836 568.061 51.7985 568.061C50.5039 568.061 49.3421 567.767 48.313 567.179C47.284 566.591 46.4707 565.74 45.8732 564.626C45.2757 563.512 44.9769 562.163 44.9769 560.579C44.9769 558.991 45.2757 557.639 45.8732 556.525C46.4707 555.411 47.284 554.562 48.313 553.979C49.3421 553.391 50.5039 553.097 51.7985 553.097C53.0836 553.097 54.2407 553.391 55.2697 553.979C56.3035 554.562 57.1192 555.411 57.7167 556.525C58.319 557.639 58.6201 558.991 58.6201 560.579ZM55.4974 560.579C55.4974 559.55 55.3433 558.683 55.035 557.976C54.7315 557.27 54.3024 556.734 53.7475 556.369C53.1927 556.004 52.543 555.821 51.7985 555.821C51.054 555.821 50.4043 556.004 49.8495 556.369C49.2946 556.734 48.8631 557.27 48.5549 557.976C48.2514 558.683 48.0996 559.55 48.0996 560.579C48.0996 561.608 48.2514 562.476 48.5549 563.182C48.8631 563.889 49.2946 564.424 49.8495 564.789C50.4043 565.155 51.054 565.337 51.7985 565.337C52.543 565.337 53.1927 565.155 53.7475 564.789C54.3024 564.424 54.7315 563.889 55.035 563.182C55.3433 562.476 55.4974 561.608 55.4974 560.579Z" fill="#1C465C"/>
<path d="M69.8999 553.296H72.9799V562.755C72.9799 563.817 72.7262 564.747 72.2188 565.543C71.7161 566.34 71.0119 566.961 70.1062 567.407C69.2004 567.848 68.1453 568.068 66.9408 568.068C65.7315 568.068 64.674 567.848 63.7683 567.407C62.8625 566.961 62.1583 566.34 61.6556 565.543C61.153 564.747 60.9016 563.817 60.9016 562.755V553.296H63.9817V562.492C63.9817 563.047 64.1026 563.54 64.3444 563.972C64.591 564.403 64.9372 564.742 65.383 564.989C65.8287 565.235 66.348 565.358 66.9408 565.358C67.5383 565.358 68.0575 565.235 68.4986 564.989C68.9443 564.742 69.2881 564.403 69.53 563.972C69.7766 563.54 69.8999 563.047 69.8999 562.492V553.296Z" fill="#1C465C"/>
<path d="M87.6989 553.296V567.862H85.0386L78.7007 558.694H78.594V567.862H75.514V553.296H78.217L84.5051 562.457H84.6331V553.296H87.6989Z" fill="#1C465C"/>
<path d="M103.097 558.396H99.9817C99.9248 557.993 99.8086 557.635 99.6331 557.322C99.4577 557.004 99.2324 556.734 98.9574 556.511C98.6823 556.288 98.3646 556.117 98.0042 555.999C97.6486 555.88 97.2621 555.821 96.8448 555.821C96.0908 555.821 95.434 556.008 94.8744 556.383C94.3148 556.753 93.8809 557.293 93.5727 558.004C93.2644 558.711 93.1103 559.569 93.1103 560.579C93.1103 561.617 93.2644 562.49 93.5727 563.196C93.8857 563.903 94.3219 564.436 94.8815 564.797C95.4411 565.157 96.0884 565.337 96.8234 565.337C97.236 565.337 97.6177 565.283 97.9687 565.174C98.3243 565.064 98.6397 564.906 98.9147 564.697C99.1898 564.484 99.4174 564.225 99.5976 563.922C99.7825 563.618 99.9106 563.272 99.9817 562.883L103.097 562.898C103.017 563.566 102.815 564.211 102.493 564.832C102.175 565.448 101.746 566.001 101.205 566.489C100.669 566.973 100.029 567.357 99.2846 567.641C98.5448 567.921 97.7078 568.061 96.7736 568.061C95.4743 568.061 94.3125 567.767 93.2882 567.179C92.2686 566.591 91.4624 565.74 90.8697 564.626C90.2816 563.512 89.9876 562.163 89.9876 560.579C89.9876 558.991 90.2864 557.639 90.8839 556.525C91.4814 555.411 92.2923 554.562 93.3166 553.979C94.3409 553.391 95.4933 553.097 96.7736 553.097C97.6177 553.097 98.4002 553.216 99.121 553.453C99.8465 553.69 100.489 554.036 101.049 554.491C101.608 554.942 102.064 555.494 102.414 556.148C102.77 556.803 102.998 557.552 103.097 558.396Z" fill="#1C465C"/>
<path d="M105.306 567.862V553.296H115.122V555.835H108.386V559.306H114.617V561.845H108.386V565.323H115.151V567.862H105.306Z" fill="#1C465C"/>
<path d="M117.571 553.296H121.369L125.381 563.083H125.552L129.564 553.296H133.362V567.862H130.375V558.381H130.254L126.484 567.791H124.449L120.679 558.346H120.558V567.862H117.571V553.296Z" fill="#1C465C"/>
<path d="M135.9 567.862V553.296H145.716V555.835H138.98V559.306H145.211V561.845H138.98V565.323H145.745V567.862H135.9Z" fill="#1C465C"/>
<path d="M160.35 553.296V567.862H157.69L151.352 558.694H151.245V567.862H148.165V553.296H150.868L157.156 562.457H157.284V553.296H160.35Z" fill="#1C465C"/>
<path d="M162.34 555.835V553.296H174.304V555.835H169.844V567.862H166.8V555.835H162.34Z" fill="#1C465C"/>
</svg>
