<svg width="17" height="17" viewBox="0 0 17 17" fill="none" xmlns="http://www.w3.org/2000/svg">
<g clip-path="url(#clip0_194_683)">
<path d="M10.2036 1.26416H6.14111V2.61833H10.2036V1.26416ZM7.49528 10.0662H8.84945V6.00374H7.49528V10.0662ZM12.9323 5.58395L13.8937 4.62249C13.6026 4.27718 13.2843 3.95218 12.939 3.66781L11.9776 4.62927C10.9281 3.78968 9.60778 3.28864 8.17237 3.28864C4.80726 3.28864 2.07861 6.01729 2.07861 9.38239C2.07861 12.7475 4.80049 15.4761 8.17237 15.4761C11.5442 15.4761 14.2661 12.7475 14.2661 9.38239C14.2661 7.95374 13.7651 6.63343 12.9323 5.58395ZM8.17237 14.1287C5.55205 14.1287 3.43278 12.0095 3.43278 9.38916C3.43278 6.76885 5.55205 4.64958 8.17237 4.64958C10.7927 4.64958 12.912 6.76885 12.912 9.38916C12.912 12.0095 10.7927 14.1287 8.17237 14.1287Z" fill="#1C465C"/>
</g>
<defs>
<clipPath id="clip0_194_683">
<rect width="16.25" height="16.25" fill="white" transform="translate(0 0.580566)"/>
</clipPath>
</defs>
</svg>
