<svg width="188" height="35" viewBox="0 0 188 35" fill="none" xmlns="http://www.w3.org/2000/svg">
<path d="M33.5582 34H26.8582L21.7082 12.4L16.4582 34H9.9582L0.558203 0.799998H7.9582L13.4082 22.3L18.0082 0.799998H25.3082L30.3582 22.3L35.7582 0.799998H42.8582L33.5582 34ZM66.8305 34H60.2805V18.75C60.2805 15.05 59.0305 13.9 56.0805 13.9C52.8305 13.9 51.0305 16.6 51.0305 19.9V34H44.5305V0.399997H51.0305V12.6C51.9805 10.4 54.9805 8.75 58.2805 8.75C63.3305 8.75 66.8305 11.7 66.8305 16.6V34ZM84.577 24.65L84.627 21.95C83.977 22.6 82.827 22.95 80.427 23.4C76.727 24.1 75.527 25.15 75.527 27.25C75.527 29.1 76.627 30 78.677 30C82.027 30 84.527 27.55 84.577 24.65ZM91.127 34H85.077C84.877 33.4 84.727 32.55 84.677 31.8C83.127 33.5 80.527 34.65 77.227 34.65C71.627 34.65 69.027 31.9 69.027 27.9C69.027 20.8 73.777 20 80.327 19.1C83.577 18.65 84.477 18 84.477 16.3C84.477 14.7 82.877 13.75 80.327 13.75C77.377 13.75 76.177 15.2 75.877 17.4H69.827C69.927 12.3 72.727 8.75 80.627 8.75C88.427 8.75 91.127 12.25 91.127 18.45V34ZM107.943 24.2V17.8H113.993V24.8C113.993 30 110.993 34.65 104.043 34.65C96.8434 34.65 93.9934 30.05 93.9934 24.75V2.75H100.393V9.4H113.993V14H100.393V24.1C100.393 27.2 101.493 29 104.143 29C106.743 29 107.943 27.25 107.943 24.2ZM135.36 34H128.86V9.4H135.36V34ZM135.36 6.45H128.86V0.399997H135.36V6.45ZM159.379 16.85H153.129C152.779 14.45 151.479 13.6 148.529 13.6C146.079 13.6 144.679 14.2 144.679 15.65C144.679 17.1 146.029 17.7 148.679 18.45C151.479 19.25 154.129 19.8 156.029 20.55C158.629 21.6 160.079 23.3 160.079 26.5C160.079 31.6 156.329 34.65 149.329 34.65C141.779 34.65 137.579 31.1 137.479 26.1H144.179C144.179 28.4 146.129 29.75 149.279 29.75C151.579 29.75 153.629 29.05 153.629 27.2C153.629 25.45 151.779 24.9 149.679 24.4C145.529 23.4 143.229 22.7 141.479 21.6C139.179 20.15 138.379 18.25 138.379 16.05C138.379 11.9 141.229 8.75 148.729 8.75C155.829 8.75 159.029 11.55 159.379 16.85ZM168.713 34H161.763V27.25H168.713V34ZM178.039 34H171.089V27.25H178.039V34ZM187.366 34H180.416V27.25H187.366V34Z" fill="#1C465C"/>
</svg>
