<svg width="80" height="80" viewBox="0 0 80 80" fill="none" xmlns="http://www.w3.org/2000/svg">
<path d="M38 49.8792L42 53.8792C42.394 54.2731 42.8617 54.5857 43.3764 54.7989C43.8912 55.0121 44.4428 55.1218 45 55.1218C45.5572 55.1218 46.1088 55.0121 46.6236 54.7989C47.1383 54.5857 47.606 54.2731 48 53.8792C48.394 53.4852 48.7065 53.0175 48.9197 52.5028C49.1329 51.988 49.2426 51.4363 49.2426 50.8792C49.2426 50.322 49.1329 49.7703 48.9197 49.2556C48.7065 48.7409 48.394 48.2731 48 47.8792M44 43.8792L49 48.8792C49.7956 49.6748 50.8748 50.1218 52 50.1218C53.1252 50.1218 54.2044 49.6748 55 48.8792C55.7956 48.0835 56.2426 47.0044 56.2426 45.8792C56.2426 44.754 55.7956 43.6748 55 42.8792L47.24 35.1192C46.115 33.9956 44.59 33.3645 43 33.3645C41.41 33.3645 39.885 33.9956 38.76 35.1192L37 36.8792C36.2044 37.6748 35.1252 38.1218 34 38.1218C32.8748 38.1218 31.7956 37.6748 31 36.8792C30.2044 36.0835 29.7574 35.0044 29.7574 33.8792C29.7574 32.754 30.2044 31.6748 31 30.8792L36.62 25.2592C38.4445 23.4395 40.8238 22.2803 43.3813 21.9651C45.9388 21.65 48.5283 22.1968 50.74 23.5192L51.68 24.0792C52.5316 24.5932 53.5441 24.7714 54.52 24.5792L58 23.8792M58 21.8792L60 43.8792H56M22 21.8792L20 43.8792L33 56.8792C33.7956 57.6748 34.8748 58.1218 36 58.1218C37.1252 58.1218 38.2044 57.6748 39 56.8792C39.7956 56.0835 40.2426 55.0044 40.2426 53.8792C40.2426 52.754 39.7956 51.6748 39 50.8792M22 23.8792H38" stroke="#1E1E1E" stroke-width="3" stroke-linecap="round" stroke-linejoin="round"/>
</svg>
