<svg width="80" height="80" viewBox="0 0 80 80" fill="none" xmlns="http://www.w3.org/2000/svg">
<path d="M50 44H50.02M30 30H54C55.0609 30 56.0783 30.4214 56.8284 31.1716C57.5786 31.9217 58 32.9391 58 34V54C58 55.0609 57.5786 56.0783 56.8284 56.8284C56.0783 57.5786 55.0609 58 54 58H26C24.9391 58 23.9217 57.5786 23.1716 56.8284C22.4214 56.0783 22 55.0609 22 54V26C22 24.9391 22.4214 23.9217 23.1716 23.1716C23.9217 22.4214 24.9391 22 26 22H54" stroke="#1E1E1E" stroke-width="3" stroke-linecap="round" stroke-linejoin="round"/>
</svg>
