<svg width="80" height="80" viewBox="0 0 80 80" fill="none" xmlns="http://www.w3.org/2000/svg">
<path d="M35.0743 39.0225L48.5243 25.5892C48.9627 25.1366 49.4868 24.7758 50.0661 24.5277C50.6453 24.2796 51.2681 24.1493 51.8982 24.1443C52.5283 24.1393 53.1532 24.2597 53.7363 24.4985C54.3194 24.7374 54.8492 25.0898 55.2947 25.5354C55.7403 25.981 56.0928 26.5107 56.3316 27.0938C56.5704 27.677 56.6908 28.3018 56.6858 28.9319C56.6808 29.562 56.5505 30.1848 56.3024 30.7641C56.0544 31.3433 55.6935 31.8674 55.2409 32.3058L41.8076 45.7725M31.7576 44.0892C28.9909 44.0892 26.7576 46.3392 26.7576 49.1225C26.7576 51.3392 22.5909 51.6558 23.4243 52.4892C25.2243 54.3225 27.5743 55.8558 30.0909 55.8558C33.7576 55.8558 36.7576 52.8558 36.7576 49.1225C36.7598 48.4637 36.6322 47.8109 36.3821 47.2014C36.132 46.592 35.7644 46.0377 35.3001 45.5703C34.8358 45.1029 34.284 44.7315 33.6761 44.4774C33.0683 44.2233 32.4164 44.0914 31.7576 44.0892Z" stroke="#202020" stroke-width="3" stroke-linecap="round" stroke-linejoin="round"/>
</svg>
