<svg width="80" height="80" viewBox="0 0 80 80" fill="none" xmlns="http://www.w3.org/2000/svg">
<path d="M44.2895 44.2895L35.7105 35.7105M56.9794 56.9794L54.4771 54.4771M25.5229 25.5229L23.0206 23.0206M51.8981 56.9526C51.2278 57.6231 50.3186 57.9998 49.3706 58C48.4225 58.0002 47.5132 57.6237 46.8427 56.9534C46.1722 56.2832 45.7954 55.374 45.7952 54.4259C45.7951 53.4779 46.1715 52.5686 46.8418 51.8981L43.6836 55.058C43.0131 55.7285 42.1037 56.1052 41.1555 56.1052C40.2073 56.1052 39.2979 55.7285 38.6274 55.058C37.9568 54.3875 37.5802 53.4781 37.5802 52.5299C37.5802 51.5816 37.9568 50.6722 38.6274 50.0017L50.0017 38.6274C50.6722 37.9568 51.5816 37.5802 52.5299 37.5802C53.4781 37.5802 54.3875 37.9568 55.058 38.6274C55.7285 39.2979 56.1052 40.2073 56.1052 41.1555C56.1052 42.1037 55.7285 43.0131 55.058 43.6836L51.8981 46.8418C52.5686 46.1715 53.4779 45.7951 54.4259 45.7952C55.374 45.7954 56.2832 46.1722 56.9534 46.8427C57.6237 47.5132 58.0002 48.4225 58 49.3706C57.9998 50.3186 57.6231 51.2278 56.9526 51.8981L51.8981 56.9526ZM29.9983 41.3726C29.3278 42.0432 28.4184 42.4198 27.4701 42.4198C26.5219 42.4198 25.6125 42.0432 24.942 41.3726C24.2715 40.7021 23.8948 39.7927 23.8948 38.8445C23.8948 37.8963 24.2715 36.9869 24.942 36.3164L28.1019 33.1582C27.7699 33.4901 27.3758 33.7533 26.9421 33.9329C26.5084 34.1125 26.0435 34.2049 25.5741 34.2048C24.626 34.2046 23.7168 33.8278 23.0466 33.1573C22.7147 32.8253 22.4514 32.4312 22.2719 31.9975C22.0923 31.5637 21.9999 31.0989 22 30.6294C22.0002 29.6814 22.3769 28.7722 23.0475 28.1019L28.1019 23.0475C28.7722 22.3769 29.6814 22.0002 30.6294 22C31.0989 21.9999 31.5637 22.0923 31.9975 22.2719C32.4312 22.4514 32.8253 22.7147 33.1573 23.0466C33.4893 23.3784 33.7527 23.7725 33.9324 24.2061C34.1121 24.6398 34.2047 25.1046 34.2048 25.5741C34.2049 26.0435 34.1125 26.5084 33.9329 26.9421C33.7533 27.3758 33.4901 27.7699 33.1582 28.1019L36.3164 24.942C36.9869 24.2715 37.8963 23.8948 38.8445 23.8948C39.7927 23.8948 40.7021 24.2715 41.3726 24.942C42.0432 25.6125 42.4198 26.5219 42.4198 27.4701C42.4198 28.4184 42.0432 29.3278 41.3726 29.9983L29.9983 41.3726Z" stroke="#1E1E1E" stroke-width="3" stroke-linecap="round" stroke-linejoin="round"/>
</svg>
