<svg width="80" height="80" viewBox="0 0 80 80" fill="none" xmlns="http://www.w3.org/2000/svg">
<path d="M40 46C36.6863 46 34 48.6863 34 52C34 55.3137 36.6863 58 40 58C43.3137 58 46 55.3137 46 52C46 48.6863 43.3137 46 40 46ZM40 46V40M28 34C31.3137 34 34 31.3137 34 28C34 24.6863 31.3137 22 28 22C24.6863 22 22 24.6863 22 28C22 31.3137 24.6863 34 28 34ZM28 34V38C28 39.2 28.8 40 30 40H50C51.2 40 52 39.2 52 38V34M52 34C55.3137 34 58 31.3137 58 28C58 24.6863 55.3137 22 52 22C48.6863 22 46 24.6863 46 28C46 31.3137 48.6863 34 52 34Z" stroke="#1E1E1E" stroke-width="3" stroke-linecap="round" stroke-linejoin="round"/>
</svg>
