<svg width="80" height="80" viewBox="0 0 80 80" fill="none" xmlns="http://www.w3.org/2000/svg">
<path d="M57.0449 47.4571V28.2816C57.0449 27.1515 56.5959 26.0676 55.7968 25.2685C54.9977 24.4693 53.9138 24.0204 52.7837 24.0204H27.2163C26.0862 24.0204 25.0023 24.4693 24.2032 25.2685C23.4041 26.0676 22.9551 27.1515 22.9551 28.2816V47.4571M57.0449 47.4571H22.9551M57.0449 47.4571L59.7721 52.8902C59.9363 53.2161 60.0141 53.5788 59.9979 53.9435C59.9817 54.3081 59.8721 54.6625 59.6796 54.9726C59.4872 55.2827 59.2182 55.5382 58.8986 55.7145C58.579 55.8908 58.2195 55.9821 57.8545 55.9795H22.1455C21.7805 55.9821 21.421 55.8908 21.1014 55.7145C20.7818 55.5382 20.5128 55.2827 20.3204 54.9726C20.1279 54.6625 20.0183 54.3081 20.0021 53.9435C19.9859 53.5788 20.0637 53.2161 20.2279 52.8902L22.9551 47.4571" stroke="#1E1E1E" stroke-width="3" stroke-linecap="round" stroke-linejoin="round"/>
</svg>
