<svg width="80" height="80" viewBox="0 0 80 80" fill="none" xmlns="http://www.w3.org/2000/svg">
<path d="M43.0092 29.996C43.5617 29.996 44.0096 29.5481 44.0096 28.9956C44.0096 28.4431 43.5617 27.9952 43.0092 27.9952C42.4567 27.9952 42.0088 28.4431 42.0088 28.9956C42.0088 29.5481 42.4567 29.996 43.0092 29.996Z" fill="#1E1E1E"/>
<path d="M51.0124 37.9992C51.5649 37.9992 52.0128 37.5513 52.0128 36.9988C52.0128 36.4463 51.5649 35.9984 51.0124 35.9984C50.4599 35.9984 50.012 36.4463 50.012 36.9988C50.012 37.5513 50.4599 37.9992 51.0124 37.9992Z" fill="#1E1E1E"/>
<path d="M33.0052 31.9968C33.5577 31.9968 34.0056 31.5489 34.0056 30.9964C34.0056 30.4439 33.5577 29.996 33.0052 29.996C32.4527 29.996 32.0048 30.4439 32.0048 30.9964C32.0048 31.5489 32.4527 31.9968 33.0052 31.9968Z" fill="#1E1E1E"/>
<path d="M29.0036 42.0008C29.5561 42.0008 30.004 41.5529 30.004 41.0004C30.004 40.4479 29.5561 40 29.0036 40C28.4511 40 28.0032 40.4479 28.0032 41.0004C28.0032 41.5529 28.4511 42.0008 29.0036 42.0008Z" fill="#1E1E1E"/>
<path d="M43.0092 29.996C43.5617 29.996 44.0096 29.5481 44.0096 28.9956C44.0096 28.4431 43.5617 27.9952 43.0092 27.9952C42.4567 27.9952 42.0088 28.4431 42.0088 28.9956C42.0088 29.5481 42.4567 29.996 43.0092 29.996Z" stroke="#1E1E1E" stroke-width="3" stroke-linecap="round" stroke-linejoin="round"/>
<path d="M51.0124 37.9992C51.5649 37.9992 52.0128 37.5513 52.0128 36.9988C52.0128 36.4463 51.5649 35.9984 51.0124 35.9984C50.4599 35.9984 50.012 36.4463 50.012 36.9988C50.012 37.5513 50.4599 37.9992 51.0124 37.9992Z" stroke="#1E1E1E" stroke-width="3" stroke-linecap="round" stroke-linejoin="round"/>
<path d="M33.0052 31.9968C33.5577 31.9968 34.0056 31.5489 34.0056 30.9964C34.0056 30.4439 33.5577 29.996 33.0052 29.996C32.4527 29.996 32.0048 30.4439 32.0048 30.9964C32.0048 31.5489 32.4527 31.9968 33.0052 31.9968Z" stroke="#1E1E1E" stroke-width="3" stroke-linecap="round" stroke-linejoin="round"/>
<path d="M29.0036 42.0008C29.5561 42.0008 30.004 41.5529 30.004 41.0004C30.004 40.4479 29.5561 40 29.0036 40C28.4511 40 28.0032 40.4479 28.0032 41.0004C28.0032 41.5529 28.4511 42.0008 29.0036 42.0008Z" stroke="#1E1E1E" stroke-width="3" stroke-linecap="round" stroke-linejoin="round"/>
<path d="M40.008 19.992C29.0036 19.992 20 28.9956 20 40C20 51.0044 29.0036 60.008 40.008 60.008C41.8607 60.008 43.3053 58.5154 43.3053 56.6307C43.3053 55.7563 42.9452 54.96 42.431 54.3798C41.8507 53.8015 41.5546 53.0752 41.5546 52.1289C41.547 51.6885 41.6282 51.2511 41.7932 50.8428C41.9582 50.4345 42.2038 50.0635 42.5152 49.7521C42.8266 49.4407 43.1976 49.1951 43.6059 49.0301C44.0142 48.8651 44.4516 48.7839 44.892 48.7915H48.8856C54.99 48.7915 60 43.7835 60 37.6791C59.946 28.0192 50.9344 19.992 40.008 19.992Z" stroke="#1E1E1E" stroke-width="3" stroke-linecap="round" stroke-linejoin="round"/>
</svg>
